M48
; DRILL file {KiCad 6.0.2+dfsg-1} date Mon 19 Feb 2024 01:29:34 PM EET
; FORMAT={-:-/ absolute / inch / decimal}
; #@! TF.CreationDate,2024-02-19T13:29:34+02:00
; #@! TF.GenerationSoftware,Kicad,Pcbnew,6.0.2+dfsg-1
; #@! TF.FileFunction,MixedPlating,1,2
FMAT,2
INCH
; #@! TA.AperFunction,Plated,PTH,ViaDrill
T1C0.0157
; #@! TA.AperFunction,Plated,PTH,ComponentDrill
T2C0.0394
; #@! TA.AperFunction,Plated,PTH,ComponentDrill
T3C0.1260
%
G90
G05
T1
X1.1614Y-1.8071
X1.1693Y-1.7126
X1.2323Y-1.5079
X1.2598Y-1.9685
X1.2598Y-2.185
X1.2795Y-1.7677
X1.2795Y-1.8465
X1.3386Y-2.2835
X1.374Y-1.0394
X1.374Y-1.2441
X1.378Y-1.9291
X1.378Y-2.7559
X1.3858Y-2.437
X1.4094Y-1.8346
X1.4331Y-1.6929
X1.4528Y-2.4843
X1.4724Y-1.0394
X1.4724Y-1.2441
X1.4843Y-1.626
X1.4862Y-1.5354
X1.4862Y-1.8248
X1.4902Y-1.4508
X1.5354Y-1.811
X1.5709Y-1.0394
X1.5709Y-1.1417
X1.5709Y-1.2441
X1.5748Y-1.9291
X1.5748Y-2.7559
X1.6024Y-1.6654
X1.6732Y-1.0394
X1.6732Y-1.2441
X1.6811Y-1.5787
X1.685Y-2.0787
X1.7244Y-1.0394
X1.7402Y-2.3504
X1.752Y-1.6181
X1.7598Y-1.7756
X1.7717Y-1.0394
X1.7717Y-1.2441
X1.7717Y-1.9291
X1.7717Y-2.7559
X1.874Y-1.0394
X1.874Y-1.2441
X1.9134Y-1.7756
X1.9134Y-2.4754
X1.9316Y-2.3243
X1.9494Y-2.4465
X1.9646Y-2.3652
X1.9685Y-1.9291
X1.9685Y-2.7559
X1.9724Y-1.0394
X1.9724Y-1.2441
X1.9803Y-2.4222
X1.9843Y-2.5069
X2.0039Y-2.3652
X2.0128Y-2.2805
X2.0748Y-1.0394
X2.0748Y-1.1417
X2.0748Y-1.2441
X2.1378Y-2.2913
X2.1634Y-2.0217
X2.1654Y-1.9291
X2.1654Y-2.7559
X2.1732Y-1.0394
X2.1732Y-1.2441
X2.1939Y-2.186
X2.2106Y-2.6614
X2.2677Y-2.1033
X2.2717Y-1.0394
X2.2717Y-1.2441
X2.3228Y-1.1417
X2.3258Y-2.2953
X2.3258Y-2.6624
X2.3278Y-2.5167
X2.3622Y-2.7559
X2.374Y-1.0394
X2.374Y-1.2441
X2.4016Y-1.9291
X2.4016Y-2.126
X2.4016Y-2.6772
X2.4724Y-1.0394
X2.4724Y-1.2441
X2.4823Y-1.7461
X2.5022Y-2.5868
X2.5197Y-1.9291
X2.5197Y-2.126
X2.5197Y-2.6772
X2.5197Y-2.7559
X2.5236Y-2.3031
X2.5394Y-2.3622
X2.5709Y-1.2441
X2.5748Y-1.0394
X2.6732Y-1.0394
X2.6732Y-1.2441
X2.7047Y-2.0315
X2.7047Y-2.4409
X2.7165Y-1.9291
X2.7165Y-2.689
X2.7165Y-2.7559
X2.7323Y-2.252
X2.752Y-1.8799
X2.7559Y-1.5354
X2.7717Y-1.0394
X2.7717Y-1.2441
X2.7717Y-2.3425
X2.7953Y-2.252
X2.7953Y-2.6614
X2.8228Y-1.1417
X2.8346Y-1.4567
X2.8583Y-2.252
X2.874Y-1.0394
X2.874Y-1.2441
X2.874Y-1.5748
X2.876Y-1.8238
X2.8967Y-1.7106
X2.8976Y-2.5866
X2.9134Y-1.9291
X2.9134Y-2.7559
X2.9409Y-2.3209
X2.9409Y-2.6614
X2.9528Y-1.4961
X2.9724Y-1.0394
X2.9724Y-1.2441
X2.999Y-2.0719
X3.0039Y-2.3858
X3.0571Y-1.7106
X3.0709Y-1.2441
X3.0748Y-1.0394
X3.0827Y-2.2953
X3.1102Y-1.9291
X3.1102Y-2.7559
X3.126Y-2.0866
X3.126Y-2.4961
X3.1654Y-2.4055
X3.1732Y-1.0394
X3.1732Y-1.2441
X3.1732Y-2.0079
X3.2717Y-1.2441
X3.2726Y-1.1417
X3.2756Y-1.0394
X3.3071Y-1.9291
X3.3071Y-2.7559
X3.3652Y-1.1299
X3.4291Y-2.4567
X3.4488Y-2.6693
X3.4498Y-0.9409
X3.4567Y-1.0354
X3.4646Y-1.5354
X3.4685Y-1.1299
X3.4801Y-2.249
X3.4803Y-2.1969
X3.4803Y-2.311
X3.4961Y-2.0236
X3.5039Y-1.378
X3.5039Y-1.9291
X3.5039Y-2.7559
X3.5315Y-2.6693
X3.5787Y-2.0236
X3.5827Y-1.4567
X3.5827Y-1.6535
X3.685Y-2.2874
X3.7008Y-1.5748
X3.7008Y-1.7323
X3.7008Y-2.7559
X3.7264Y-0.9843
X3.7283Y-2.189
X3.7352Y-2.0915
X3.7638Y-2.5236
X3.7717Y-1.0276
X3.7795Y-2.3031
X3.8268Y-1.0079
X3.8307Y-2.2608
X3.8976Y-1.9291
X3.8976Y-2.7559
X3.9055Y-1.1811
X3.9055Y-1.3858
X3.9055Y-1.5925
X4.0197Y-1.3376
X4.0551Y-2.0866
X4.0551Y-2.2047
X4.0551Y-2.3228
X4.0551Y-2.4803
X4.0551Y-2.6378
X4.063Y-1.0276
X4.0984Y-1.3937
X4.1142Y-1.1614
X4.1535Y-1.1024
X4.1535Y-1.2205
X4.2323Y-1.1024
X4.2323Y-1.2205
X4.2717Y-1.1614
X4.4685Y-1.1791
X4.4685Y-1.374
T2
X1.2441Y-2.3819
X1.2441Y-2.4819
X4.8415Y-1.4134
X4.8415Y-1.5134
X4.8425Y-2.1339
X4.8425Y-2.2339
X4.8425Y-2.3339
X4.8425Y-2.4339
T3
X1.1417Y-1.063
X1.1417Y-2.7165
X4.7638Y-1.0669
X4.7638Y-2.7165
T0
M30
