%TF.GenerationSoftware,KiCad,Pcbnew,6.0.2+dfsg-1*%
%TF.CreationDate,2024-02-19T13:29:31+02:00*%
%TF.ProjectId,qsd_with_si5351_and_rp2040,7173645f-7769-4746-985f-736935333531,rev?*%
%TF.SameCoordinates,Original*%
%TF.FileFunction,Soldermask,Top*%
%TF.FilePolarity,Negative*%
%FSLAX46Y46*%
G04 Gerber Fmt 4.6, Leading zero omitted, Abs format (unit mm)*
G04 Created by KiCad (PCBNEW 6.0.2+dfsg-1) date 2024-02-19 13:29:31*
%MOMM*%
%LPD*%
G01*
G04 APERTURE LIST*
G04 Aperture macros list*
%AMRoundRect*
0 Rectangle with rounded corners*
0 $1 Rounding radius*
0 $2 $3 $4 $5 $6 $7 $8 $9 X,Y pos of 4 corners*
0 Add a 4 corners polygon primitive as box body*
4,1,4,$2,$3,$4,$5,$6,$7,$8,$9,$2,$3,0*
0 Add four circle primitives for the rounded corners*
1,1,$1+$1,$2,$3*
1,1,$1+$1,$4,$5*
1,1,$1+$1,$6,$7*
1,1,$1+$1,$8,$9*
0 Add four rect primitives between the rounded corners*
20,1,$1+$1,$2,$3,$4,$5,0*
20,1,$1+$1,$4,$5,$6,$7,0*
20,1,$1+$1,$6,$7,$8,$9,0*
20,1,$1+$1,$8,$9,$2,$3,0*%
G04 Aperture macros list end*
%ADD10RoundRect,0.250000X-0.250000X-0.475000X0.250000X-0.475000X0.250000X0.475000X-0.250000X0.475000X0*%
%ADD11RoundRect,0.250000X-0.450000X0.350000X-0.450000X-0.350000X0.450000X-0.350000X0.450000X0.350000X0*%
%ADD12R,1.600000X3.500000*%
%ADD13RoundRect,0.250000X0.450000X-0.350000X0.450000X0.350000X-0.450000X0.350000X-0.450000X-0.350000X0*%
%ADD14RoundRect,0.150000X-0.725000X-0.150000X0.725000X-0.150000X0.725000X0.150000X-0.725000X0.150000X0*%
%ADD15R,1.700000X1.700000*%
%ADD16O,1.700000X1.700000*%
%ADD17RoundRect,0.250000X0.350000X0.450000X-0.350000X0.450000X-0.350000X-0.450000X0.350000X-0.450000X0*%
%ADD18RoundRect,0.250000X-0.350000X-0.450000X0.350000X-0.450000X0.350000X0.450000X-0.350000X0.450000X0*%
%ADD19RoundRect,0.250000X-0.475000X0.337500X-0.475000X-0.337500X0.475000X-0.337500X0.475000X0.337500X0*%
%ADD20RoundRect,0.250000X0.275000X0.350000X-0.275000X0.350000X-0.275000X-0.350000X0.275000X-0.350000X0*%
%ADD21R,1.200000X1.400000*%
%ADD22RoundRect,0.250000X0.475000X-0.250000X0.475000X0.250000X-0.475000X0.250000X-0.475000X-0.250000X0*%
%ADD23RoundRect,0.250000X-0.475000X0.250000X-0.475000X-0.250000X0.475000X-0.250000X0.475000X0.250000X0*%
%ADD24C,5.600000*%
%ADD25C,3.600000*%
%ADD26RoundRect,0.250000X0.250000X0.475000X-0.250000X0.475000X-0.250000X-0.475000X0.250000X-0.475000X0*%
%ADD27R,1.000000X3.150000*%
%ADD28R,1.400000X0.300000*%
%ADD29RoundRect,0.100000X-0.637500X-0.100000X0.637500X-0.100000X0.637500X0.100000X-0.637500X0.100000X0*%
%ADD30RoundRect,0.250000X-0.350000X0.275000X-0.350000X-0.275000X0.350000X-0.275000X0.350000X0.275000X0*%
%ADD31R,1.500000X2.000000*%
%ADD32R,3.800000X2.000000*%
%ADD33RoundRect,0.200000X0.800000X0.200000X-0.800000X0.200000X-0.800000X-0.200000X0.800000X-0.200000X0*%
%ADD34RoundRect,0.150000X-0.150000X0.725000X-0.150000X-0.725000X0.150000X-0.725000X0.150000X0.725000X0*%
%ADD35R,4.100000X0.900000*%
%ADD36R,4.100000X2.000000*%
G04 APERTURE END LIST*
D10*
%TO.C,C11*%
X60050000Y-62300000D03*
X61950000Y-62300000D03*
%TD*%
%TO.C,C18*%
X76350000Y-61800000D03*
X78250000Y-61800000D03*
%TD*%
D11*
%TO.C,R1*%
X88800000Y-52500000D03*
X88800000Y-54500000D03*
%TD*%
D10*
%TO.C,C12*%
X60050000Y-60000000D03*
X61950000Y-60000000D03*
%TD*%
D12*
%TO.C,C208*%
X99200000Y-27200000D03*
X99200000Y-32800000D03*
%TD*%
D13*
%TO.C,R9*%
X66600000Y-56000000D03*
X66600000Y-54000000D03*
%TD*%
D14*
%TO.C,U4*%
X71025000Y-63795000D03*
X71025000Y-65065000D03*
X71025000Y-66335000D03*
X71025000Y-67605000D03*
X76175000Y-67605000D03*
X76175000Y-66335000D03*
X76175000Y-65065000D03*
X76175000Y-63795000D03*
%TD*%
D11*
%TO.C,R15*%
X80600000Y-65600000D03*
X80600000Y-67600000D03*
%TD*%
D15*
%TO.C,J3*%
X123000000Y-54200000D03*
D16*
X123000000Y-56740000D03*
X123000000Y-59280000D03*
X123000000Y-61820000D03*
%TD*%
D17*
%TO.C,R16*%
X74600000Y-61800000D03*
X72600000Y-61800000D03*
%TD*%
D13*
%TO.C,R17*%
X68700000Y-65100000D03*
X68700000Y-63100000D03*
%TD*%
D18*
%TO.C,R206*%
X113500000Y-35900000D03*
X115500000Y-35900000D03*
%TD*%
D19*
%TO.C,C204*%
X108700000Y-35162500D03*
X108700000Y-37237500D03*
%TD*%
D11*
%TO.C,R5*%
X93000000Y-52500000D03*
X93000000Y-54500000D03*
%TD*%
D13*
%TO.C,R13*%
X78500000Y-55900000D03*
X78500000Y-53900000D03*
%TD*%
%TO.C,R8*%
X85500000Y-64700000D03*
X85500000Y-62700000D03*
%TD*%
D10*
%TO.C,C1*%
X98750000Y-54500000D03*
X100650000Y-54500000D03*
%TD*%
%TO.C,C103*%
X34500000Y-39000000D03*
X36400000Y-39000000D03*
%TD*%
D18*
%TO.C,R26*%
X40940000Y-59700000D03*
X42940000Y-59700000D03*
%TD*%
D20*
%TO.C,FB2*%
X54950000Y-52550000D03*
X52650000Y-52550000D03*
%TD*%
D10*
%TO.C,C7*%
X52650000Y-56575000D03*
X54550000Y-56575000D03*
%TD*%
D21*
%TO.C,Y101*%
X31350000Y-42000000D03*
X31350000Y-39800000D03*
X29650000Y-39800000D03*
X29650000Y-42000000D03*
%TD*%
D11*
%TO.C,R24*%
X68800000Y-44400000D03*
X68800000Y-46400000D03*
%TD*%
D17*
%TO.C,R11*%
X74600000Y-51400000D03*
X72600000Y-51400000D03*
%TD*%
D12*
%TO.C,C201*%
X113500000Y-32800000D03*
X113500000Y-27200000D03*
%TD*%
D18*
%TO.C,R103*%
X41100000Y-44900000D03*
X43100000Y-44900000D03*
%TD*%
D15*
%TO.C,J2*%
X31600000Y-60500000D03*
D16*
X31600000Y-63040000D03*
%TD*%
D10*
%TO.C,C9*%
X60050000Y-56500000D03*
X61950000Y-56500000D03*
%TD*%
D11*
%TO.C,R102*%
X48000000Y-53875000D03*
X48000000Y-55875000D03*
%TD*%
D13*
%TO.C,R6*%
X91800000Y-66700000D03*
X91800000Y-64700000D03*
%TD*%
D11*
%TO.C,R25*%
X66600000Y-42400000D03*
X66600000Y-44400000D03*
%TD*%
D22*
%TO.C,C3*%
X57600000Y-56525000D03*
X57600000Y-54625000D03*
%TD*%
D13*
%TO.C,R12*%
X68700000Y-54700000D03*
X68700000Y-52700000D03*
%TD*%
D23*
%TO.C,C6*%
X57600000Y-62025000D03*
X57600000Y-63925000D03*
%TD*%
D15*
%TO.C,J201*%
X122975000Y-35900000D03*
D16*
X122975000Y-38440000D03*
%TD*%
D24*
%TO.C,H2*%
X121000000Y-27100000D03*
D25*
X121000000Y-27100000D03*
%TD*%
D18*
%TO.C,R202*%
X39200000Y-36800000D03*
X41200000Y-36800000D03*
%TD*%
D24*
%TO.C,H4*%
X29000000Y-27000000D03*
D25*
X29000000Y-27000000D03*
%TD*%
D23*
%TO.C,C5*%
X57600000Y-65725000D03*
X57600000Y-67625000D03*
%TD*%
D24*
%TO.C,H1*%
X29000000Y-69000000D03*
D25*
X29000000Y-69000000D03*
%TD*%
D26*
%TO.C,C104*%
X37750000Y-45100000D03*
X35850000Y-45100000D03*
%TD*%
D10*
%TO.C,C8*%
X40850000Y-61800000D03*
X42750000Y-61800000D03*
%TD*%
D27*
%TO.C,J102*%
X34870000Y-31525000D03*
X34870000Y-26475000D03*
X37410000Y-31525000D03*
X37410000Y-26475000D03*
X39950000Y-31525000D03*
X39950000Y-26475000D03*
X42490000Y-31525000D03*
X42490000Y-26475000D03*
X45030000Y-31525000D03*
X45030000Y-26475000D03*
X47570000Y-31525000D03*
X47570000Y-26475000D03*
X50110000Y-31525000D03*
X50110000Y-26475000D03*
X52650000Y-31525000D03*
X52650000Y-26475000D03*
X55190000Y-31525000D03*
X55190000Y-26475000D03*
X57730000Y-31525000D03*
X57730000Y-26475000D03*
X60270000Y-31525000D03*
X60270000Y-26475000D03*
X62810000Y-31525000D03*
X62810000Y-26475000D03*
X65350000Y-31525000D03*
X65350000Y-26475000D03*
X67890000Y-31525000D03*
X67890000Y-26475000D03*
X70430000Y-31525000D03*
X70430000Y-26475000D03*
X72970000Y-31525000D03*
X72970000Y-26475000D03*
X75510000Y-31525000D03*
X75510000Y-26475000D03*
X78050000Y-31525000D03*
X78050000Y-26475000D03*
X80590000Y-31525000D03*
X80590000Y-26475000D03*
X83130000Y-31525000D03*
X83130000Y-26475000D03*
%TD*%
D28*
%TO.C,U103*%
X34700000Y-41000000D03*
X34700000Y-41500000D03*
X34700000Y-42000000D03*
X34700000Y-42500000D03*
X34700000Y-43000000D03*
X39100000Y-43000000D03*
X39100000Y-42500000D03*
X39100000Y-42000000D03*
X39100000Y-41500000D03*
X39100000Y-41000000D03*
%TD*%
D10*
%TO.C,C17*%
X98750000Y-60700000D03*
X100650000Y-60700000D03*
%TD*%
%TO.C,C16*%
X76350000Y-51400000D03*
X78250000Y-51400000D03*
%TD*%
D29*
%TO.C,U2*%
X46937500Y-58200000D03*
X46937500Y-58850000D03*
X46937500Y-59500000D03*
X46937500Y-60150000D03*
X46937500Y-60800000D03*
X46937500Y-61450000D03*
X46937500Y-62100000D03*
X46937500Y-62750000D03*
X52662500Y-62750000D03*
X52662500Y-62100000D03*
X52662500Y-61450000D03*
X52662500Y-60800000D03*
X52662500Y-60150000D03*
X52662500Y-59500000D03*
X52662500Y-58850000D03*
X52662500Y-58200000D03*
%TD*%
D30*
%TO.C,FB1*%
X42775000Y-54200000D03*
X42775000Y-56500000D03*
%TD*%
D23*
%TO.C,C19*%
X94061977Y-62250000D03*
X94061977Y-64150000D03*
%TD*%
D31*
%TO.C,U201*%
X104100000Y-32750000D03*
X106400000Y-32750000D03*
D32*
X106400000Y-26450000D03*
D31*
X108700000Y-32750000D03*
%TD*%
D23*
%TO.C,C13*%
X71000000Y-44450000D03*
X71000000Y-46350000D03*
%TD*%
D12*
%TO.C,C203*%
X99200000Y-43200000D03*
X99200000Y-37600000D03*
%TD*%
D17*
%TO.C,R205*%
X93600000Y-25000000D03*
X91600000Y-25000000D03*
%TD*%
D30*
%TO.C,FB6*%
X96061977Y-59550000D03*
X96061977Y-61850000D03*
%TD*%
D26*
%TO.C,C2*%
X37050000Y-58600000D03*
X35150000Y-58600000D03*
%TD*%
D33*
%TO.C,U1*%
X38690000Y-60530000D03*
X38690000Y-61800000D03*
X38690000Y-63070000D03*
X35190000Y-63070000D03*
X35200000Y-60530000D03*
%TD*%
D22*
%TO.C,C4*%
X57600000Y-60225000D03*
X57600000Y-58325000D03*
%TD*%
D18*
%TO.C,R201*%
X39200000Y-38900000D03*
X41200000Y-38900000D03*
%TD*%
D20*
%TO.C,FB102*%
X36600000Y-36850000D03*
X34300000Y-36850000D03*
%TD*%
D34*
%TO.C,U5*%
X92205000Y-57125000D03*
X90935000Y-57125000D03*
X89665000Y-57125000D03*
X88395000Y-57125000D03*
X88395000Y-62275000D03*
X89665000Y-62275000D03*
X90935000Y-62275000D03*
X92205000Y-62275000D03*
%TD*%
D18*
%TO.C,R107*%
X29500000Y-44900000D03*
X31500000Y-44900000D03*
%TD*%
D23*
%TO.C,C14*%
X64500000Y-42450000D03*
X64500000Y-44350000D03*
%TD*%
D11*
%TO.C,R10*%
X80600000Y-55200000D03*
X80600000Y-57200000D03*
%TD*%
D19*
%TO.C,C206*%
X106400000Y-35162500D03*
X106400000Y-37237500D03*
%TD*%
D11*
%TO.C,R101*%
X50100000Y-53875000D03*
X50100000Y-55875000D03*
%TD*%
D17*
%TO.C,R19*%
X37100000Y-56500000D03*
X35100000Y-56500000D03*
%TD*%
D18*
%TO.C,R27*%
X40940000Y-63900000D03*
X42940000Y-63900000D03*
%TD*%
D13*
%TO.C,R18*%
X78500000Y-66300000D03*
X78500000Y-64300000D03*
%TD*%
D14*
%TO.C,U3*%
X71025000Y-53395000D03*
X71025000Y-54665000D03*
X71025000Y-55935000D03*
X71025000Y-57205000D03*
X76175000Y-57205000D03*
X76175000Y-55935000D03*
X76175000Y-54665000D03*
X76175000Y-53395000D03*
%TD*%
D13*
%TO.C,R4*%
X87600000Y-66700000D03*
X87600000Y-64700000D03*
%TD*%
%TO.C,R14*%
X66600000Y-66300000D03*
X66600000Y-64300000D03*
%TD*%
D24*
%TO.C,H3*%
X121000000Y-69000000D03*
D25*
X121000000Y-69000000D03*
%TD*%
D18*
%TO.C,R106*%
X29500000Y-46900000D03*
X31500000Y-46900000D03*
%TD*%
%TO.C,R208*%
X105750000Y-43200000D03*
X107750000Y-43200000D03*
%TD*%
D17*
%TO.C,R104*%
X43100000Y-47000000D03*
X41100000Y-47000000D03*
%TD*%
D10*
%TO.C,C15*%
X52650000Y-54475000D03*
X54550000Y-54475000D03*
%TD*%
D11*
%TO.C,R7*%
X85500000Y-54500000D03*
X85500000Y-56500000D03*
%TD*%
D13*
%TO.C,R207*%
X86875000Y-29700000D03*
X86875000Y-27700000D03*
%TD*%
D11*
%TO.C,R2*%
X90900000Y-52500000D03*
X90900000Y-54500000D03*
%TD*%
D13*
%TO.C,R3*%
X89700000Y-66700000D03*
X89700000Y-64700000D03*
%TD*%
D35*
%TO.C,J1*%
X27295000Y-60500000D03*
D36*
X27295000Y-63300000D03*
X27295000Y-57700000D03*
%TD*%
D17*
%TO.C,R20*%
X40900000Y-56500000D03*
X38900000Y-56500000D03*
%TD*%
D20*
%TO.C,FB3*%
X71025000Y-42400000D03*
X68725000Y-42400000D03*
%TD*%
D10*
%TO.C,C10*%
X60050000Y-65700000D03*
X61950000Y-65700000D03*
%TD*%
G36*
X103942121Y-61520002D02*
G01*
X103988614Y-61573658D01*
X104000000Y-61626000D01*
X104000000Y-70874000D01*
X103979998Y-70942121D01*
X103926342Y-70988614D01*
X103874000Y-71000000D01*
X63126000Y-71000000D01*
X63057879Y-70979998D01*
X63011386Y-70926342D01*
X63000000Y-70874000D01*
X63000000Y-67126000D01*
X63020002Y-67057879D01*
X63073658Y-67011386D01*
X63126000Y-67000000D01*
X64874000Y-67000000D01*
X64942121Y-67020002D01*
X64988614Y-67073658D01*
X65000000Y-67126000D01*
X65000000Y-68981885D01*
X65004475Y-68997124D01*
X65005865Y-68998329D01*
X65013548Y-69000000D01*
X101981885Y-69000000D01*
X101997124Y-68995525D01*
X101998329Y-68994135D01*
X102000000Y-68986452D01*
X102000000Y-61626000D01*
X102020002Y-61557879D01*
X102073658Y-61511386D01*
X102126000Y-61500000D01*
X103874000Y-61500000D01*
X103942121Y-61520002D01*
G37*
G36*
X47442121Y-48020002D02*
G01*
X47488614Y-48073658D01*
X47500000Y-48126000D01*
X47500000Y-49874000D01*
X47479998Y-49942121D01*
X47426342Y-49988614D01*
X47374000Y-50000000D01*
X33018115Y-50000000D01*
X33002876Y-50004475D01*
X33001671Y-50005865D01*
X33000000Y-50013548D01*
X33000000Y-57874000D01*
X32979998Y-57942121D01*
X32926342Y-57988614D01*
X32874000Y-58000000D01*
X31126000Y-58000000D01*
X31057879Y-57979998D01*
X31011386Y-57926342D01*
X31000000Y-57874000D01*
X31000000Y-48126000D01*
X31020002Y-48057879D01*
X31073658Y-48011386D01*
X31126000Y-48000000D01*
X47374000Y-48000000D01*
X47442121Y-48020002D01*
G37*
G36*
X61942121Y-48020002D02*
G01*
X61988614Y-48073658D01*
X62000000Y-48126000D01*
X62000000Y-54874000D01*
X61979998Y-54942121D01*
X61926342Y-54988614D01*
X61874000Y-55000000D01*
X60126000Y-55000000D01*
X60057879Y-54979998D01*
X60011386Y-54926342D01*
X60000000Y-54874000D01*
X60000000Y-50018115D01*
X59995525Y-50002876D01*
X59994135Y-50001671D01*
X59986452Y-50000000D01*
X49126000Y-50000000D01*
X49057879Y-49979998D01*
X49011386Y-49926342D01*
X49000000Y-49874000D01*
X49000000Y-48126000D01*
X49020002Y-48057879D01*
X49073658Y-48011386D01*
X49126000Y-48000000D01*
X61874000Y-48000000D01*
X61942121Y-48020002D01*
G37*
G36*
X103942121Y-55520002D02*
G01*
X103988614Y-55573658D01*
X104000000Y-55626000D01*
X104000000Y-59874000D01*
X103979998Y-59942121D01*
X103926342Y-59988614D01*
X103874000Y-60000000D01*
X102126000Y-60000000D01*
X102057879Y-59979998D01*
X102011386Y-59926342D01*
X102000000Y-59874000D01*
X102000000Y-55626000D01*
X102020002Y-55557879D01*
X102073658Y-55511386D01*
X102126000Y-55500000D01*
X103874000Y-55500000D01*
X103942121Y-55520002D01*
G37*
G36*
X103942121Y-48020002D02*
G01*
X103988614Y-48073658D01*
X104000000Y-48126000D01*
X104000000Y-53374000D01*
X103979998Y-53442121D01*
X103926342Y-53488614D01*
X103874000Y-53500000D01*
X102126000Y-53500000D01*
X102057879Y-53479998D01*
X102011386Y-53426342D01*
X102000000Y-53374000D01*
X102000000Y-50018115D01*
X101995525Y-50002876D01*
X101994135Y-50001671D01*
X101986452Y-50000000D01*
X96126000Y-50000000D01*
X96057879Y-49979998D01*
X96011386Y-49926342D01*
X96000000Y-49874000D01*
X96000000Y-48126000D01*
X96020002Y-48057879D01*
X96073658Y-48011386D01*
X96126000Y-48000000D01*
X103874000Y-48000000D01*
X103942121Y-48020002D01*
G37*
G36*
X61942121Y-67020002D02*
G01*
X61988614Y-67073658D01*
X62000000Y-67126000D01*
X62000000Y-70874000D01*
X61979998Y-70942121D01*
X61926342Y-70988614D01*
X61874000Y-71000000D01*
X33126000Y-71000000D01*
X33057879Y-70979998D01*
X33011386Y-70926342D01*
X33000000Y-70874000D01*
X33000000Y-69126000D01*
X33020002Y-69057879D01*
X33073658Y-69011386D01*
X33126000Y-69000000D01*
X59981885Y-69000000D01*
X59997124Y-68995525D01*
X59998329Y-68994135D01*
X60000000Y-68986452D01*
X60000000Y-67126000D01*
X60020002Y-67057879D01*
X60073658Y-67011386D01*
X60126000Y-67000000D01*
X61874000Y-67000000D01*
X61942121Y-67020002D01*
G37*
G36*
X81442121Y-48020002D02*
G01*
X81488614Y-48073658D01*
X81500000Y-48126000D01*
X81500000Y-49874000D01*
X81479998Y-49942121D01*
X81426342Y-49988614D01*
X81374000Y-50000000D01*
X67626000Y-50000000D01*
X67557879Y-49979998D01*
X67511386Y-49926342D01*
X67500000Y-49874000D01*
X67500000Y-48126000D01*
X67520002Y-48057879D01*
X67573658Y-48011386D01*
X67626000Y-48000000D01*
X81374000Y-48000000D01*
X81442121Y-48020002D01*
G37*
G36*
X93942121Y-48020002D02*
G01*
X93988614Y-48073658D01*
X94000000Y-48126000D01*
X94000000Y-49874000D01*
X93979998Y-49942121D01*
X93926342Y-49988614D01*
X93874000Y-50000000D01*
X83126000Y-50000000D01*
X83057879Y-49979998D01*
X83011386Y-49926342D01*
X83000000Y-49874000D01*
X83000000Y-48126000D01*
X83020002Y-48057879D01*
X83073658Y-48011386D01*
X83126000Y-48000000D01*
X93874000Y-48000000D01*
X93942121Y-48020002D01*
G37*
G36*
X65442121Y-48020002D02*
G01*
X65488614Y-48073658D01*
X65500000Y-48126000D01*
X65500000Y-49874000D01*
X65479998Y-49942121D01*
X65426342Y-49988614D01*
X65374000Y-50000000D01*
X65018115Y-50000000D01*
X65002876Y-50004475D01*
X65001671Y-50005865D01*
X65000000Y-50013548D01*
X65000000Y-54874000D01*
X64979998Y-54942121D01*
X64926342Y-54988614D01*
X64874000Y-55000000D01*
X63126000Y-55000000D01*
X63057879Y-54979998D01*
X63011386Y-54926342D01*
X63000000Y-54874000D01*
X63000000Y-48126000D01*
X63020002Y-48057879D01*
X63073658Y-48011386D01*
X63126000Y-48000000D01*
X65374000Y-48000000D01*
X65442121Y-48020002D01*
G37*
M02*
