%TF.GenerationSoftware,KiCad,Pcbnew,6.0.2+dfsg-1*%
%TF.CreationDate,2024-02-19T13:29:30+02:00*%
%TF.ProjectId,qsd_with_si5351_and_rp2040,7173645f-7769-4746-985f-736935333531,rev?*%
%TF.SameCoordinates,Original*%
%TF.FileFunction,Legend,Top*%
%TF.FilePolarity,Positive*%
%FSLAX46Y46*%
G04 Gerber Fmt 4.6, Leading zero omitted, Abs format (unit mm)*
G04 Created by KiCad (PCBNEW 6.0.2+dfsg-1) date 2024-02-19 13:29:30*
%MOMM*%
%LPD*%
G01*
G04 APERTURE LIST*
%ADD10C,0.100000*%
%ADD11C,0.300000*%
%ADD12C,0.150000*%
%ADD13C,0.200000*%
%ADD14C,0.120000*%
%ADD15C,0.050000*%
G04 APERTURE END LIST*
D10*
X72404761Y-33650000D02*
X72357142Y-33626190D01*
X72285714Y-33626190D01*
X72214285Y-33650000D01*
X72166666Y-33697619D01*
X72142857Y-33745238D01*
X72119047Y-33840476D01*
X72119047Y-33911904D01*
X72142857Y-34007142D01*
X72166666Y-34054761D01*
X72214285Y-34102380D01*
X72285714Y-34126190D01*
X72333333Y-34126190D01*
X72404761Y-34102380D01*
X72428571Y-34078571D01*
X72428571Y-33911904D01*
X72333333Y-33911904D01*
X72642857Y-34126190D02*
X72642857Y-33626190D01*
X72833333Y-33626190D01*
X72880952Y-33650000D01*
X72904761Y-33673809D01*
X72928571Y-33721428D01*
X72928571Y-33792857D01*
X72904761Y-33840476D01*
X72880952Y-33864285D01*
X72833333Y-33888095D01*
X72642857Y-33888095D01*
X73404761Y-34126190D02*
X73119047Y-34126190D01*
X73261904Y-34126190D02*
X73261904Y-33626190D01*
X73214285Y-33697619D01*
X73166666Y-33745238D01*
X73119047Y-33769047D01*
X73595238Y-33673809D02*
X73619047Y-33650000D01*
X73666666Y-33626190D01*
X73785714Y-33626190D01*
X73833333Y-33650000D01*
X73857142Y-33673809D01*
X73880952Y-33721428D01*
X73880952Y-33769047D01*
X73857142Y-33840476D01*
X73571428Y-34126190D01*
X73880952Y-34126190D01*
D11*
X112261904Y-53104761D02*
X112642857Y-53104761D01*
X112833333Y-53200000D01*
X113023809Y-53390476D01*
X113119047Y-53771428D01*
X113119047Y-54438095D01*
X113023809Y-54819047D01*
X112833333Y-55009523D01*
X112642857Y-55104761D01*
X112261904Y-55104761D01*
X112071428Y-55009523D01*
X111880952Y-54819047D01*
X111785714Y-54438095D01*
X111785714Y-53771428D01*
X111880952Y-53390476D01*
X112071428Y-53200000D01*
X112261904Y-53104761D01*
X113976190Y-53104761D02*
X113976190Y-54723809D01*
X114071428Y-54914285D01*
X114166666Y-55009523D01*
X114357142Y-55104761D01*
X114738095Y-55104761D01*
X114928571Y-55009523D01*
X115023809Y-54914285D01*
X115119047Y-54723809D01*
X115119047Y-53104761D01*
X115785714Y-53104761D02*
X116928571Y-53104761D01*
X116357142Y-55104761D02*
X116357142Y-53104761D01*
X119119047Y-55104761D02*
X119119047Y-53104761D01*
D10*
X77504761Y-23850000D02*
X77457142Y-23826190D01*
X77385714Y-23826190D01*
X77314285Y-23850000D01*
X77266666Y-23897619D01*
X77242857Y-23945238D01*
X77219047Y-24040476D01*
X77219047Y-24111904D01*
X77242857Y-24207142D01*
X77266666Y-24254761D01*
X77314285Y-24302380D01*
X77385714Y-24326190D01*
X77433333Y-24326190D01*
X77504761Y-24302380D01*
X77528571Y-24278571D01*
X77528571Y-24111904D01*
X77433333Y-24111904D01*
X77742857Y-24326190D02*
X77742857Y-23826190D01*
X77933333Y-23826190D01*
X77980952Y-23850000D01*
X78004761Y-23873809D01*
X78028571Y-23921428D01*
X78028571Y-23992857D01*
X78004761Y-24040476D01*
X77980952Y-24064285D01*
X77933333Y-24088095D01*
X77742857Y-24088095D01*
X78219047Y-23873809D02*
X78242857Y-23850000D01*
X78290476Y-23826190D01*
X78409523Y-23826190D01*
X78457142Y-23850000D01*
X78480952Y-23873809D01*
X78504761Y-23921428D01*
X78504761Y-23969047D01*
X78480952Y-24040476D01*
X78195238Y-24326190D01*
X78504761Y-24326190D01*
X78933333Y-23992857D02*
X78933333Y-24326190D01*
X78814285Y-23802380D02*
X78695238Y-24159523D01*
X79004761Y-24159523D01*
D11*
X113976190Y-57000000D02*
X113785714Y-56904761D01*
X113500000Y-56904761D01*
X113214285Y-57000000D01*
X113023809Y-57190476D01*
X112928571Y-57380952D01*
X112833333Y-57761904D01*
X112833333Y-58047619D01*
X112928571Y-58428571D01*
X113023809Y-58619047D01*
X113214285Y-58809523D01*
X113500000Y-58904761D01*
X113690476Y-58904761D01*
X113976190Y-58809523D01*
X114071428Y-58714285D01*
X114071428Y-58047619D01*
X113690476Y-58047619D01*
X114928571Y-58904761D02*
X114928571Y-56904761D01*
X116071428Y-58904761D01*
X116071428Y-56904761D01*
X117023809Y-58904761D02*
X117023809Y-56904761D01*
X117500000Y-56904761D01*
X117785714Y-57000000D01*
X117976190Y-57190476D01*
X118071428Y-57380952D01*
X118166666Y-57761904D01*
X118166666Y-58047619D01*
X118071428Y-58428571D01*
X117976190Y-58619047D01*
X117785714Y-58809523D01*
X117500000Y-58904761D01*
X117023809Y-58904761D01*
D10*
X36352380Y-23826190D02*
X36519047Y-24326190D01*
X36685714Y-23826190D01*
X36852380Y-24326190D02*
X36852380Y-23826190D01*
X36971428Y-23826190D01*
X37042857Y-23850000D01*
X37090476Y-23897619D01*
X37114285Y-23945238D01*
X37138095Y-24040476D01*
X37138095Y-24111904D01*
X37114285Y-24207142D01*
X37090476Y-24254761D01*
X37042857Y-24302380D01*
X36971428Y-24326190D01*
X36852380Y-24326190D01*
X37352380Y-24326190D02*
X37352380Y-23826190D01*
X37471428Y-23826190D01*
X37542857Y-23850000D01*
X37590476Y-23897619D01*
X37614285Y-23945238D01*
X37638095Y-24040476D01*
X37638095Y-24111904D01*
X37614285Y-24207142D01*
X37590476Y-24254761D01*
X37542857Y-24302380D01*
X37471428Y-24326190D01*
X37352380Y-24326190D01*
X37733333Y-24373809D02*
X38114285Y-24373809D01*
X38209523Y-24302380D02*
X38280952Y-24326190D01*
X38400000Y-24326190D01*
X38447619Y-24302380D01*
X38471428Y-24278571D01*
X38495238Y-24230952D01*
X38495238Y-24183333D01*
X38471428Y-24135714D01*
X38447619Y-24111904D01*
X38400000Y-24088095D01*
X38304761Y-24064285D01*
X38257142Y-24040476D01*
X38233333Y-24016666D01*
X38209523Y-23969047D01*
X38209523Y-23921428D01*
X38233333Y-23873809D01*
X38257142Y-23850000D01*
X38304761Y-23826190D01*
X38423809Y-23826190D01*
X38495238Y-23850000D01*
X38804761Y-24088095D02*
X38804761Y-24326190D01*
X38638095Y-23826190D02*
X38804761Y-24088095D01*
X38971428Y-23826190D01*
X39114285Y-24302380D02*
X39185714Y-24326190D01*
X39304761Y-24326190D01*
X39352380Y-24302380D01*
X39376190Y-24278571D01*
X39400000Y-24230952D01*
X39400000Y-24183333D01*
X39376190Y-24135714D01*
X39352380Y-24111904D01*
X39304761Y-24088095D01*
X39209523Y-24064285D01*
X39161904Y-24040476D01*
X39138095Y-24016666D01*
X39114285Y-23969047D01*
X39114285Y-23921428D01*
X39138095Y-23873809D01*
X39161904Y-23850000D01*
X39209523Y-23826190D01*
X39328571Y-23826190D01*
X39400000Y-23850000D01*
X69804761Y-23850000D02*
X69757142Y-23826190D01*
X69685714Y-23826190D01*
X69614285Y-23850000D01*
X69566666Y-23897619D01*
X69542857Y-23945238D01*
X69519047Y-24040476D01*
X69519047Y-24111904D01*
X69542857Y-24207142D01*
X69566666Y-24254761D01*
X69614285Y-24302380D01*
X69685714Y-24326190D01*
X69733333Y-24326190D01*
X69804761Y-24302380D01*
X69828571Y-24278571D01*
X69828571Y-24111904D01*
X69733333Y-24111904D01*
X70042857Y-24326190D02*
X70042857Y-23826190D01*
X70233333Y-23826190D01*
X70280952Y-23850000D01*
X70304761Y-23873809D01*
X70328571Y-23921428D01*
X70328571Y-23992857D01*
X70304761Y-24040476D01*
X70280952Y-24064285D01*
X70233333Y-24088095D01*
X70042857Y-24088095D01*
X70519047Y-23873809D02*
X70542857Y-23850000D01*
X70590476Y-23826190D01*
X70709523Y-23826190D01*
X70757142Y-23850000D01*
X70780952Y-23873809D01*
X70804761Y-23921428D01*
X70804761Y-23969047D01*
X70780952Y-24040476D01*
X70495238Y-24326190D01*
X70804761Y-24326190D01*
X71114285Y-23826190D02*
X71161904Y-23826190D01*
X71209523Y-23850000D01*
X71233333Y-23873809D01*
X71257142Y-23921428D01*
X71280952Y-24016666D01*
X71280952Y-24135714D01*
X71257142Y-24230952D01*
X71233333Y-24278571D01*
X71209523Y-24302380D01*
X71161904Y-24326190D01*
X71114285Y-24326190D01*
X71066666Y-24302380D01*
X71042857Y-24278571D01*
X71019047Y-24230952D01*
X70995238Y-24135714D01*
X70995238Y-24016666D01*
X71019047Y-23921428D01*
X71042857Y-23873809D01*
X71066666Y-23850000D01*
X71114285Y-23826190D01*
X77404761Y-33650000D02*
X77357142Y-33626190D01*
X77285714Y-33626190D01*
X77214285Y-33650000D01*
X77166666Y-33697619D01*
X77142857Y-33745238D01*
X77119047Y-33840476D01*
X77119047Y-33911904D01*
X77142857Y-34007142D01*
X77166666Y-34054761D01*
X77214285Y-34102380D01*
X77285714Y-34126190D01*
X77333333Y-34126190D01*
X77404761Y-34102380D01*
X77428571Y-34078571D01*
X77428571Y-33911904D01*
X77333333Y-33911904D01*
X77642857Y-34126190D02*
X77642857Y-33626190D01*
X77833333Y-33626190D01*
X77880952Y-33650000D01*
X77904761Y-33673809D01*
X77928571Y-33721428D01*
X77928571Y-33792857D01*
X77904761Y-33840476D01*
X77880952Y-33864285D01*
X77833333Y-33888095D01*
X77642857Y-33888095D01*
X78119047Y-33673809D02*
X78142857Y-33650000D01*
X78190476Y-33626190D01*
X78309523Y-33626190D01*
X78357142Y-33650000D01*
X78380952Y-33673809D01*
X78404761Y-33721428D01*
X78404761Y-33769047D01*
X78380952Y-33840476D01*
X78095238Y-34126190D01*
X78404761Y-34126190D01*
X78857142Y-33626190D02*
X78619047Y-33626190D01*
X78595238Y-33864285D01*
X78619047Y-33840476D01*
X78666666Y-33816666D01*
X78785714Y-33816666D01*
X78833333Y-33840476D01*
X78857142Y-33864285D01*
X78880952Y-33911904D01*
X78880952Y-34030952D01*
X78857142Y-34078571D01*
X78833333Y-34102380D01*
X78785714Y-34126190D01*
X78666666Y-34126190D01*
X78619047Y-34102380D01*
X78595238Y-34078571D01*
X59930952Y-24326190D02*
X59764285Y-24088095D01*
X59645238Y-24326190D02*
X59645238Y-23826190D01*
X59835714Y-23826190D01*
X59883333Y-23850000D01*
X59907142Y-23873809D01*
X59930952Y-23921428D01*
X59930952Y-23992857D01*
X59907142Y-24040476D01*
X59883333Y-24064285D01*
X59835714Y-24088095D01*
X59645238Y-24088095D01*
X60145238Y-23826190D02*
X60145238Y-24230952D01*
X60169047Y-24278571D01*
X60192857Y-24302380D01*
X60240476Y-24326190D01*
X60335714Y-24326190D01*
X60383333Y-24302380D01*
X60407142Y-24278571D01*
X60430952Y-24230952D01*
X60430952Y-23826190D01*
X60669047Y-24326190D02*
X60669047Y-23826190D01*
X60954761Y-24326190D01*
X60954761Y-23826190D01*
X42142857Y-33650000D02*
X42095238Y-33626190D01*
X42023809Y-33626190D01*
X41952380Y-33650000D01*
X41904761Y-33697619D01*
X41880952Y-33745238D01*
X41857142Y-33840476D01*
X41857142Y-33911904D01*
X41880952Y-34007142D01*
X41904761Y-34054761D01*
X41952380Y-34102380D01*
X42023809Y-34126190D01*
X42071428Y-34126190D01*
X42142857Y-34102380D01*
X42166666Y-34078571D01*
X42166666Y-33911904D01*
X42071428Y-33911904D01*
X42380952Y-34126190D02*
X42380952Y-33626190D01*
X42571428Y-33626190D01*
X42619047Y-33650000D01*
X42642857Y-33673809D01*
X42666666Y-33721428D01*
X42666666Y-33792857D01*
X42642857Y-33840476D01*
X42619047Y-33864285D01*
X42571428Y-33888095D01*
X42380952Y-33888095D01*
X42857142Y-33673809D02*
X42880952Y-33650000D01*
X42928571Y-33626190D01*
X43047619Y-33626190D01*
X43095238Y-33650000D01*
X43119047Y-33673809D01*
X43142857Y-33721428D01*
X43142857Y-33769047D01*
X43119047Y-33840476D01*
X42833333Y-34126190D01*
X43142857Y-34126190D01*
X82504761Y-33650000D02*
X82457142Y-33626190D01*
X82385714Y-33626190D01*
X82314285Y-33650000D01*
X82266666Y-33697619D01*
X82242857Y-33745238D01*
X82219047Y-33840476D01*
X82219047Y-33911904D01*
X82242857Y-34007142D01*
X82266666Y-34054761D01*
X82314285Y-34102380D01*
X82385714Y-34126190D01*
X82433333Y-34126190D01*
X82504761Y-34102380D01*
X82528571Y-34078571D01*
X82528571Y-33911904D01*
X82433333Y-33911904D01*
X82742857Y-34126190D02*
X82742857Y-33626190D01*
X82933333Y-33626190D01*
X82980952Y-33650000D01*
X83004761Y-33673809D01*
X83028571Y-33721428D01*
X83028571Y-33792857D01*
X83004761Y-33840476D01*
X82980952Y-33864285D01*
X82933333Y-33888095D01*
X82742857Y-33888095D01*
X83504761Y-34126190D02*
X83219047Y-34126190D01*
X83361904Y-34126190D02*
X83361904Y-33626190D01*
X83314285Y-33697619D01*
X83266666Y-33745238D01*
X83219047Y-33769047D01*
X83957142Y-33626190D02*
X83719047Y-33626190D01*
X83695238Y-33864285D01*
X83719047Y-33840476D01*
X83766666Y-33816666D01*
X83885714Y-33816666D01*
X83933333Y-33840476D01*
X83957142Y-33864285D01*
X83980952Y-33911904D01*
X83980952Y-34030952D01*
X83957142Y-34078571D01*
X83933333Y-34102380D01*
X83885714Y-34126190D01*
X83766666Y-34126190D01*
X83719047Y-34102380D01*
X83695238Y-34078571D01*
X64804761Y-23850000D02*
X64757142Y-23826190D01*
X64685714Y-23826190D01*
X64614285Y-23850000D01*
X64566666Y-23897619D01*
X64542857Y-23945238D01*
X64519047Y-24040476D01*
X64519047Y-24111904D01*
X64542857Y-24207142D01*
X64566666Y-24254761D01*
X64614285Y-24302380D01*
X64685714Y-24326190D01*
X64733333Y-24326190D01*
X64804761Y-24302380D01*
X64828571Y-24278571D01*
X64828571Y-24111904D01*
X64733333Y-24111904D01*
X65042857Y-24326190D02*
X65042857Y-23826190D01*
X65233333Y-23826190D01*
X65280952Y-23850000D01*
X65304761Y-23873809D01*
X65328571Y-23921428D01*
X65328571Y-23992857D01*
X65304761Y-24040476D01*
X65280952Y-24064285D01*
X65233333Y-24088095D01*
X65042857Y-24088095D01*
X65519047Y-23873809D02*
X65542857Y-23850000D01*
X65590476Y-23826190D01*
X65709523Y-23826190D01*
X65757142Y-23850000D01*
X65780952Y-23873809D01*
X65804761Y-23921428D01*
X65804761Y-23969047D01*
X65780952Y-24040476D01*
X65495238Y-24326190D01*
X65804761Y-24326190D01*
X65971428Y-23826190D02*
X66280952Y-23826190D01*
X66114285Y-24016666D01*
X66185714Y-24016666D01*
X66233333Y-24040476D01*
X66257142Y-24064285D01*
X66280952Y-24111904D01*
X66280952Y-24230952D01*
X66257142Y-24278571D01*
X66233333Y-24302380D01*
X66185714Y-24326190D01*
X66042857Y-24326190D01*
X65995238Y-24302380D01*
X65971428Y-24278571D01*
D12*
X35380952Y-54847619D02*
X35285714Y-54800000D01*
X35190476Y-54704761D01*
X35047619Y-54561904D01*
X34952380Y-54514285D01*
X34857142Y-54514285D01*
X34904761Y-54752380D02*
X34809523Y-54704761D01*
X34714285Y-54609523D01*
X34666666Y-54419047D01*
X34666666Y-54085714D01*
X34714285Y-53895238D01*
X34809523Y-53800000D01*
X34904761Y-53752380D01*
X35095238Y-53752380D01*
X35190476Y-53800000D01*
X35285714Y-53895238D01*
X35333333Y-54085714D01*
X35333333Y-54419047D01*
X35285714Y-54609523D01*
X35190476Y-54704761D01*
X35095238Y-54752380D01*
X34904761Y-54752380D01*
X35714285Y-54704761D02*
X35857142Y-54752380D01*
X36095238Y-54752380D01*
X36190476Y-54704761D01*
X36238095Y-54657142D01*
X36285714Y-54561904D01*
X36285714Y-54466666D01*
X36238095Y-54371428D01*
X36190476Y-54323809D01*
X36095238Y-54276190D01*
X35904761Y-54228571D01*
X35809523Y-54180952D01*
X35761904Y-54133333D01*
X35714285Y-54038095D01*
X35714285Y-53942857D01*
X35761904Y-53847619D01*
X35809523Y-53800000D01*
X35904761Y-53752380D01*
X36142857Y-53752380D01*
X36285714Y-53800000D01*
X36714285Y-54752380D02*
X36714285Y-53752380D01*
X36952380Y-53752380D01*
X37095238Y-53800000D01*
X37190476Y-53895238D01*
X37238095Y-53990476D01*
X37285714Y-54180952D01*
X37285714Y-54323809D01*
X37238095Y-54514285D01*
X37190476Y-54609523D01*
X37095238Y-54704761D01*
X36952380Y-54752380D01*
X36714285Y-54752380D01*
X38809523Y-54228571D02*
X38952380Y-54276190D01*
X39000000Y-54323809D01*
X39047619Y-54419047D01*
X39047619Y-54561904D01*
X39000000Y-54657142D01*
X38952380Y-54704761D01*
X38857142Y-54752380D01*
X38476190Y-54752380D01*
X38476190Y-53752380D01*
X38809523Y-53752380D01*
X38904761Y-53800000D01*
X38952380Y-53847619D01*
X39000000Y-53942857D01*
X39000000Y-54038095D01*
X38952380Y-54133333D01*
X38904761Y-54180952D01*
X38809523Y-54228571D01*
X38476190Y-54228571D01*
X39476190Y-54752380D02*
X39476190Y-53752380D01*
X39904761Y-54466666D02*
X40380952Y-54466666D01*
X39809523Y-54752380D02*
X40142857Y-53752380D01*
X40476190Y-54752380D01*
X40761904Y-54704761D02*
X40904761Y-54752380D01*
X41142857Y-54752380D01*
X41238095Y-54704761D01*
X41285714Y-54657142D01*
X41333333Y-54561904D01*
X41333333Y-54466666D01*
X41285714Y-54371428D01*
X41238095Y-54323809D01*
X41142857Y-54276190D01*
X40952380Y-54228571D01*
X40857142Y-54180952D01*
X40809523Y-54133333D01*
X40761904Y-54038095D01*
X40761904Y-53942857D01*
X40809523Y-53847619D01*
X40857142Y-53800000D01*
X40952380Y-53752380D01*
X41190476Y-53752380D01*
X41333333Y-53800000D01*
D10*
X74904761Y-33650000D02*
X74857142Y-33626190D01*
X74785714Y-33626190D01*
X74714285Y-33650000D01*
X74666666Y-33697619D01*
X74642857Y-33745238D01*
X74619047Y-33840476D01*
X74619047Y-33911904D01*
X74642857Y-34007142D01*
X74666666Y-34054761D01*
X74714285Y-34102380D01*
X74785714Y-34126190D01*
X74833333Y-34126190D01*
X74904761Y-34102380D01*
X74928571Y-34078571D01*
X74928571Y-33911904D01*
X74833333Y-33911904D01*
X75142857Y-34126190D02*
X75142857Y-33626190D01*
X75333333Y-33626190D01*
X75380952Y-33650000D01*
X75404761Y-33673809D01*
X75428571Y-33721428D01*
X75428571Y-33792857D01*
X75404761Y-33840476D01*
X75380952Y-33864285D01*
X75333333Y-33888095D01*
X75142857Y-33888095D01*
X75904761Y-34126190D02*
X75619047Y-34126190D01*
X75761904Y-34126190D02*
X75761904Y-33626190D01*
X75714285Y-33697619D01*
X75666666Y-33745238D01*
X75619047Y-33769047D01*
X76071428Y-33626190D02*
X76380952Y-33626190D01*
X76214285Y-33816666D01*
X76285714Y-33816666D01*
X76333333Y-33840476D01*
X76357142Y-33864285D01*
X76380952Y-33911904D01*
X76380952Y-34030952D01*
X76357142Y-34078571D01*
X76333333Y-34102380D01*
X76285714Y-34126190D01*
X76142857Y-34126190D01*
X76095238Y-34102380D01*
X76071428Y-34078571D01*
X67304761Y-33650000D02*
X67257142Y-33626190D01*
X67185714Y-33626190D01*
X67114285Y-33650000D01*
X67066666Y-33697619D01*
X67042857Y-33745238D01*
X67019047Y-33840476D01*
X67019047Y-33911904D01*
X67042857Y-34007142D01*
X67066666Y-34054761D01*
X67114285Y-34102380D01*
X67185714Y-34126190D01*
X67233333Y-34126190D01*
X67304761Y-34102380D01*
X67328571Y-34078571D01*
X67328571Y-33911904D01*
X67233333Y-33911904D01*
X67542857Y-34126190D02*
X67542857Y-33626190D01*
X67733333Y-33626190D01*
X67780952Y-33650000D01*
X67804761Y-33673809D01*
X67828571Y-33721428D01*
X67828571Y-33792857D01*
X67804761Y-33840476D01*
X67780952Y-33864285D01*
X67733333Y-33888095D01*
X67542857Y-33888095D01*
X68304761Y-34126190D02*
X68019047Y-34126190D01*
X68161904Y-34126190D02*
X68161904Y-33626190D01*
X68114285Y-33697619D01*
X68066666Y-33745238D01*
X68019047Y-33769047D01*
X68614285Y-33626190D02*
X68661904Y-33626190D01*
X68709523Y-33650000D01*
X68733333Y-33673809D01*
X68757142Y-33721428D01*
X68780952Y-33816666D01*
X68780952Y-33935714D01*
X68757142Y-34030952D01*
X68733333Y-34078571D01*
X68709523Y-34102380D01*
X68661904Y-34126190D01*
X68614285Y-34126190D01*
X68566666Y-34102380D01*
X68542857Y-34078571D01*
X68519047Y-34030952D01*
X68495238Y-33935714D01*
X68495238Y-33816666D01*
X68519047Y-33721428D01*
X68542857Y-33673809D01*
X68566666Y-33650000D01*
X68614285Y-33626190D01*
X49504761Y-23850000D02*
X49457142Y-23826190D01*
X49385714Y-23826190D01*
X49314285Y-23850000D01*
X49266666Y-23897619D01*
X49242857Y-23945238D01*
X49219047Y-24040476D01*
X49219047Y-24111904D01*
X49242857Y-24207142D01*
X49266666Y-24254761D01*
X49314285Y-24302380D01*
X49385714Y-24326190D01*
X49433333Y-24326190D01*
X49504761Y-24302380D01*
X49528571Y-24278571D01*
X49528571Y-24111904D01*
X49433333Y-24111904D01*
X49742857Y-24326190D02*
X49742857Y-23826190D01*
X49933333Y-23826190D01*
X49980952Y-23850000D01*
X50004761Y-23873809D01*
X50028571Y-23921428D01*
X50028571Y-23992857D01*
X50004761Y-24040476D01*
X49980952Y-24064285D01*
X49933333Y-24088095D01*
X49742857Y-24088095D01*
X50219047Y-23873809D02*
X50242857Y-23850000D01*
X50290476Y-23826190D01*
X50409523Y-23826190D01*
X50457142Y-23850000D01*
X50480952Y-23873809D01*
X50504761Y-23921428D01*
X50504761Y-23969047D01*
X50480952Y-24040476D01*
X50195238Y-24326190D01*
X50504761Y-24326190D01*
X50790476Y-24040476D02*
X50742857Y-24016666D01*
X50719047Y-23992857D01*
X50695238Y-23945238D01*
X50695238Y-23921428D01*
X50719047Y-23873809D01*
X50742857Y-23850000D01*
X50790476Y-23826190D01*
X50885714Y-23826190D01*
X50933333Y-23850000D01*
X50957142Y-23873809D01*
X50980952Y-23921428D01*
X50980952Y-23945238D01*
X50957142Y-23992857D01*
X50933333Y-24016666D01*
X50885714Y-24040476D01*
X50790476Y-24040476D01*
X50742857Y-24064285D01*
X50719047Y-24088095D01*
X50695238Y-24135714D01*
X50695238Y-24230952D01*
X50719047Y-24278571D01*
X50742857Y-24302380D01*
X50790476Y-24326190D01*
X50885714Y-24326190D01*
X50933333Y-24302380D01*
X50957142Y-24278571D01*
X50980952Y-24230952D01*
X50980952Y-24135714D01*
X50957142Y-24088095D01*
X50933333Y-24064285D01*
X50885714Y-24040476D01*
X34542857Y-33650000D02*
X34495238Y-33626190D01*
X34423809Y-33626190D01*
X34352380Y-33650000D01*
X34304761Y-33697619D01*
X34280952Y-33745238D01*
X34257142Y-33840476D01*
X34257142Y-33911904D01*
X34280952Y-34007142D01*
X34304761Y-34054761D01*
X34352380Y-34102380D01*
X34423809Y-34126190D01*
X34471428Y-34126190D01*
X34542857Y-34102380D01*
X34566666Y-34078571D01*
X34566666Y-33911904D01*
X34471428Y-33911904D01*
X34780952Y-34126190D02*
X34780952Y-33626190D01*
X34971428Y-33626190D01*
X35019047Y-33650000D01*
X35042857Y-33673809D01*
X35066666Y-33721428D01*
X35066666Y-33792857D01*
X35042857Y-33840476D01*
X35019047Y-33864285D01*
X34971428Y-33888095D01*
X34780952Y-33888095D01*
X35376190Y-33626190D02*
X35423809Y-33626190D01*
X35471428Y-33650000D01*
X35495238Y-33673809D01*
X35519047Y-33721428D01*
X35542857Y-33816666D01*
X35542857Y-33935714D01*
X35519047Y-34030952D01*
X35495238Y-34078571D01*
X35471428Y-34102380D01*
X35423809Y-34126190D01*
X35376190Y-34126190D01*
X35328571Y-34102380D01*
X35304761Y-34078571D01*
X35280952Y-34030952D01*
X35257142Y-33935714D01*
X35257142Y-33816666D01*
X35280952Y-33721428D01*
X35304761Y-33673809D01*
X35328571Y-33650000D01*
X35376190Y-33626190D01*
X62442857Y-33650000D02*
X62395238Y-33626190D01*
X62323809Y-33626190D01*
X62252380Y-33650000D01*
X62204761Y-33697619D01*
X62180952Y-33745238D01*
X62157142Y-33840476D01*
X62157142Y-33911904D01*
X62180952Y-34007142D01*
X62204761Y-34054761D01*
X62252380Y-34102380D01*
X62323809Y-34126190D01*
X62371428Y-34126190D01*
X62442857Y-34102380D01*
X62466666Y-34078571D01*
X62466666Y-33911904D01*
X62371428Y-33911904D01*
X62680952Y-34126190D02*
X62680952Y-33626190D01*
X62871428Y-33626190D01*
X62919047Y-33650000D01*
X62942857Y-33673809D01*
X62966666Y-33721428D01*
X62966666Y-33792857D01*
X62942857Y-33840476D01*
X62919047Y-33864285D01*
X62871428Y-33888095D01*
X62680952Y-33888095D01*
X63204761Y-34126190D02*
X63300000Y-34126190D01*
X63347619Y-34102380D01*
X63371428Y-34078571D01*
X63419047Y-34007142D01*
X63442857Y-33911904D01*
X63442857Y-33721428D01*
X63419047Y-33673809D01*
X63395238Y-33650000D01*
X63347619Y-33626190D01*
X63252380Y-33626190D01*
X63204761Y-33650000D01*
X63180952Y-33673809D01*
X63157142Y-33721428D01*
X63157142Y-33840476D01*
X63180952Y-33888095D01*
X63204761Y-33911904D01*
X63252380Y-33935714D01*
X63347619Y-33935714D01*
X63395238Y-33911904D01*
X63419047Y-33888095D01*
X63442857Y-33840476D01*
X72404761Y-23850000D02*
X72357142Y-23826190D01*
X72285714Y-23826190D01*
X72214285Y-23850000D01*
X72166666Y-23897619D01*
X72142857Y-23945238D01*
X72119047Y-24040476D01*
X72119047Y-24111904D01*
X72142857Y-24207142D01*
X72166666Y-24254761D01*
X72214285Y-24302380D01*
X72285714Y-24326190D01*
X72333333Y-24326190D01*
X72404761Y-24302380D01*
X72428571Y-24278571D01*
X72428571Y-24111904D01*
X72333333Y-24111904D01*
X72642857Y-24326190D02*
X72642857Y-23826190D01*
X72833333Y-23826190D01*
X72880952Y-23850000D01*
X72904761Y-23873809D01*
X72928571Y-23921428D01*
X72928571Y-23992857D01*
X72904761Y-24040476D01*
X72880952Y-24064285D01*
X72833333Y-24088095D01*
X72642857Y-24088095D01*
X73404761Y-24326190D02*
X73119047Y-24326190D01*
X73261904Y-24326190D02*
X73261904Y-23826190D01*
X73214285Y-23897619D01*
X73166666Y-23945238D01*
X73119047Y-23969047D01*
X73642857Y-24326190D02*
X73738095Y-24326190D01*
X73785714Y-24302380D01*
X73809523Y-24278571D01*
X73857142Y-24207142D01*
X73880952Y-24111904D01*
X73880952Y-23921428D01*
X73857142Y-23873809D01*
X73833333Y-23850000D01*
X73785714Y-23826190D01*
X73690476Y-23826190D01*
X73642857Y-23850000D01*
X73619047Y-23873809D01*
X73595238Y-23921428D01*
X73595238Y-24040476D01*
X73619047Y-24088095D01*
X73642857Y-24111904D01*
X73690476Y-24135714D01*
X73785714Y-24135714D01*
X73833333Y-24111904D01*
X73857142Y-24088095D01*
X73880952Y-24040476D01*
D12*
X47907023Y-37447380D02*
X47573690Y-36971190D01*
X47335595Y-37447380D02*
X47335595Y-36447380D01*
X47716547Y-36447380D01*
X47811785Y-36495000D01*
X47859404Y-36542619D01*
X47907023Y-36637857D01*
X47907023Y-36780714D01*
X47859404Y-36875952D01*
X47811785Y-36923571D01*
X47716547Y-36971190D01*
X47335595Y-36971190D01*
X48287976Y-36542619D02*
X48335595Y-36495000D01*
X48430833Y-36447380D01*
X48668928Y-36447380D01*
X48764166Y-36495000D01*
X48811785Y-36542619D01*
X48859404Y-36637857D01*
X48859404Y-36733095D01*
X48811785Y-36875952D01*
X48240357Y-37447380D01*
X48859404Y-37447380D01*
X49478452Y-36447380D02*
X49573690Y-36447380D01*
X49668928Y-36495000D01*
X49716547Y-36542619D01*
X49764166Y-36637857D01*
X49811785Y-36828333D01*
X49811785Y-37066428D01*
X49764166Y-37256904D01*
X49716547Y-37352142D01*
X49668928Y-37399761D01*
X49573690Y-37447380D01*
X49478452Y-37447380D01*
X49383214Y-37399761D01*
X49335595Y-37352142D01*
X49287976Y-37256904D01*
X49240357Y-37066428D01*
X49240357Y-36828333D01*
X49287976Y-36637857D01*
X49335595Y-36542619D01*
X49383214Y-36495000D01*
X49478452Y-36447380D01*
X50192738Y-36542619D02*
X50240357Y-36495000D01*
X50335595Y-36447380D01*
X50573690Y-36447380D01*
X50668928Y-36495000D01*
X50716547Y-36542619D01*
X50764166Y-36637857D01*
X50764166Y-36733095D01*
X50716547Y-36875952D01*
X50145119Y-37447380D01*
X50764166Y-37447380D01*
X51859404Y-36447380D02*
X52478452Y-36447380D01*
X52145119Y-36828333D01*
X52287976Y-36828333D01*
X52383214Y-36875952D01*
X52430833Y-36923571D01*
X52478452Y-37018809D01*
X52478452Y-37256904D01*
X52430833Y-37352142D01*
X52383214Y-37399761D01*
X52287976Y-37447380D01*
X52002261Y-37447380D01*
X51907023Y-37399761D01*
X51859404Y-37352142D01*
X52811785Y-36780714D02*
X53049880Y-37447380D01*
X53287976Y-36780714D01*
X53573690Y-36447380D02*
X54192738Y-36447380D01*
X53859404Y-36828333D01*
X54002261Y-36828333D01*
X54097500Y-36875952D01*
X54145119Y-36923571D01*
X54192738Y-37018809D01*
X54192738Y-37256904D01*
X54145119Y-37352142D01*
X54097500Y-37399761D01*
X54002261Y-37447380D01*
X53716547Y-37447380D01*
X53621309Y-37399761D01*
X53573690Y-37352142D01*
X54621309Y-37066428D02*
X55383214Y-37066428D01*
X55811785Y-37399761D02*
X55954642Y-37447380D01*
X56192738Y-37447380D01*
X56287976Y-37399761D01*
X56335595Y-37352142D01*
X56383214Y-37256904D01*
X56383214Y-37161666D01*
X56335595Y-37066428D01*
X56287976Y-37018809D01*
X56192738Y-36971190D01*
X56002261Y-36923571D01*
X55907023Y-36875952D01*
X55859404Y-36828333D01*
X55811785Y-36733095D01*
X55811785Y-36637857D01*
X55859404Y-36542619D01*
X55907023Y-36495000D01*
X56002261Y-36447380D01*
X56240357Y-36447380D01*
X56383214Y-36495000D01*
X56668928Y-36447380D02*
X57240357Y-36447380D01*
X56954642Y-37447380D02*
X56954642Y-36447380D01*
X57526071Y-37161666D02*
X58002261Y-37161666D01*
X57430833Y-37447380D02*
X57764166Y-36447380D01*
X58097500Y-37447380D01*
X59002261Y-37352142D02*
X58954642Y-37399761D01*
X58811785Y-37447380D01*
X58716547Y-37447380D01*
X58573690Y-37399761D01*
X58478452Y-37304523D01*
X58430833Y-37209285D01*
X58383214Y-37018809D01*
X58383214Y-36875952D01*
X58430833Y-36685476D01*
X58478452Y-36590238D01*
X58573690Y-36495000D01*
X58716547Y-36447380D01*
X58811785Y-36447380D01*
X58954642Y-36495000D01*
X59002261Y-36542619D01*
X59430833Y-37447380D02*
X59430833Y-36447380D01*
X60002261Y-37447380D02*
X59573690Y-36875952D01*
X60002261Y-36447380D02*
X59430833Y-37018809D01*
X47907023Y-39057380D02*
X47573690Y-38581190D01*
X47335595Y-39057380D02*
X47335595Y-38057380D01*
X47716547Y-38057380D01*
X47811785Y-38105000D01*
X47859404Y-38152619D01*
X47907023Y-38247857D01*
X47907023Y-38390714D01*
X47859404Y-38485952D01*
X47811785Y-38533571D01*
X47716547Y-38581190D01*
X47335595Y-38581190D01*
X48287976Y-38152619D02*
X48335595Y-38105000D01*
X48430833Y-38057380D01*
X48668928Y-38057380D01*
X48764166Y-38105000D01*
X48811785Y-38152619D01*
X48859404Y-38247857D01*
X48859404Y-38343095D01*
X48811785Y-38485952D01*
X48240357Y-39057380D01*
X48859404Y-39057380D01*
X49478452Y-38057380D02*
X49573690Y-38057380D01*
X49668928Y-38105000D01*
X49716547Y-38152619D01*
X49764166Y-38247857D01*
X49811785Y-38438333D01*
X49811785Y-38676428D01*
X49764166Y-38866904D01*
X49716547Y-38962142D01*
X49668928Y-39009761D01*
X49573690Y-39057380D01*
X49478452Y-39057380D01*
X49383214Y-39009761D01*
X49335595Y-38962142D01*
X49287976Y-38866904D01*
X49240357Y-38676428D01*
X49240357Y-38438333D01*
X49287976Y-38247857D01*
X49335595Y-38152619D01*
X49383214Y-38105000D01*
X49478452Y-38057380D01*
X50764166Y-39057380D02*
X50192738Y-39057380D01*
X50478452Y-39057380D02*
X50478452Y-38057380D01*
X50383214Y-38200238D01*
X50287976Y-38295476D01*
X50192738Y-38343095D01*
X51859404Y-38057380D02*
X52478452Y-38057380D01*
X52145119Y-38438333D01*
X52287976Y-38438333D01*
X52383214Y-38485952D01*
X52430833Y-38533571D01*
X52478452Y-38628809D01*
X52478452Y-38866904D01*
X52430833Y-38962142D01*
X52383214Y-39009761D01*
X52287976Y-39057380D01*
X52002261Y-39057380D01*
X51907023Y-39009761D01*
X51859404Y-38962142D01*
X52811785Y-38390714D02*
X53049880Y-39057380D01*
X53287976Y-38390714D01*
X53573690Y-38057380D02*
X54192738Y-38057380D01*
X53859404Y-38438333D01*
X54002261Y-38438333D01*
X54097500Y-38485952D01*
X54145119Y-38533571D01*
X54192738Y-38628809D01*
X54192738Y-38866904D01*
X54145119Y-38962142D01*
X54097500Y-39009761D01*
X54002261Y-39057380D01*
X53716547Y-39057380D01*
X53621309Y-39009761D01*
X53573690Y-38962142D01*
X54621309Y-38676428D02*
X55383214Y-38676428D01*
X56335595Y-39057380D02*
X55859404Y-39057380D01*
X55859404Y-38057380D01*
X56668928Y-39057380D02*
X56668928Y-38057380D01*
X56907023Y-38057380D01*
X57049880Y-38105000D01*
X57145119Y-38200238D01*
X57192738Y-38295476D01*
X57240357Y-38485952D01*
X57240357Y-38628809D01*
X57192738Y-38819285D01*
X57145119Y-38914523D01*
X57049880Y-39009761D01*
X56907023Y-39057380D01*
X56668928Y-39057380D01*
X57859404Y-38057380D02*
X58049880Y-38057380D01*
X58145119Y-38105000D01*
X58240357Y-38200238D01*
X58287976Y-38390714D01*
X58287976Y-38724047D01*
X58240357Y-38914523D01*
X58145119Y-39009761D01*
X58049880Y-39057380D01*
X57859404Y-39057380D01*
X57764166Y-39009761D01*
X57668928Y-38914523D01*
X57621309Y-38724047D01*
X57621309Y-38390714D01*
X57668928Y-38200238D01*
X57764166Y-38105000D01*
X57859404Y-38057380D01*
D10*
X47242857Y-33650000D02*
X47195238Y-33626190D01*
X47123809Y-33626190D01*
X47052380Y-33650000D01*
X47004761Y-33697619D01*
X46980952Y-33745238D01*
X46957142Y-33840476D01*
X46957142Y-33911904D01*
X46980952Y-34007142D01*
X47004761Y-34054761D01*
X47052380Y-34102380D01*
X47123809Y-34126190D01*
X47171428Y-34126190D01*
X47242857Y-34102380D01*
X47266666Y-34078571D01*
X47266666Y-33911904D01*
X47171428Y-33911904D01*
X47480952Y-34126190D02*
X47480952Y-33626190D01*
X47671428Y-33626190D01*
X47719047Y-33650000D01*
X47742857Y-33673809D01*
X47766666Y-33721428D01*
X47766666Y-33792857D01*
X47742857Y-33840476D01*
X47719047Y-33864285D01*
X47671428Y-33888095D01*
X47480952Y-33888095D01*
X48195238Y-33792857D02*
X48195238Y-34126190D01*
X48076190Y-33602380D02*
X47957142Y-33959523D01*
X48266666Y-33959523D01*
X67304761Y-23850000D02*
X67257142Y-23826190D01*
X67185714Y-23826190D01*
X67114285Y-23850000D01*
X67066666Y-23897619D01*
X67042857Y-23945238D01*
X67019047Y-24040476D01*
X67019047Y-24111904D01*
X67042857Y-24207142D01*
X67066666Y-24254761D01*
X67114285Y-24302380D01*
X67185714Y-24326190D01*
X67233333Y-24326190D01*
X67304761Y-24302380D01*
X67328571Y-24278571D01*
X67328571Y-24111904D01*
X67233333Y-24111904D01*
X67542857Y-24326190D02*
X67542857Y-23826190D01*
X67733333Y-23826190D01*
X67780952Y-23850000D01*
X67804761Y-23873809D01*
X67828571Y-23921428D01*
X67828571Y-23992857D01*
X67804761Y-24040476D01*
X67780952Y-24064285D01*
X67733333Y-24088095D01*
X67542857Y-24088095D01*
X68019047Y-23873809D02*
X68042857Y-23850000D01*
X68090476Y-23826190D01*
X68209523Y-23826190D01*
X68257142Y-23850000D01*
X68280952Y-23873809D01*
X68304761Y-23921428D01*
X68304761Y-23969047D01*
X68280952Y-24040476D01*
X67995238Y-24326190D01*
X68304761Y-24326190D01*
X68780952Y-24326190D02*
X68495238Y-24326190D01*
X68638095Y-24326190D02*
X68638095Y-23826190D01*
X68590476Y-23897619D01*
X68542857Y-23945238D01*
X68495238Y-23969047D01*
X69904761Y-33650000D02*
X69857142Y-33626190D01*
X69785714Y-33626190D01*
X69714285Y-33650000D01*
X69666666Y-33697619D01*
X69642857Y-33745238D01*
X69619047Y-33840476D01*
X69619047Y-33911904D01*
X69642857Y-34007142D01*
X69666666Y-34054761D01*
X69714285Y-34102380D01*
X69785714Y-34126190D01*
X69833333Y-34126190D01*
X69904761Y-34102380D01*
X69928571Y-34078571D01*
X69928571Y-33911904D01*
X69833333Y-33911904D01*
X70142857Y-34126190D02*
X70142857Y-33626190D01*
X70333333Y-33626190D01*
X70380952Y-33650000D01*
X70404761Y-33673809D01*
X70428571Y-33721428D01*
X70428571Y-33792857D01*
X70404761Y-33840476D01*
X70380952Y-33864285D01*
X70333333Y-33888095D01*
X70142857Y-33888095D01*
X70904761Y-34126190D02*
X70619047Y-34126190D01*
X70761904Y-34126190D02*
X70761904Y-33626190D01*
X70714285Y-33697619D01*
X70666666Y-33745238D01*
X70619047Y-33769047D01*
X71380952Y-34126190D02*
X71095238Y-34126190D01*
X71238095Y-34126190D02*
X71238095Y-33626190D01*
X71190476Y-33697619D01*
X71142857Y-33745238D01*
X71095238Y-33769047D01*
X80004761Y-23850000D02*
X79957142Y-23826190D01*
X79885714Y-23826190D01*
X79814285Y-23850000D01*
X79766666Y-23897619D01*
X79742857Y-23945238D01*
X79719047Y-24040476D01*
X79719047Y-24111904D01*
X79742857Y-24207142D01*
X79766666Y-24254761D01*
X79814285Y-24302380D01*
X79885714Y-24326190D01*
X79933333Y-24326190D01*
X80004761Y-24302380D01*
X80028571Y-24278571D01*
X80028571Y-24111904D01*
X79933333Y-24111904D01*
X80242857Y-24326190D02*
X80242857Y-23826190D01*
X80433333Y-23826190D01*
X80480952Y-23850000D01*
X80504761Y-23873809D01*
X80528571Y-23921428D01*
X80528571Y-23992857D01*
X80504761Y-24040476D01*
X80480952Y-24064285D01*
X80433333Y-24088095D01*
X80242857Y-24088095D01*
X81004761Y-24326190D02*
X80719047Y-24326190D01*
X80861904Y-24326190D02*
X80861904Y-23826190D01*
X80814285Y-23897619D01*
X80766666Y-23945238D01*
X80719047Y-23969047D01*
X81171428Y-23826190D02*
X81504761Y-23826190D01*
X81290476Y-24326190D01*
X57342857Y-33650000D02*
X57295238Y-33626190D01*
X57223809Y-33626190D01*
X57152380Y-33650000D01*
X57104761Y-33697619D01*
X57080952Y-33745238D01*
X57057142Y-33840476D01*
X57057142Y-33911904D01*
X57080952Y-34007142D01*
X57104761Y-34054761D01*
X57152380Y-34102380D01*
X57223809Y-34126190D01*
X57271428Y-34126190D01*
X57342857Y-34102380D01*
X57366666Y-34078571D01*
X57366666Y-33911904D01*
X57271428Y-33911904D01*
X57580952Y-34126190D02*
X57580952Y-33626190D01*
X57771428Y-33626190D01*
X57819047Y-33650000D01*
X57842857Y-33673809D01*
X57866666Y-33721428D01*
X57866666Y-33792857D01*
X57842857Y-33840476D01*
X57819047Y-33864285D01*
X57771428Y-33888095D01*
X57580952Y-33888095D01*
X58033333Y-33626190D02*
X58366666Y-33626190D01*
X58152380Y-34126190D01*
D12*
X105907023Y-45647380D02*
X105573690Y-45171190D01*
X105335595Y-45647380D02*
X105335595Y-44647380D01*
X105716547Y-44647380D01*
X105811785Y-44695000D01*
X105859404Y-44742619D01*
X105907023Y-44837857D01*
X105907023Y-44980714D01*
X105859404Y-45075952D01*
X105811785Y-45123571D01*
X105716547Y-45171190D01*
X105335595Y-45171190D01*
X106287976Y-44742619D02*
X106335595Y-44695000D01*
X106430833Y-44647380D01*
X106668928Y-44647380D01*
X106764166Y-44695000D01*
X106811785Y-44742619D01*
X106859404Y-44837857D01*
X106859404Y-44933095D01*
X106811785Y-45075952D01*
X106240357Y-45647380D01*
X106859404Y-45647380D01*
X107478452Y-44647380D02*
X107573690Y-44647380D01*
X107668928Y-44695000D01*
X107716547Y-44742619D01*
X107764166Y-44837857D01*
X107811785Y-45028333D01*
X107811785Y-45266428D01*
X107764166Y-45456904D01*
X107716547Y-45552142D01*
X107668928Y-45599761D01*
X107573690Y-45647380D01*
X107478452Y-45647380D01*
X107383214Y-45599761D01*
X107335595Y-45552142D01*
X107287976Y-45456904D01*
X107240357Y-45266428D01*
X107240357Y-45028333D01*
X107287976Y-44837857D01*
X107335595Y-44742619D01*
X107383214Y-44695000D01*
X107478452Y-44647380D01*
X108668928Y-44647380D02*
X108478452Y-44647380D01*
X108383214Y-44695000D01*
X108335595Y-44742619D01*
X108240357Y-44885476D01*
X108192738Y-45075952D01*
X108192738Y-45456904D01*
X108240357Y-45552142D01*
X108287976Y-45599761D01*
X108383214Y-45647380D01*
X108573690Y-45647380D01*
X108668928Y-45599761D01*
X108716547Y-45552142D01*
X108764166Y-45456904D01*
X108764166Y-45218809D01*
X108716547Y-45123571D01*
X108668928Y-45075952D01*
X108573690Y-45028333D01*
X108383214Y-45028333D01*
X108287976Y-45075952D01*
X108240357Y-45123571D01*
X108192738Y-45218809D01*
X109811785Y-44647380D02*
X110145119Y-45647380D01*
X110478452Y-44647380D01*
X111287976Y-45647380D02*
X110811785Y-45647380D01*
X110811785Y-44647380D01*
X111621309Y-45647380D02*
X111621309Y-44647380D01*
X111859404Y-44647380D01*
X112002261Y-44695000D01*
X112097500Y-44790238D01*
X112145119Y-44885476D01*
X112192738Y-45075952D01*
X112192738Y-45218809D01*
X112145119Y-45409285D01*
X112097500Y-45504523D01*
X112002261Y-45599761D01*
X111859404Y-45647380D01*
X111621309Y-45647380D01*
X112811785Y-44647380D02*
X113002261Y-44647380D01*
X113097500Y-44695000D01*
X113192738Y-44790238D01*
X113240357Y-44980714D01*
X113240357Y-45314047D01*
X113192738Y-45504523D01*
X113097500Y-45599761D01*
X113002261Y-45647380D01*
X112811785Y-45647380D01*
X112716547Y-45599761D01*
X112621309Y-45504523D01*
X112573690Y-45314047D01*
X112573690Y-44980714D01*
X112621309Y-44790238D01*
X112716547Y-44695000D01*
X112811785Y-44647380D01*
X113668928Y-45266428D02*
X114430833Y-45266428D01*
X115192738Y-44647380D02*
X115192738Y-45361666D01*
X115145119Y-45504523D01*
X115049880Y-45599761D01*
X114907023Y-45647380D01*
X114811785Y-45647380D01*
X115621309Y-44742619D02*
X115668928Y-44695000D01*
X115764166Y-44647380D01*
X116002261Y-44647380D01*
X116097500Y-44695000D01*
X116145119Y-44742619D01*
X116192738Y-44837857D01*
X116192738Y-44933095D01*
X116145119Y-45075952D01*
X115573690Y-45647380D01*
X116192738Y-45647380D01*
X116811785Y-44647380D02*
X116907023Y-44647380D01*
X117002261Y-44695000D01*
X117049880Y-44742619D01*
X117097500Y-44837857D01*
X117145119Y-45028333D01*
X117145119Y-45266428D01*
X117097500Y-45456904D01*
X117049880Y-45552142D01*
X117002261Y-45599761D01*
X116907023Y-45647380D01*
X116811785Y-45647380D01*
X116716547Y-45599761D01*
X116668928Y-45552142D01*
X116621309Y-45456904D01*
X116573690Y-45266428D01*
X116573690Y-45028333D01*
X116621309Y-44837857D01*
X116668928Y-44742619D01*
X116716547Y-44695000D01*
X116811785Y-44647380D01*
X118097500Y-45647380D02*
X117526071Y-45647380D01*
X117811785Y-45647380D02*
X117811785Y-44647380D01*
X117716547Y-44790238D01*
X117621309Y-44885476D01*
X117526071Y-44933095D01*
X105907023Y-47257380D02*
X105573690Y-46781190D01*
X105335595Y-47257380D02*
X105335595Y-46257380D01*
X105716547Y-46257380D01*
X105811785Y-46305000D01*
X105859404Y-46352619D01*
X105907023Y-46447857D01*
X105907023Y-46590714D01*
X105859404Y-46685952D01*
X105811785Y-46733571D01*
X105716547Y-46781190D01*
X105335595Y-46781190D01*
X106287976Y-46352619D02*
X106335595Y-46305000D01*
X106430833Y-46257380D01*
X106668928Y-46257380D01*
X106764166Y-46305000D01*
X106811785Y-46352619D01*
X106859404Y-46447857D01*
X106859404Y-46543095D01*
X106811785Y-46685952D01*
X106240357Y-47257380D01*
X106859404Y-47257380D01*
X107478452Y-46257380D02*
X107573690Y-46257380D01*
X107668928Y-46305000D01*
X107716547Y-46352619D01*
X107764166Y-46447857D01*
X107811785Y-46638333D01*
X107811785Y-46876428D01*
X107764166Y-47066904D01*
X107716547Y-47162142D01*
X107668928Y-47209761D01*
X107573690Y-47257380D01*
X107478452Y-47257380D01*
X107383214Y-47209761D01*
X107335595Y-47162142D01*
X107287976Y-47066904D01*
X107240357Y-46876428D01*
X107240357Y-46638333D01*
X107287976Y-46447857D01*
X107335595Y-46352619D01*
X107383214Y-46305000D01*
X107478452Y-46257380D01*
X108383214Y-46685952D02*
X108287976Y-46638333D01*
X108240357Y-46590714D01*
X108192738Y-46495476D01*
X108192738Y-46447857D01*
X108240357Y-46352619D01*
X108287976Y-46305000D01*
X108383214Y-46257380D01*
X108573690Y-46257380D01*
X108668928Y-46305000D01*
X108716547Y-46352619D01*
X108764166Y-46447857D01*
X108764166Y-46495476D01*
X108716547Y-46590714D01*
X108668928Y-46638333D01*
X108573690Y-46685952D01*
X108383214Y-46685952D01*
X108287976Y-46733571D01*
X108240357Y-46781190D01*
X108192738Y-46876428D01*
X108192738Y-47066904D01*
X108240357Y-47162142D01*
X108287976Y-47209761D01*
X108383214Y-47257380D01*
X108573690Y-47257380D01*
X108668928Y-47209761D01*
X108716547Y-47162142D01*
X108764166Y-47066904D01*
X108764166Y-46876428D01*
X108716547Y-46781190D01*
X108668928Y-46733571D01*
X108573690Y-46685952D01*
X109811785Y-46257380D02*
X110145119Y-47257380D01*
X110478452Y-46257380D01*
X110764166Y-46971666D02*
X111240357Y-46971666D01*
X110668928Y-47257380D02*
X111002261Y-46257380D01*
X111335595Y-47257380D01*
X111668928Y-47257380D02*
X111668928Y-46257380D01*
X112240357Y-47257380D01*
X112240357Y-46257380D01*
X112668928Y-46971666D02*
X113145119Y-46971666D01*
X112573690Y-47257380D02*
X112907023Y-46257380D01*
X113240357Y-47257380D01*
X113573690Y-46876428D02*
X114335595Y-46876428D01*
X115097500Y-46257380D02*
X115097500Y-46971666D01*
X115049880Y-47114523D01*
X114954642Y-47209761D01*
X114811785Y-47257380D01*
X114716547Y-47257380D01*
X115526071Y-46352619D02*
X115573690Y-46305000D01*
X115668928Y-46257380D01*
X115907023Y-46257380D01*
X116002261Y-46305000D01*
X116049880Y-46352619D01*
X116097500Y-46447857D01*
X116097500Y-46543095D01*
X116049880Y-46685952D01*
X115478452Y-47257380D01*
X116097500Y-47257380D01*
X116716547Y-46257380D02*
X116811785Y-46257380D01*
X116907023Y-46305000D01*
X116954642Y-46352619D01*
X117002261Y-46447857D01*
X117049880Y-46638333D01*
X117049880Y-46876428D01*
X117002261Y-47066904D01*
X116954642Y-47162142D01*
X116907023Y-47209761D01*
X116811785Y-47257380D01*
X116716547Y-47257380D01*
X116621309Y-47209761D01*
X116573690Y-47162142D01*
X116526071Y-47066904D01*
X116478452Y-46876428D01*
X116478452Y-46638333D01*
X116526071Y-46447857D01*
X116573690Y-46352619D01*
X116621309Y-46305000D01*
X116716547Y-46257380D01*
X118002261Y-47257380D02*
X117430833Y-47257380D01*
X117716547Y-47257380D02*
X117716547Y-46257380D01*
X117621309Y-46400238D01*
X117526071Y-46495476D01*
X117430833Y-46543095D01*
D10*
X80004761Y-33650000D02*
X79957142Y-33626190D01*
X79885714Y-33626190D01*
X79814285Y-33650000D01*
X79766666Y-33697619D01*
X79742857Y-33745238D01*
X79719047Y-33840476D01*
X79719047Y-33911904D01*
X79742857Y-34007142D01*
X79766666Y-34054761D01*
X79814285Y-34102380D01*
X79885714Y-34126190D01*
X79933333Y-34126190D01*
X80004761Y-34102380D01*
X80028571Y-34078571D01*
X80028571Y-33911904D01*
X79933333Y-33911904D01*
X80242857Y-34126190D02*
X80242857Y-33626190D01*
X80433333Y-33626190D01*
X80480952Y-33650000D01*
X80504761Y-33673809D01*
X80528571Y-33721428D01*
X80528571Y-33792857D01*
X80504761Y-33840476D01*
X80480952Y-33864285D01*
X80433333Y-33888095D01*
X80242857Y-33888095D01*
X81004761Y-34126190D02*
X80719047Y-34126190D01*
X80861904Y-34126190D02*
X80861904Y-33626190D01*
X80814285Y-33697619D01*
X80766666Y-33745238D01*
X80719047Y-33769047D01*
X81433333Y-33792857D02*
X81433333Y-34126190D01*
X81314285Y-33602380D02*
X81195238Y-33959523D01*
X81504761Y-33959523D01*
X74904761Y-23850000D02*
X74857142Y-23826190D01*
X74785714Y-23826190D01*
X74714285Y-23850000D01*
X74666666Y-23897619D01*
X74642857Y-23945238D01*
X74619047Y-24040476D01*
X74619047Y-24111904D01*
X74642857Y-24207142D01*
X74666666Y-24254761D01*
X74714285Y-24302380D01*
X74785714Y-24326190D01*
X74833333Y-24326190D01*
X74904761Y-24302380D01*
X74928571Y-24278571D01*
X74928571Y-24111904D01*
X74833333Y-24111904D01*
X75142857Y-24326190D02*
X75142857Y-23826190D01*
X75333333Y-23826190D01*
X75380952Y-23850000D01*
X75404761Y-23873809D01*
X75428571Y-23921428D01*
X75428571Y-23992857D01*
X75404761Y-24040476D01*
X75380952Y-24064285D01*
X75333333Y-24088095D01*
X75142857Y-24088095D01*
X75904761Y-24326190D02*
X75619047Y-24326190D01*
X75761904Y-24326190D02*
X75761904Y-23826190D01*
X75714285Y-23897619D01*
X75666666Y-23945238D01*
X75619047Y-23969047D01*
X76190476Y-24040476D02*
X76142857Y-24016666D01*
X76119047Y-23992857D01*
X76095238Y-23945238D01*
X76095238Y-23921428D01*
X76119047Y-23873809D01*
X76142857Y-23850000D01*
X76190476Y-23826190D01*
X76285714Y-23826190D01*
X76333333Y-23850000D01*
X76357142Y-23873809D01*
X76380952Y-23921428D01*
X76380952Y-23945238D01*
X76357142Y-23992857D01*
X76333333Y-24016666D01*
X76285714Y-24040476D01*
X76190476Y-24040476D01*
X76142857Y-24064285D01*
X76119047Y-24088095D01*
X76095238Y-24135714D01*
X76095238Y-24230952D01*
X76119047Y-24278571D01*
X76142857Y-24302380D01*
X76190476Y-24326190D01*
X76285714Y-24326190D01*
X76333333Y-24302380D01*
X76357142Y-24278571D01*
X76380952Y-24230952D01*
X76380952Y-24135714D01*
X76357142Y-24088095D01*
X76333333Y-24064285D01*
X76285714Y-24040476D01*
X54604761Y-23850000D02*
X54557142Y-23826190D01*
X54485714Y-23826190D01*
X54414285Y-23850000D01*
X54366666Y-23897619D01*
X54342857Y-23945238D01*
X54319047Y-24040476D01*
X54319047Y-24111904D01*
X54342857Y-24207142D01*
X54366666Y-24254761D01*
X54414285Y-24302380D01*
X54485714Y-24326190D01*
X54533333Y-24326190D01*
X54604761Y-24302380D01*
X54628571Y-24278571D01*
X54628571Y-24111904D01*
X54533333Y-24111904D01*
X54842857Y-24326190D02*
X54842857Y-23826190D01*
X55033333Y-23826190D01*
X55080952Y-23850000D01*
X55104761Y-23873809D01*
X55128571Y-23921428D01*
X55128571Y-23992857D01*
X55104761Y-24040476D01*
X55080952Y-24064285D01*
X55033333Y-24088095D01*
X54842857Y-24088095D01*
X55319047Y-23873809D02*
X55342857Y-23850000D01*
X55390476Y-23826190D01*
X55509523Y-23826190D01*
X55557142Y-23850000D01*
X55580952Y-23873809D01*
X55604761Y-23921428D01*
X55604761Y-23969047D01*
X55580952Y-24040476D01*
X55295238Y-24326190D01*
X55604761Y-24326190D01*
X55771428Y-23826190D02*
X56104761Y-23826190D01*
X55890476Y-24326190D01*
X54842857Y-33650000D02*
X54795238Y-33626190D01*
X54723809Y-33626190D01*
X54652380Y-33650000D01*
X54604761Y-33697619D01*
X54580952Y-33745238D01*
X54557142Y-33840476D01*
X54557142Y-33911904D01*
X54580952Y-34007142D01*
X54604761Y-34054761D01*
X54652380Y-34102380D01*
X54723809Y-34126190D01*
X54771428Y-34126190D01*
X54842857Y-34102380D01*
X54866666Y-34078571D01*
X54866666Y-33911904D01*
X54771428Y-33911904D01*
X55080952Y-34126190D02*
X55080952Y-33626190D01*
X55271428Y-33626190D01*
X55319047Y-33650000D01*
X55342857Y-33673809D01*
X55366666Y-33721428D01*
X55366666Y-33792857D01*
X55342857Y-33840476D01*
X55319047Y-33864285D01*
X55271428Y-33888095D01*
X55080952Y-33888095D01*
X55795238Y-33626190D02*
X55700000Y-33626190D01*
X55652380Y-33650000D01*
X55628571Y-33673809D01*
X55580952Y-33745238D01*
X55557142Y-33840476D01*
X55557142Y-34030952D01*
X55580952Y-34078571D01*
X55604761Y-34102380D01*
X55652380Y-34126190D01*
X55747619Y-34126190D01*
X55795238Y-34102380D01*
X55819047Y-34078571D01*
X55842857Y-34030952D01*
X55842857Y-33911904D01*
X55819047Y-33864285D01*
X55795238Y-33840476D01*
X55747619Y-33816666D01*
X55652380Y-33816666D01*
X55604761Y-33840476D01*
X55580952Y-33864285D01*
X55557142Y-33911904D01*
X57104761Y-23850000D02*
X57057142Y-23826190D01*
X56985714Y-23826190D01*
X56914285Y-23850000D01*
X56866666Y-23897619D01*
X56842857Y-23945238D01*
X56819047Y-24040476D01*
X56819047Y-24111904D01*
X56842857Y-24207142D01*
X56866666Y-24254761D01*
X56914285Y-24302380D01*
X56985714Y-24326190D01*
X57033333Y-24326190D01*
X57104761Y-24302380D01*
X57128571Y-24278571D01*
X57128571Y-24111904D01*
X57033333Y-24111904D01*
X57342857Y-24326190D02*
X57342857Y-23826190D01*
X57533333Y-23826190D01*
X57580952Y-23850000D01*
X57604761Y-23873809D01*
X57628571Y-23921428D01*
X57628571Y-23992857D01*
X57604761Y-24040476D01*
X57580952Y-24064285D01*
X57533333Y-24088095D01*
X57342857Y-24088095D01*
X57819047Y-23873809D02*
X57842857Y-23850000D01*
X57890476Y-23826190D01*
X58009523Y-23826190D01*
X58057142Y-23850000D01*
X58080952Y-23873809D01*
X58104761Y-23921428D01*
X58104761Y-23969047D01*
X58080952Y-24040476D01*
X57795238Y-24326190D01*
X58104761Y-24326190D01*
X58533333Y-23826190D02*
X58438095Y-23826190D01*
X58390476Y-23850000D01*
X58366666Y-23873809D01*
X58319047Y-23945238D01*
X58295238Y-24040476D01*
X58295238Y-24230952D01*
X58319047Y-24278571D01*
X58342857Y-24302380D01*
X58390476Y-24326190D01*
X58485714Y-24326190D01*
X58533333Y-24302380D01*
X58557142Y-24278571D01*
X58580952Y-24230952D01*
X58580952Y-24111904D01*
X58557142Y-24064285D01*
X58533333Y-24040476D01*
X58485714Y-24016666D01*
X58390476Y-24016666D01*
X58342857Y-24040476D01*
X58319047Y-24064285D01*
X58295238Y-24111904D01*
X46540476Y-24183333D02*
X46778571Y-24183333D01*
X46492857Y-24326190D02*
X46659523Y-23826190D01*
X46826190Y-24326190D01*
X46992857Y-24326190D02*
X46992857Y-23826190D01*
X47111904Y-23826190D01*
X47183333Y-23850000D01*
X47230952Y-23897619D01*
X47254761Y-23945238D01*
X47278571Y-24040476D01*
X47278571Y-24111904D01*
X47254761Y-24207142D01*
X47230952Y-24254761D01*
X47183333Y-24302380D01*
X47111904Y-24326190D01*
X46992857Y-24326190D01*
X47778571Y-24278571D02*
X47754761Y-24302380D01*
X47683333Y-24326190D01*
X47635714Y-24326190D01*
X47564285Y-24302380D01*
X47516666Y-24254761D01*
X47492857Y-24207142D01*
X47469047Y-24111904D01*
X47469047Y-24040476D01*
X47492857Y-23945238D01*
X47516666Y-23897619D01*
X47564285Y-23850000D01*
X47635714Y-23826190D01*
X47683333Y-23826190D01*
X47754761Y-23850000D01*
X47778571Y-23873809D01*
X47873809Y-24373809D02*
X48254761Y-24373809D01*
X48659523Y-24326190D02*
X48492857Y-24088095D01*
X48373809Y-24326190D02*
X48373809Y-23826190D01*
X48564285Y-23826190D01*
X48611904Y-23850000D01*
X48635714Y-23873809D01*
X48659523Y-23921428D01*
X48659523Y-23992857D01*
X48635714Y-24040476D01*
X48611904Y-24064285D01*
X48564285Y-24088095D01*
X48373809Y-24088095D01*
D11*
X111690476Y-60704761D02*
X112071428Y-60704761D01*
X112261904Y-60800000D01*
X112452380Y-60990476D01*
X112547619Y-61371428D01*
X112547619Y-62038095D01*
X112452380Y-62419047D01*
X112261904Y-62609523D01*
X112071428Y-62704761D01*
X111690476Y-62704761D01*
X111500000Y-62609523D01*
X111309523Y-62419047D01*
X111214285Y-62038095D01*
X111214285Y-61371428D01*
X111309523Y-60990476D01*
X111500000Y-60800000D01*
X111690476Y-60704761D01*
X113404761Y-60704761D02*
X113404761Y-62323809D01*
X113500000Y-62514285D01*
X113595238Y-62609523D01*
X113785714Y-62704761D01*
X114166666Y-62704761D01*
X114357142Y-62609523D01*
X114452380Y-62514285D01*
X114547619Y-62323809D01*
X114547619Y-60704761D01*
X115214285Y-60704761D02*
X116357142Y-60704761D01*
X115785714Y-62704761D02*
X115785714Y-60704761D01*
X119880952Y-62895238D02*
X119690476Y-62800000D01*
X119500000Y-62609523D01*
X119214285Y-62323809D01*
X119023809Y-62228571D01*
X118833333Y-62228571D01*
X118928571Y-62704761D02*
X118738095Y-62609523D01*
X118547619Y-62419047D01*
X118452380Y-62038095D01*
X118452380Y-61371428D01*
X118547619Y-60990476D01*
X118738095Y-60800000D01*
X118928571Y-60704761D01*
X119309523Y-60704761D01*
X119500000Y-60800000D01*
X119690476Y-60990476D01*
X119785714Y-61371428D01*
X119785714Y-62038095D01*
X119690476Y-62419047D01*
X119500000Y-62609523D01*
X119309523Y-62704761D01*
X118928571Y-62704761D01*
D10*
X62204761Y-23850000D02*
X62157142Y-23826190D01*
X62085714Y-23826190D01*
X62014285Y-23850000D01*
X61966666Y-23897619D01*
X61942857Y-23945238D01*
X61919047Y-24040476D01*
X61919047Y-24111904D01*
X61942857Y-24207142D01*
X61966666Y-24254761D01*
X62014285Y-24302380D01*
X62085714Y-24326190D01*
X62133333Y-24326190D01*
X62204761Y-24302380D01*
X62228571Y-24278571D01*
X62228571Y-24111904D01*
X62133333Y-24111904D01*
X62442857Y-24326190D02*
X62442857Y-23826190D01*
X62633333Y-23826190D01*
X62680952Y-23850000D01*
X62704761Y-23873809D01*
X62728571Y-23921428D01*
X62728571Y-23992857D01*
X62704761Y-24040476D01*
X62680952Y-24064285D01*
X62633333Y-24088095D01*
X62442857Y-24088095D01*
X62919047Y-23873809D02*
X62942857Y-23850000D01*
X62990476Y-23826190D01*
X63109523Y-23826190D01*
X63157142Y-23850000D01*
X63180952Y-23873809D01*
X63204761Y-23921428D01*
X63204761Y-23969047D01*
X63180952Y-24040476D01*
X62895238Y-24326190D01*
X63204761Y-24326190D01*
X63395238Y-23873809D02*
X63419047Y-23850000D01*
X63466666Y-23826190D01*
X63585714Y-23826190D01*
X63633333Y-23850000D01*
X63657142Y-23873809D01*
X63680952Y-23921428D01*
X63680952Y-23969047D01*
X63657142Y-24040476D01*
X63371428Y-24326190D01*
X63680952Y-24326190D01*
X43466666Y-23826190D02*
X43776190Y-23826190D01*
X43609523Y-24016666D01*
X43680952Y-24016666D01*
X43728571Y-24040476D01*
X43752380Y-24064285D01*
X43776190Y-24111904D01*
X43776190Y-24230952D01*
X43752380Y-24278571D01*
X43728571Y-24302380D01*
X43680952Y-24326190D01*
X43538095Y-24326190D01*
X43490476Y-24302380D01*
X43466666Y-24278571D01*
X43919047Y-23826190D02*
X44085714Y-24326190D01*
X44252380Y-23826190D01*
X44371428Y-23826190D02*
X44680952Y-23826190D01*
X44514285Y-24016666D01*
X44585714Y-24016666D01*
X44633333Y-24040476D01*
X44657142Y-24064285D01*
X44680952Y-24111904D01*
X44680952Y-24230952D01*
X44657142Y-24278571D01*
X44633333Y-24302380D01*
X44585714Y-24326190D01*
X44442857Y-24326190D01*
X44395238Y-24302380D01*
X44371428Y-24278571D01*
X44990476Y-23826190D02*
X45085714Y-23826190D01*
X45133333Y-23850000D01*
X45180952Y-23897619D01*
X45204761Y-23992857D01*
X45204761Y-24159523D01*
X45180952Y-24254761D01*
X45133333Y-24302380D01*
X45085714Y-24326190D01*
X44990476Y-24326190D01*
X44942857Y-24302380D01*
X44895238Y-24254761D01*
X44871428Y-24159523D01*
X44871428Y-23992857D01*
X44895238Y-23897619D01*
X44942857Y-23850000D01*
X44990476Y-23826190D01*
X45419047Y-23826190D02*
X45419047Y-24230952D01*
X45442857Y-24278571D01*
X45466666Y-24302380D01*
X45514285Y-24326190D01*
X45609523Y-24326190D01*
X45657142Y-24302380D01*
X45680952Y-24278571D01*
X45704761Y-24230952D01*
X45704761Y-23826190D01*
X45871428Y-23826190D02*
X46157142Y-23826190D01*
X46014285Y-24326190D02*
X46014285Y-23826190D01*
D12*
X118664404Y-36071428D02*
X119426309Y-36071428D01*
X119045357Y-36452380D02*
X119045357Y-35690476D01*
X119902500Y-36071428D02*
X120664404Y-36071428D01*
X120283452Y-36452380D02*
X120283452Y-35690476D01*
D10*
X40692857Y-23826190D02*
X41002380Y-23826190D01*
X40835714Y-24016666D01*
X40907142Y-24016666D01*
X40954761Y-24040476D01*
X40978571Y-24064285D01*
X41002380Y-24111904D01*
X41002380Y-24230952D01*
X40978571Y-24278571D01*
X40954761Y-24302380D01*
X40907142Y-24326190D01*
X40764285Y-24326190D01*
X40716666Y-24302380D01*
X40692857Y-24278571D01*
X41145238Y-23826190D02*
X41311904Y-24326190D01*
X41478571Y-23826190D01*
X41597619Y-23826190D02*
X41907142Y-23826190D01*
X41740476Y-24016666D01*
X41811904Y-24016666D01*
X41859523Y-24040476D01*
X41883333Y-24064285D01*
X41907142Y-24111904D01*
X41907142Y-24230952D01*
X41883333Y-24278571D01*
X41859523Y-24302380D01*
X41811904Y-24326190D01*
X41669047Y-24326190D01*
X41621428Y-24302380D01*
X41597619Y-24278571D01*
X42121428Y-24064285D02*
X42288095Y-24064285D01*
X42359523Y-24326190D02*
X42121428Y-24326190D01*
X42121428Y-23826190D01*
X42359523Y-23826190D01*
X42573809Y-24326190D02*
X42573809Y-23826190D01*
X42859523Y-24326190D01*
X42859523Y-23826190D01*
X44642857Y-33650000D02*
X44595238Y-33626190D01*
X44523809Y-33626190D01*
X44452380Y-33650000D01*
X44404761Y-33697619D01*
X44380952Y-33745238D01*
X44357142Y-33840476D01*
X44357142Y-33911904D01*
X44380952Y-34007142D01*
X44404761Y-34054761D01*
X44452380Y-34102380D01*
X44523809Y-34126190D01*
X44571428Y-34126190D01*
X44642857Y-34102380D01*
X44666666Y-34078571D01*
X44666666Y-33911904D01*
X44571428Y-33911904D01*
X44880952Y-34126190D02*
X44880952Y-33626190D01*
X45071428Y-33626190D01*
X45119047Y-33650000D01*
X45142857Y-33673809D01*
X45166666Y-33721428D01*
X45166666Y-33792857D01*
X45142857Y-33840476D01*
X45119047Y-33864285D01*
X45071428Y-33888095D01*
X44880952Y-33888095D01*
X45333333Y-33626190D02*
X45642857Y-33626190D01*
X45476190Y-33816666D01*
X45547619Y-33816666D01*
X45595238Y-33840476D01*
X45619047Y-33864285D01*
X45642857Y-33911904D01*
X45642857Y-34030952D01*
X45619047Y-34078571D01*
X45595238Y-34102380D01*
X45547619Y-34126190D01*
X45404761Y-34126190D01*
X45357142Y-34102380D01*
X45333333Y-34078571D01*
X59942857Y-33650000D02*
X59895238Y-33626190D01*
X59823809Y-33626190D01*
X59752380Y-33650000D01*
X59704761Y-33697619D01*
X59680952Y-33745238D01*
X59657142Y-33840476D01*
X59657142Y-33911904D01*
X59680952Y-34007142D01*
X59704761Y-34054761D01*
X59752380Y-34102380D01*
X59823809Y-34126190D01*
X59871428Y-34126190D01*
X59942857Y-34102380D01*
X59966666Y-34078571D01*
X59966666Y-33911904D01*
X59871428Y-33911904D01*
X60180952Y-34126190D02*
X60180952Y-33626190D01*
X60371428Y-33626190D01*
X60419047Y-33650000D01*
X60442857Y-33673809D01*
X60466666Y-33721428D01*
X60466666Y-33792857D01*
X60442857Y-33840476D01*
X60419047Y-33864285D01*
X60371428Y-33888095D01*
X60180952Y-33888095D01*
X60752380Y-33840476D02*
X60704761Y-33816666D01*
X60680952Y-33792857D01*
X60657142Y-33745238D01*
X60657142Y-33721428D01*
X60680952Y-33673809D01*
X60704761Y-33650000D01*
X60752380Y-33626190D01*
X60847619Y-33626190D01*
X60895238Y-33650000D01*
X60919047Y-33673809D01*
X60942857Y-33721428D01*
X60942857Y-33745238D01*
X60919047Y-33792857D01*
X60895238Y-33816666D01*
X60847619Y-33840476D01*
X60752380Y-33840476D01*
X60704761Y-33864285D01*
X60680952Y-33888095D01*
X60657142Y-33935714D01*
X60657142Y-34030952D01*
X60680952Y-34078571D01*
X60704761Y-34102380D01*
X60752380Y-34126190D01*
X60847619Y-34126190D01*
X60895238Y-34102380D01*
X60919047Y-34078571D01*
X60942857Y-34030952D01*
X60942857Y-33935714D01*
X60919047Y-33888095D01*
X60895238Y-33864285D01*
X60847619Y-33840476D01*
D12*
X63486904Y-40377380D02*
X63677380Y-40377380D01*
X63772619Y-40425000D01*
X63867857Y-40520238D01*
X63915476Y-40710714D01*
X63915476Y-41044047D01*
X63867857Y-41234523D01*
X63772619Y-41329761D01*
X63677380Y-41377380D01*
X63486904Y-41377380D01*
X63391666Y-41329761D01*
X63296428Y-41234523D01*
X63248809Y-41044047D01*
X63248809Y-40710714D01*
X63296428Y-40520238D01*
X63391666Y-40425000D01*
X63486904Y-40377380D01*
X64344047Y-41377380D02*
X64344047Y-40377380D01*
X64725000Y-40377380D01*
X64820238Y-40425000D01*
X64867857Y-40472619D01*
X64915476Y-40567857D01*
X64915476Y-40710714D01*
X64867857Y-40805952D01*
X64820238Y-40853571D01*
X64725000Y-40901190D01*
X64344047Y-40901190D01*
X65344047Y-40996428D02*
X66105952Y-40996428D01*
X66534523Y-41091666D02*
X67010714Y-41091666D01*
X66439285Y-41377380D02*
X66772619Y-40377380D01*
X67105952Y-41377380D01*
X67439285Y-41377380D02*
X67439285Y-40377380D01*
X67772619Y-41091666D01*
X68105952Y-40377380D01*
X68105952Y-41377380D01*
X68582142Y-41377380D02*
X68582142Y-40377380D01*
X68963095Y-40377380D01*
X69058333Y-40425000D01*
X69105952Y-40472619D01*
X69153571Y-40567857D01*
X69153571Y-40710714D01*
X69105952Y-40805952D01*
X69058333Y-40853571D01*
X68963095Y-40901190D01*
X68582142Y-40901190D01*
X70677380Y-40853571D02*
X70820238Y-40901190D01*
X70867857Y-40948809D01*
X70915476Y-41044047D01*
X70915476Y-41186904D01*
X70867857Y-41282142D01*
X70820238Y-41329761D01*
X70725000Y-41377380D01*
X70344047Y-41377380D01*
X70344047Y-40377380D01*
X70677380Y-40377380D01*
X70772619Y-40425000D01*
X70820238Y-40472619D01*
X70867857Y-40567857D01*
X70867857Y-40663095D01*
X70820238Y-40758333D01*
X70772619Y-40805952D01*
X70677380Y-40853571D01*
X70344047Y-40853571D01*
X71344047Y-41377380D02*
X71344047Y-40377380D01*
X71772619Y-41091666D02*
X72248809Y-41091666D01*
X71677380Y-41377380D02*
X72010714Y-40377380D01*
X72344047Y-41377380D01*
X72629761Y-41329761D02*
X72772619Y-41377380D01*
X73010714Y-41377380D01*
X73105952Y-41329761D01*
X73153571Y-41282142D01*
X73201190Y-41186904D01*
X73201190Y-41091666D01*
X73153571Y-40996428D01*
X73105952Y-40948809D01*
X73010714Y-40901190D01*
X72820238Y-40853571D01*
X72725000Y-40805952D01*
X72677380Y-40758333D01*
X72629761Y-40663095D01*
X72629761Y-40567857D01*
X72677380Y-40472619D01*
X72725000Y-40425000D01*
X72820238Y-40377380D01*
X73058333Y-40377380D01*
X73201190Y-40425000D01*
D10*
X33983333Y-23826190D02*
X34150000Y-24326190D01*
X34316666Y-23826190D01*
X34650000Y-24064285D02*
X34721428Y-24088095D01*
X34745238Y-24111904D01*
X34769047Y-24159523D01*
X34769047Y-24230952D01*
X34745238Y-24278571D01*
X34721428Y-24302380D01*
X34673809Y-24326190D01*
X34483333Y-24326190D01*
X34483333Y-23826190D01*
X34650000Y-23826190D01*
X34697619Y-23850000D01*
X34721428Y-23873809D01*
X34745238Y-23921428D01*
X34745238Y-23969047D01*
X34721428Y-24016666D01*
X34697619Y-24040476D01*
X34650000Y-24064285D01*
X34483333Y-24064285D01*
X34983333Y-23826190D02*
X34983333Y-24230952D01*
X35007142Y-24278571D01*
X35030952Y-24302380D01*
X35078571Y-24326190D01*
X35173809Y-24326190D01*
X35221428Y-24302380D01*
X35245238Y-24278571D01*
X35269047Y-24230952D01*
X35269047Y-23826190D01*
X35483333Y-24302380D02*
X35554761Y-24326190D01*
X35673809Y-24326190D01*
X35721428Y-24302380D01*
X35745238Y-24278571D01*
X35769047Y-24230952D01*
X35769047Y-24183333D01*
X35745238Y-24135714D01*
X35721428Y-24111904D01*
X35673809Y-24088095D01*
X35578571Y-24064285D01*
X35530952Y-24040476D01*
X35507142Y-24016666D01*
X35483333Y-23969047D01*
X35483333Y-23921428D01*
X35507142Y-23873809D01*
X35530952Y-23850000D01*
X35578571Y-23826190D01*
X35697619Y-23826190D01*
X35769047Y-23850000D01*
X64804761Y-33650000D02*
X64757142Y-33626190D01*
X64685714Y-33626190D01*
X64614285Y-33650000D01*
X64566666Y-33697619D01*
X64542857Y-33745238D01*
X64519047Y-33840476D01*
X64519047Y-33911904D01*
X64542857Y-34007142D01*
X64566666Y-34054761D01*
X64614285Y-34102380D01*
X64685714Y-34126190D01*
X64733333Y-34126190D01*
X64804761Y-34102380D01*
X64828571Y-34078571D01*
X64828571Y-33911904D01*
X64733333Y-33911904D01*
X65042857Y-34126190D02*
X65042857Y-33626190D01*
X65233333Y-33626190D01*
X65280952Y-33650000D01*
X65304761Y-33673809D01*
X65328571Y-33721428D01*
X65328571Y-33792857D01*
X65304761Y-33840476D01*
X65280952Y-33864285D01*
X65233333Y-33888095D01*
X65042857Y-33888095D01*
X65519047Y-33673809D02*
X65542857Y-33650000D01*
X65590476Y-33626190D01*
X65709523Y-33626190D01*
X65757142Y-33650000D01*
X65780952Y-33673809D01*
X65804761Y-33721428D01*
X65804761Y-33769047D01*
X65780952Y-33840476D01*
X65495238Y-34126190D01*
X65804761Y-34126190D01*
X66042857Y-34126190D02*
X66138095Y-34126190D01*
X66185714Y-34102380D01*
X66209523Y-34078571D01*
X66257142Y-34007142D01*
X66280952Y-33911904D01*
X66280952Y-33721428D01*
X66257142Y-33673809D01*
X66233333Y-33650000D01*
X66185714Y-33626190D01*
X66090476Y-33626190D01*
X66042857Y-33650000D01*
X66019047Y-33673809D01*
X65995238Y-33721428D01*
X65995238Y-33840476D01*
X66019047Y-33888095D01*
X66042857Y-33911904D01*
X66090476Y-33935714D01*
X66185714Y-33935714D01*
X66233333Y-33911904D01*
X66257142Y-33888095D01*
X66280952Y-33840476D01*
X82604761Y-23850000D02*
X82557142Y-23826190D01*
X82485714Y-23826190D01*
X82414285Y-23850000D01*
X82366666Y-23897619D01*
X82342857Y-23945238D01*
X82319047Y-24040476D01*
X82319047Y-24111904D01*
X82342857Y-24207142D01*
X82366666Y-24254761D01*
X82414285Y-24302380D01*
X82485714Y-24326190D01*
X82533333Y-24326190D01*
X82604761Y-24302380D01*
X82628571Y-24278571D01*
X82628571Y-24111904D01*
X82533333Y-24111904D01*
X82842857Y-24326190D02*
X82842857Y-23826190D01*
X83033333Y-23826190D01*
X83080952Y-23850000D01*
X83104761Y-23873809D01*
X83128571Y-23921428D01*
X83128571Y-23992857D01*
X83104761Y-24040476D01*
X83080952Y-24064285D01*
X83033333Y-24088095D01*
X82842857Y-24088095D01*
X83604761Y-24326190D02*
X83319047Y-24326190D01*
X83461904Y-24326190D02*
X83461904Y-23826190D01*
X83414285Y-23897619D01*
X83366666Y-23945238D01*
X83319047Y-23969047D01*
X84033333Y-23826190D02*
X83938095Y-23826190D01*
X83890476Y-23850000D01*
X83866666Y-23873809D01*
X83819047Y-23945238D01*
X83795238Y-24040476D01*
X83795238Y-24230952D01*
X83819047Y-24278571D01*
X83842857Y-24302380D01*
X83890476Y-24326190D01*
X83985714Y-24326190D01*
X84033333Y-24302380D01*
X84057142Y-24278571D01*
X84080952Y-24230952D01*
X84080952Y-24111904D01*
X84057142Y-24064285D01*
X84033333Y-24040476D01*
X83985714Y-24016666D01*
X83890476Y-24016666D01*
X83842857Y-24040476D01*
X83819047Y-24064285D01*
X83795238Y-24111904D01*
X49742857Y-33650000D02*
X49695238Y-33626190D01*
X49623809Y-33626190D01*
X49552380Y-33650000D01*
X49504761Y-33697619D01*
X49480952Y-33745238D01*
X49457142Y-33840476D01*
X49457142Y-33911904D01*
X49480952Y-34007142D01*
X49504761Y-34054761D01*
X49552380Y-34102380D01*
X49623809Y-34126190D01*
X49671428Y-34126190D01*
X49742857Y-34102380D01*
X49766666Y-34078571D01*
X49766666Y-33911904D01*
X49671428Y-33911904D01*
X49980952Y-34126190D02*
X49980952Y-33626190D01*
X50171428Y-33626190D01*
X50219047Y-33650000D01*
X50242857Y-33673809D01*
X50266666Y-33721428D01*
X50266666Y-33792857D01*
X50242857Y-33840476D01*
X50219047Y-33864285D01*
X50171428Y-33888095D01*
X49980952Y-33888095D01*
X50719047Y-33626190D02*
X50480952Y-33626190D01*
X50457142Y-33864285D01*
X50480952Y-33840476D01*
X50528571Y-33816666D01*
X50647619Y-33816666D01*
X50695238Y-33840476D01*
X50719047Y-33864285D01*
X50742857Y-33911904D01*
X50742857Y-34030952D01*
X50719047Y-34078571D01*
X50695238Y-34102380D01*
X50647619Y-34126190D01*
X50528571Y-34126190D01*
X50480952Y-34102380D01*
X50457142Y-34078571D01*
X37042857Y-33650000D02*
X36995238Y-33626190D01*
X36923809Y-33626190D01*
X36852380Y-33650000D01*
X36804761Y-33697619D01*
X36780952Y-33745238D01*
X36757142Y-33840476D01*
X36757142Y-33911904D01*
X36780952Y-34007142D01*
X36804761Y-34054761D01*
X36852380Y-34102380D01*
X36923809Y-34126190D01*
X36971428Y-34126190D01*
X37042857Y-34102380D01*
X37066666Y-34078571D01*
X37066666Y-33911904D01*
X36971428Y-33911904D01*
X37280952Y-34126190D02*
X37280952Y-33626190D01*
X37471428Y-33626190D01*
X37519047Y-33650000D01*
X37542857Y-33673809D01*
X37566666Y-33721428D01*
X37566666Y-33792857D01*
X37542857Y-33840476D01*
X37519047Y-33864285D01*
X37471428Y-33888095D01*
X37280952Y-33888095D01*
X38042857Y-34126190D02*
X37757142Y-34126190D01*
X37900000Y-34126190D02*
X37900000Y-33626190D01*
X37852380Y-33697619D01*
X37804761Y-33745238D01*
X37757142Y-33769047D01*
D13*
X92352619Y-28939523D02*
X92828809Y-28606190D01*
X92352619Y-28368095D02*
X93352619Y-28368095D01*
X93352619Y-28749047D01*
X93305000Y-28844285D01*
X93257380Y-28891904D01*
X93162142Y-28939523D01*
X93019285Y-28939523D01*
X92924047Y-28891904D01*
X92876428Y-28844285D01*
X92828809Y-28749047D01*
X92828809Y-28368095D01*
X93257380Y-29320476D02*
X93305000Y-29368095D01*
X93352619Y-29463333D01*
X93352619Y-29701428D01*
X93305000Y-29796666D01*
X93257380Y-29844285D01*
X93162142Y-29891904D01*
X93066904Y-29891904D01*
X92924047Y-29844285D01*
X92352619Y-29272857D01*
X92352619Y-29891904D01*
X93352619Y-30510952D02*
X93352619Y-30606190D01*
X93305000Y-30701428D01*
X93257380Y-30749047D01*
X93162142Y-30796666D01*
X92971666Y-30844285D01*
X92733571Y-30844285D01*
X92543095Y-30796666D01*
X92447857Y-30749047D01*
X92400238Y-30701428D01*
X92352619Y-30606190D01*
X92352619Y-30510952D01*
X92400238Y-30415714D01*
X92447857Y-30368095D01*
X92543095Y-30320476D01*
X92733571Y-30272857D01*
X92971666Y-30272857D01*
X93162142Y-30320476D01*
X93257380Y-30368095D01*
X93305000Y-30415714D01*
X93352619Y-30510952D01*
X93352619Y-31749047D02*
X93352619Y-31272857D01*
X92876428Y-31225238D01*
X92924047Y-31272857D01*
X92971666Y-31368095D01*
X92971666Y-31606190D01*
X92924047Y-31701428D01*
X92876428Y-31749047D01*
X92781190Y-31796666D01*
X92543095Y-31796666D01*
X92447857Y-31749047D01*
X92400238Y-31701428D01*
X92352619Y-31606190D01*
X92352619Y-31368095D01*
X92400238Y-31272857D01*
X92447857Y-31225238D01*
X93352619Y-32844285D02*
X92352619Y-33177619D01*
X93352619Y-33510952D01*
X92352619Y-34320476D02*
X92352619Y-33844285D01*
X93352619Y-33844285D01*
X92352619Y-34653809D02*
X93352619Y-34653809D01*
X93352619Y-34891904D01*
X93305000Y-35034761D01*
X93209761Y-35130000D01*
X93114523Y-35177619D01*
X92924047Y-35225238D01*
X92781190Y-35225238D01*
X92590714Y-35177619D01*
X92495476Y-35130000D01*
X92400238Y-35034761D01*
X92352619Y-34891904D01*
X92352619Y-34653809D01*
X93352619Y-35844285D02*
X93352619Y-36034761D01*
X93305000Y-36130000D01*
X93209761Y-36225238D01*
X93019285Y-36272857D01*
X92685952Y-36272857D01*
X92495476Y-36225238D01*
X92400238Y-36130000D01*
X92352619Y-36034761D01*
X92352619Y-35844285D01*
X92400238Y-35749047D01*
X92495476Y-35653809D01*
X92685952Y-35606190D01*
X93019285Y-35606190D01*
X93209761Y-35653809D01*
X93305000Y-35749047D01*
X93352619Y-35844285D01*
X92733571Y-36701428D02*
X92733571Y-37463333D01*
X92400238Y-37891904D02*
X92352619Y-38034761D01*
X92352619Y-38272857D01*
X92400238Y-38368095D01*
X92447857Y-38415714D01*
X92543095Y-38463333D01*
X92638333Y-38463333D01*
X92733571Y-38415714D01*
X92781190Y-38368095D01*
X92828809Y-38272857D01*
X92876428Y-38082380D01*
X92924047Y-37987142D01*
X92971666Y-37939523D01*
X93066904Y-37891904D01*
X93162142Y-37891904D01*
X93257380Y-37939523D01*
X93305000Y-37987142D01*
X93352619Y-38082380D01*
X93352619Y-38320476D01*
X93305000Y-38463333D01*
X93352619Y-38749047D02*
X93352619Y-39320476D01*
X92352619Y-39034761D02*
X93352619Y-39034761D01*
X92638333Y-39606190D02*
X92638333Y-40082380D01*
X92352619Y-39510952D02*
X93352619Y-39844285D01*
X92352619Y-40177619D01*
X92447857Y-41082380D02*
X92400238Y-41034761D01*
X92352619Y-40891904D01*
X92352619Y-40796666D01*
X92400238Y-40653809D01*
X92495476Y-40558571D01*
X92590714Y-40510952D01*
X92781190Y-40463333D01*
X92924047Y-40463333D01*
X93114523Y-40510952D01*
X93209761Y-40558571D01*
X93305000Y-40653809D01*
X93352619Y-40796666D01*
X93352619Y-40891904D01*
X93305000Y-41034761D01*
X93257380Y-41082380D01*
X92352619Y-41510952D02*
X93352619Y-41510952D01*
X92352619Y-42082380D02*
X92924047Y-41653809D01*
X93352619Y-42082380D02*
X92781190Y-41510952D01*
X90742619Y-28939523D02*
X91218809Y-28606190D01*
X90742619Y-28368095D02*
X91742619Y-28368095D01*
X91742619Y-28749047D01*
X91695000Y-28844285D01*
X91647380Y-28891904D01*
X91552142Y-28939523D01*
X91409285Y-28939523D01*
X91314047Y-28891904D01*
X91266428Y-28844285D01*
X91218809Y-28749047D01*
X91218809Y-28368095D01*
X91647380Y-29320476D02*
X91695000Y-29368095D01*
X91742619Y-29463333D01*
X91742619Y-29701428D01*
X91695000Y-29796666D01*
X91647380Y-29844285D01*
X91552142Y-29891904D01*
X91456904Y-29891904D01*
X91314047Y-29844285D01*
X90742619Y-29272857D01*
X90742619Y-29891904D01*
X91742619Y-30510952D02*
X91742619Y-30606190D01*
X91695000Y-30701428D01*
X91647380Y-30749047D01*
X91552142Y-30796666D01*
X91361666Y-30844285D01*
X91123571Y-30844285D01*
X90933095Y-30796666D01*
X90837857Y-30749047D01*
X90790238Y-30701428D01*
X90742619Y-30606190D01*
X90742619Y-30510952D01*
X90790238Y-30415714D01*
X90837857Y-30368095D01*
X90933095Y-30320476D01*
X91123571Y-30272857D01*
X91361666Y-30272857D01*
X91552142Y-30320476D01*
X91647380Y-30368095D01*
X91695000Y-30415714D01*
X91742619Y-30510952D01*
X91742619Y-31177619D02*
X91742619Y-31844285D01*
X90742619Y-31415714D01*
X91742619Y-32844285D02*
X90742619Y-33177619D01*
X91742619Y-33510952D01*
X91028333Y-33796666D02*
X91028333Y-34272857D01*
X90742619Y-33701428D02*
X91742619Y-34034761D01*
X90742619Y-34368095D01*
X90742619Y-34701428D02*
X91742619Y-34701428D01*
X90742619Y-35272857D01*
X91742619Y-35272857D01*
X91028333Y-35701428D02*
X91028333Y-36177619D01*
X90742619Y-35606190D02*
X91742619Y-35939523D01*
X90742619Y-36272857D01*
X91123571Y-36606190D02*
X91123571Y-37368095D01*
X90790238Y-37796666D02*
X90742619Y-37939523D01*
X90742619Y-38177619D01*
X90790238Y-38272857D01*
X90837857Y-38320476D01*
X90933095Y-38368095D01*
X91028333Y-38368095D01*
X91123571Y-38320476D01*
X91171190Y-38272857D01*
X91218809Y-38177619D01*
X91266428Y-37987142D01*
X91314047Y-37891904D01*
X91361666Y-37844285D01*
X91456904Y-37796666D01*
X91552142Y-37796666D01*
X91647380Y-37844285D01*
X91695000Y-37891904D01*
X91742619Y-37987142D01*
X91742619Y-38225238D01*
X91695000Y-38368095D01*
X91742619Y-38653809D02*
X91742619Y-39225238D01*
X90742619Y-38939523D02*
X91742619Y-38939523D01*
X91028333Y-39510952D02*
X91028333Y-39987142D01*
X90742619Y-39415714D02*
X91742619Y-39749047D01*
X90742619Y-40082380D01*
X90837857Y-40987142D02*
X90790238Y-40939523D01*
X90742619Y-40796666D01*
X90742619Y-40701428D01*
X90790238Y-40558571D01*
X90885476Y-40463333D01*
X90980714Y-40415714D01*
X91171190Y-40368095D01*
X91314047Y-40368095D01*
X91504523Y-40415714D01*
X91599761Y-40463333D01*
X91695000Y-40558571D01*
X91742619Y-40701428D01*
X91742619Y-40796666D01*
X91695000Y-40939523D01*
X91647380Y-40987142D01*
X90742619Y-41415714D02*
X91742619Y-41415714D01*
X90742619Y-41987142D02*
X91314047Y-41558571D01*
X91742619Y-41987142D02*
X91171190Y-41415714D01*
D10*
%TO.C,C11*%
X63278571Y-62621428D02*
X63302380Y-62645238D01*
X63326190Y-62716666D01*
X63326190Y-62764285D01*
X63302380Y-62835714D01*
X63254761Y-62883333D01*
X63207142Y-62907142D01*
X63111904Y-62930952D01*
X63040476Y-62930952D01*
X62945238Y-62907142D01*
X62897619Y-62883333D01*
X62850000Y-62835714D01*
X62826190Y-62764285D01*
X62826190Y-62716666D01*
X62850000Y-62645238D01*
X62873809Y-62621428D01*
X63326190Y-62145238D02*
X63326190Y-62430952D01*
X63326190Y-62288095D02*
X62826190Y-62288095D01*
X62897619Y-62335714D01*
X62945238Y-62383333D01*
X62969047Y-62430952D01*
X63326190Y-61669047D02*
X63326190Y-61954761D01*
X63326190Y-61811904D02*
X62826190Y-61811904D01*
X62897619Y-61859523D01*
X62945238Y-61907142D01*
X62969047Y-61954761D01*
%TO.C,C18*%
X79578571Y-62121428D02*
X79602380Y-62145238D01*
X79626190Y-62216666D01*
X79626190Y-62264285D01*
X79602380Y-62335714D01*
X79554761Y-62383333D01*
X79507142Y-62407142D01*
X79411904Y-62430952D01*
X79340476Y-62430952D01*
X79245238Y-62407142D01*
X79197619Y-62383333D01*
X79150000Y-62335714D01*
X79126190Y-62264285D01*
X79126190Y-62216666D01*
X79150000Y-62145238D01*
X79173809Y-62121428D01*
X79626190Y-61645238D02*
X79626190Y-61930952D01*
X79626190Y-61788095D02*
X79126190Y-61788095D01*
X79197619Y-61835714D01*
X79245238Y-61883333D01*
X79269047Y-61930952D01*
X79340476Y-61359523D02*
X79316666Y-61407142D01*
X79292857Y-61430952D01*
X79245238Y-61454761D01*
X79221428Y-61454761D01*
X79173809Y-61430952D01*
X79150000Y-61407142D01*
X79126190Y-61359523D01*
X79126190Y-61264285D01*
X79150000Y-61216666D01*
X79173809Y-61192857D01*
X79221428Y-61169047D01*
X79245238Y-61169047D01*
X79292857Y-61192857D01*
X79316666Y-61216666D01*
X79340476Y-61264285D01*
X79340476Y-61359523D01*
X79364285Y-61407142D01*
X79388095Y-61430952D01*
X79435714Y-61454761D01*
X79530952Y-61454761D01*
X79578571Y-61430952D01*
X79602380Y-61407142D01*
X79626190Y-61359523D01*
X79626190Y-61264285D01*
X79602380Y-61216666D01*
X79578571Y-61192857D01*
X79530952Y-61169047D01*
X79435714Y-61169047D01*
X79388095Y-61192857D01*
X79364285Y-61216666D01*
X79340476Y-61264285D01*
%TO.C,R1*%
X89616666Y-51526190D02*
X89450000Y-51288095D01*
X89330952Y-51526190D02*
X89330952Y-51026190D01*
X89521428Y-51026190D01*
X89569047Y-51050000D01*
X89592857Y-51073809D01*
X89616666Y-51121428D01*
X89616666Y-51192857D01*
X89592857Y-51240476D01*
X89569047Y-51264285D01*
X89521428Y-51288095D01*
X89330952Y-51288095D01*
X90092857Y-51526190D02*
X89807142Y-51526190D01*
X89950000Y-51526190D02*
X89950000Y-51026190D01*
X89902380Y-51097619D01*
X89854761Y-51145238D01*
X89807142Y-51169047D01*
%TO.C,C12*%
X63278571Y-60321428D02*
X63302380Y-60345238D01*
X63326190Y-60416666D01*
X63326190Y-60464285D01*
X63302380Y-60535714D01*
X63254761Y-60583333D01*
X63207142Y-60607142D01*
X63111904Y-60630952D01*
X63040476Y-60630952D01*
X62945238Y-60607142D01*
X62897619Y-60583333D01*
X62850000Y-60535714D01*
X62826190Y-60464285D01*
X62826190Y-60416666D01*
X62850000Y-60345238D01*
X62873809Y-60321428D01*
X63326190Y-59845238D02*
X63326190Y-60130952D01*
X63326190Y-59988095D02*
X62826190Y-59988095D01*
X62897619Y-60035714D01*
X62945238Y-60083333D01*
X62969047Y-60130952D01*
X62873809Y-59654761D02*
X62850000Y-59630952D01*
X62826190Y-59583333D01*
X62826190Y-59464285D01*
X62850000Y-59416666D01*
X62873809Y-59392857D01*
X62921428Y-59369047D01*
X62969047Y-59369047D01*
X63040476Y-59392857D01*
X63326190Y-59678571D01*
X63326190Y-59369047D01*
%TO.C,C208*%
X99759523Y-24521428D02*
X99783333Y-24497619D01*
X99854761Y-24473809D01*
X99902380Y-24473809D01*
X99973809Y-24497619D01*
X100021428Y-24545238D01*
X100045238Y-24592857D01*
X100069047Y-24688095D01*
X100069047Y-24759523D01*
X100045238Y-24854761D01*
X100021428Y-24902380D01*
X99973809Y-24950000D01*
X99902380Y-24973809D01*
X99854761Y-24973809D01*
X99783333Y-24950000D01*
X99759523Y-24926190D01*
X99569047Y-24926190D02*
X99545238Y-24950000D01*
X99497619Y-24973809D01*
X99378571Y-24973809D01*
X99330952Y-24950000D01*
X99307142Y-24926190D01*
X99283333Y-24878571D01*
X99283333Y-24830952D01*
X99307142Y-24759523D01*
X99592857Y-24473809D01*
X99283333Y-24473809D01*
X98973809Y-24973809D02*
X98926190Y-24973809D01*
X98878571Y-24950000D01*
X98854761Y-24926190D01*
X98830952Y-24878571D01*
X98807142Y-24783333D01*
X98807142Y-24664285D01*
X98830952Y-24569047D01*
X98854761Y-24521428D01*
X98878571Y-24497619D01*
X98926190Y-24473809D01*
X98973809Y-24473809D01*
X99021428Y-24497619D01*
X99045238Y-24521428D01*
X99069047Y-24569047D01*
X99092857Y-24664285D01*
X99092857Y-24783333D01*
X99069047Y-24878571D01*
X99045238Y-24926190D01*
X99021428Y-24950000D01*
X98973809Y-24973809D01*
X98521428Y-24759523D02*
X98569047Y-24783333D01*
X98592857Y-24807142D01*
X98616666Y-24854761D01*
X98616666Y-24878571D01*
X98592857Y-24926190D01*
X98569047Y-24950000D01*
X98521428Y-24973809D01*
X98426190Y-24973809D01*
X98378571Y-24950000D01*
X98354761Y-24926190D01*
X98330952Y-24878571D01*
X98330952Y-24854761D01*
X98354761Y-24807142D01*
X98378571Y-24783333D01*
X98426190Y-24759523D01*
X98521428Y-24759523D01*
X98569047Y-24735714D01*
X98592857Y-24711904D01*
X98616666Y-24664285D01*
X98616666Y-24569047D01*
X98592857Y-24521428D01*
X98569047Y-24497619D01*
X98521428Y-24473809D01*
X98426190Y-24473809D01*
X98378571Y-24497619D01*
X98354761Y-24521428D01*
X98330952Y-24569047D01*
X98330952Y-24664285D01*
X98354761Y-24711904D01*
X98378571Y-24735714D01*
X98426190Y-24759523D01*
%TO.C,R9*%
X66516666Y-53026190D02*
X66350000Y-52788095D01*
X66230952Y-53026190D02*
X66230952Y-52526190D01*
X66421428Y-52526190D01*
X66469047Y-52550000D01*
X66492857Y-52573809D01*
X66516666Y-52621428D01*
X66516666Y-52692857D01*
X66492857Y-52740476D01*
X66469047Y-52764285D01*
X66421428Y-52788095D01*
X66230952Y-52788095D01*
X66754761Y-53026190D02*
X66850000Y-53026190D01*
X66897619Y-53002380D01*
X66921428Y-52978571D01*
X66969047Y-52907142D01*
X66992857Y-52811904D01*
X66992857Y-52621428D01*
X66969047Y-52573809D01*
X66945238Y-52550000D01*
X66897619Y-52526190D01*
X66802380Y-52526190D01*
X66754761Y-52550000D01*
X66730952Y-52573809D01*
X66707142Y-52621428D01*
X66707142Y-52740476D01*
X66730952Y-52788095D01*
X66754761Y-52811904D01*
X66802380Y-52835714D01*
X66897619Y-52835714D01*
X66945238Y-52811904D01*
X66969047Y-52788095D01*
X66992857Y-52740476D01*
%TO.C,U4*%
X70119047Y-62326190D02*
X70119047Y-62730952D01*
X70142857Y-62778571D01*
X70166666Y-62802380D01*
X70214285Y-62826190D01*
X70309523Y-62826190D01*
X70357142Y-62802380D01*
X70380952Y-62778571D01*
X70404761Y-62730952D01*
X70404761Y-62326190D01*
X70857142Y-62492857D02*
X70857142Y-62826190D01*
X70738095Y-62302380D02*
X70619047Y-62659523D01*
X70928571Y-62659523D01*
%TO.C,R15*%
X80278571Y-64576190D02*
X80111904Y-64338095D01*
X79992857Y-64576190D02*
X79992857Y-64076190D01*
X80183333Y-64076190D01*
X80230952Y-64100000D01*
X80254761Y-64123809D01*
X80278571Y-64171428D01*
X80278571Y-64242857D01*
X80254761Y-64290476D01*
X80230952Y-64314285D01*
X80183333Y-64338095D01*
X79992857Y-64338095D01*
X80754761Y-64576190D02*
X80469047Y-64576190D01*
X80611904Y-64576190D02*
X80611904Y-64076190D01*
X80564285Y-64147619D01*
X80516666Y-64195238D01*
X80469047Y-64219047D01*
X81207142Y-64076190D02*
X80969047Y-64076190D01*
X80945238Y-64314285D01*
X80969047Y-64290476D01*
X81016666Y-64266666D01*
X81135714Y-64266666D01*
X81183333Y-64290476D01*
X81207142Y-64314285D01*
X81230952Y-64361904D01*
X81230952Y-64480952D01*
X81207142Y-64528571D01*
X81183333Y-64552380D01*
X81135714Y-64576190D01*
X81016666Y-64576190D01*
X80969047Y-64552380D01*
X80945238Y-64528571D01*
%TO.C,J3*%
X122833333Y-51596190D02*
X122833333Y-51953333D01*
X122809523Y-52024761D01*
X122761904Y-52072380D01*
X122690476Y-52096190D01*
X122642857Y-52096190D01*
X123023809Y-51596190D02*
X123333333Y-51596190D01*
X123166666Y-51786666D01*
X123238095Y-51786666D01*
X123285714Y-51810476D01*
X123309523Y-51834285D01*
X123333333Y-51881904D01*
X123333333Y-52000952D01*
X123309523Y-52048571D01*
X123285714Y-52072380D01*
X123238095Y-52096190D01*
X123095238Y-52096190D01*
X123047619Y-52072380D01*
X123023809Y-52048571D01*
%TO.C,R16*%
X71626190Y-62121428D02*
X71388095Y-62288095D01*
X71626190Y-62407142D02*
X71126190Y-62407142D01*
X71126190Y-62216666D01*
X71150000Y-62169047D01*
X71173809Y-62145238D01*
X71221428Y-62121428D01*
X71292857Y-62121428D01*
X71340476Y-62145238D01*
X71364285Y-62169047D01*
X71388095Y-62216666D01*
X71388095Y-62407142D01*
X71626190Y-61645238D02*
X71626190Y-61930952D01*
X71626190Y-61788095D02*
X71126190Y-61788095D01*
X71197619Y-61835714D01*
X71245238Y-61883333D01*
X71269047Y-61930952D01*
X71126190Y-61216666D02*
X71126190Y-61311904D01*
X71150000Y-61359523D01*
X71173809Y-61383333D01*
X71245238Y-61430952D01*
X71340476Y-61454761D01*
X71530952Y-61454761D01*
X71578571Y-61430952D01*
X71602380Y-61407142D01*
X71626190Y-61359523D01*
X71626190Y-61264285D01*
X71602380Y-61216666D01*
X71578571Y-61192857D01*
X71530952Y-61169047D01*
X71411904Y-61169047D01*
X71364285Y-61192857D01*
X71340476Y-61216666D01*
X71316666Y-61264285D01*
X71316666Y-61359523D01*
X71340476Y-61407142D01*
X71364285Y-61430952D01*
X71411904Y-61454761D01*
%TO.C,R17*%
X68378571Y-66726190D02*
X68211904Y-66488095D01*
X68092857Y-66726190D02*
X68092857Y-66226190D01*
X68283333Y-66226190D01*
X68330952Y-66250000D01*
X68354761Y-66273809D01*
X68378571Y-66321428D01*
X68378571Y-66392857D01*
X68354761Y-66440476D01*
X68330952Y-66464285D01*
X68283333Y-66488095D01*
X68092857Y-66488095D01*
X68854761Y-66726190D02*
X68569047Y-66726190D01*
X68711904Y-66726190D02*
X68711904Y-66226190D01*
X68664285Y-66297619D01*
X68616666Y-66345238D01*
X68569047Y-66369047D01*
X69021428Y-66226190D02*
X69354761Y-66226190D01*
X69140476Y-66726190D01*
D12*
%TO.C,R206*%
X113380952Y-38052380D02*
X113047619Y-37576190D01*
X112809523Y-38052380D02*
X112809523Y-37052380D01*
X113190476Y-37052380D01*
X113285714Y-37100000D01*
X113333333Y-37147619D01*
X113380952Y-37242857D01*
X113380952Y-37385714D01*
X113333333Y-37480952D01*
X113285714Y-37528571D01*
X113190476Y-37576190D01*
X112809523Y-37576190D01*
X113761904Y-37147619D02*
X113809523Y-37100000D01*
X113904761Y-37052380D01*
X114142857Y-37052380D01*
X114238095Y-37100000D01*
X114285714Y-37147619D01*
X114333333Y-37242857D01*
X114333333Y-37338095D01*
X114285714Y-37480952D01*
X113714285Y-38052380D01*
X114333333Y-38052380D01*
X114952380Y-37052380D02*
X115047619Y-37052380D01*
X115142857Y-37100000D01*
X115190476Y-37147619D01*
X115238095Y-37242857D01*
X115285714Y-37433333D01*
X115285714Y-37671428D01*
X115238095Y-37861904D01*
X115190476Y-37957142D01*
X115142857Y-38004761D01*
X115047619Y-38052380D01*
X114952380Y-38052380D01*
X114857142Y-38004761D01*
X114809523Y-37957142D01*
X114761904Y-37861904D01*
X114714285Y-37671428D01*
X114714285Y-37433333D01*
X114761904Y-37242857D01*
X114809523Y-37147619D01*
X114857142Y-37100000D01*
X114952380Y-37052380D01*
X116142857Y-37052380D02*
X115952380Y-37052380D01*
X115857142Y-37100000D01*
X115809523Y-37147619D01*
X115714285Y-37290476D01*
X115666666Y-37480952D01*
X115666666Y-37861904D01*
X115714285Y-37957142D01*
X115761904Y-38004761D01*
X115857142Y-38052380D01*
X116047619Y-38052380D01*
X116142857Y-38004761D01*
X116190476Y-37957142D01*
X116238095Y-37861904D01*
X116238095Y-37623809D01*
X116190476Y-37528571D01*
X116142857Y-37480952D01*
X116047619Y-37433333D01*
X115857142Y-37433333D01*
X115761904Y-37480952D01*
X115714285Y-37528571D01*
X115666666Y-37623809D01*
D10*
%TO.C,C204*%
X108140476Y-38678571D02*
X108116666Y-38702380D01*
X108045238Y-38726190D01*
X107997619Y-38726190D01*
X107926190Y-38702380D01*
X107878571Y-38654761D01*
X107854761Y-38607142D01*
X107830952Y-38511904D01*
X107830952Y-38440476D01*
X107854761Y-38345238D01*
X107878571Y-38297619D01*
X107926190Y-38250000D01*
X107997619Y-38226190D01*
X108045238Y-38226190D01*
X108116666Y-38250000D01*
X108140476Y-38273809D01*
X108330952Y-38273809D02*
X108354761Y-38250000D01*
X108402380Y-38226190D01*
X108521428Y-38226190D01*
X108569047Y-38250000D01*
X108592857Y-38273809D01*
X108616666Y-38321428D01*
X108616666Y-38369047D01*
X108592857Y-38440476D01*
X108307142Y-38726190D01*
X108616666Y-38726190D01*
X108926190Y-38226190D02*
X108973809Y-38226190D01*
X109021428Y-38250000D01*
X109045238Y-38273809D01*
X109069047Y-38321428D01*
X109092857Y-38416666D01*
X109092857Y-38535714D01*
X109069047Y-38630952D01*
X109045238Y-38678571D01*
X109021428Y-38702380D01*
X108973809Y-38726190D01*
X108926190Y-38726190D01*
X108878571Y-38702380D01*
X108854761Y-38678571D01*
X108830952Y-38630952D01*
X108807142Y-38535714D01*
X108807142Y-38416666D01*
X108830952Y-38321428D01*
X108854761Y-38273809D01*
X108878571Y-38250000D01*
X108926190Y-38226190D01*
X109521428Y-38392857D02*
X109521428Y-38726190D01*
X109402380Y-38202380D02*
X109283333Y-38559523D01*
X109592857Y-38559523D01*
%TO.C,R5*%
X92916666Y-51526190D02*
X92750000Y-51288095D01*
X92630952Y-51526190D02*
X92630952Y-51026190D01*
X92821428Y-51026190D01*
X92869047Y-51050000D01*
X92892857Y-51073809D01*
X92916666Y-51121428D01*
X92916666Y-51192857D01*
X92892857Y-51240476D01*
X92869047Y-51264285D01*
X92821428Y-51288095D01*
X92630952Y-51288095D01*
X93369047Y-51026190D02*
X93130952Y-51026190D01*
X93107142Y-51264285D01*
X93130952Y-51240476D01*
X93178571Y-51216666D01*
X93297619Y-51216666D01*
X93345238Y-51240476D01*
X93369047Y-51264285D01*
X93392857Y-51311904D01*
X93392857Y-51430952D01*
X93369047Y-51478571D01*
X93345238Y-51502380D01*
X93297619Y-51526190D01*
X93178571Y-51526190D01*
X93130952Y-51502380D01*
X93107142Y-51478571D01*
%TO.C,R13*%
X77878571Y-52926190D02*
X77711904Y-52688095D01*
X77592857Y-52926190D02*
X77592857Y-52426190D01*
X77783333Y-52426190D01*
X77830952Y-52450000D01*
X77854761Y-52473809D01*
X77878571Y-52521428D01*
X77878571Y-52592857D01*
X77854761Y-52640476D01*
X77830952Y-52664285D01*
X77783333Y-52688095D01*
X77592857Y-52688095D01*
X78354761Y-52926190D02*
X78069047Y-52926190D01*
X78211904Y-52926190D02*
X78211904Y-52426190D01*
X78164285Y-52497619D01*
X78116666Y-52545238D01*
X78069047Y-52569047D01*
X78521428Y-52426190D02*
X78830952Y-52426190D01*
X78664285Y-52616666D01*
X78735714Y-52616666D01*
X78783333Y-52640476D01*
X78807142Y-52664285D01*
X78830952Y-52711904D01*
X78830952Y-52830952D01*
X78807142Y-52878571D01*
X78783333Y-52902380D01*
X78735714Y-52926190D01*
X78592857Y-52926190D01*
X78545238Y-52902380D01*
X78521428Y-52878571D01*
%TO.C,R8*%
X85416666Y-61726190D02*
X85250000Y-61488095D01*
X85130952Y-61726190D02*
X85130952Y-61226190D01*
X85321428Y-61226190D01*
X85369047Y-61250000D01*
X85392857Y-61273809D01*
X85416666Y-61321428D01*
X85416666Y-61392857D01*
X85392857Y-61440476D01*
X85369047Y-61464285D01*
X85321428Y-61488095D01*
X85130952Y-61488095D01*
X85702380Y-61440476D02*
X85654761Y-61416666D01*
X85630952Y-61392857D01*
X85607142Y-61345238D01*
X85607142Y-61321428D01*
X85630952Y-61273809D01*
X85654761Y-61250000D01*
X85702380Y-61226190D01*
X85797619Y-61226190D01*
X85845238Y-61250000D01*
X85869047Y-61273809D01*
X85892857Y-61321428D01*
X85892857Y-61345238D01*
X85869047Y-61392857D01*
X85845238Y-61416666D01*
X85797619Y-61440476D01*
X85702380Y-61440476D01*
X85654761Y-61464285D01*
X85630952Y-61488095D01*
X85607142Y-61535714D01*
X85607142Y-61630952D01*
X85630952Y-61678571D01*
X85654761Y-61702380D01*
X85702380Y-61726190D01*
X85797619Y-61726190D01*
X85845238Y-61702380D01*
X85869047Y-61678571D01*
X85892857Y-61630952D01*
X85892857Y-61535714D01*
X85869047Y-61488095D01*
X85845238Y-61464285D01*
X85797619Y-61440476D01*
%TO.C,C1*%
X97778571Y-54583333D02*
X97802380Y-54607142D01*
X97826190Y-54678571D01*
X97826190Y-54726190D01*
X97802380Y-54797619D01*
X97754761Y-54845238D01*
X97707142Y-54869047D01*
X97611904Y-54892857D01*
X97540476Y-54892857D01*
X97445238Y-54869047D01*
X97397619Y-54845238D01*
X97350000Y-54797619D01*
X97326190Y-54726190D01*
X97326190Y-54678571D01*
X97350000Y-54607142D01*
X97373809Y-54583333D01*
X97826190Y-54107142D02*
X97826190Y-54392857D01*
X97826190Y-54250000D02*
X97326190Y-54250000D01*
X97397619Y-54297619D01*
X97445238Y-54345238D01*
X97469047Y-54392857D01*
%TO.C,C103*%
X33578571Y-39559523D02*
X33602380Y-39583333D01*
X33626190Y-39654761D01*
X33626190Y-39702380D01*
X33602380Y-39773809D01*
X33554761Y-39821428D01*
X33507142Y-39845238D01*
X33411904Y-39869047D01*
X33340476Y-39869047D01*
X33245238Y-39845238D01*
X33197619Y-39821428D01*
X33150000Y-39773809D01*
X33126190Y-39702380D01*
X33126190Y-39654761D01*
X33150000Y-39583333D01*
X33173809Y-39559523D01*
X33626190Y-39083333D02*
X33626190Y-39369047D01*
X33626190Y-39226190D02*
X33126190Y-39226190D01*
X33197619Y-39273809D01*
X33245238Y-39321428D01*
X33269047Y-39369047D01*
X33126190Y-38773809D02*
X33126190Y-38726190D01*
X33150000Y-38678571D01*
X33173809Y-38654761D01*
X33221428Y-38630952D01*
X33316666Y-38607142D01*
X33435714Y-38607142D01*
X33530952Y-38630952D01*
X33578571Y-38654761D01*
X33602380Y-38678571D01*
X33626190Y-38726190D01*
X33626190Y-38773809D01*
X33602380Y-38821428D01*
X33578571Y-38845238D01*
X33530952Y-38869047D01*
X33435714Y-38892857D01*
X33316666Y-38892857D01*
X33221428Y-38869047D01*
X33173809Y-38845238D01*
X33150000Y-38821428D01*
X33126190Y-38773809D01*
X33126190Y-38440476D02*
X33126190Y-38130952D01*
X33316666Y-38297619D01*
X33316666Y-38226190D01*
X33340476Y-38178571D01*
X33364285Y-38154761D01*
X33411904Y-38130952D01*
X33530952Y-38130952D01*
X33578571Y-38154761D01*
X33602380Y-38178571D01*
X33626190Y-38226190D01*
X33626190Y-38369047D01*
X33602380Y-38416666D01*
X33578571Y-38440476D01*
%TO.C,R26*%
X41618571Y-58626190D02*
X41451904Y-58388095D01*
X41332857Y-58626190D02*
X41332857Y-58126190D01*
X41523333Y-58126190D01*
X41570952Y-58150000D01*
X41594761Y-58173809D01*
X41618571Y-58221428D01*
X41618571Y-58292857D01*
X41594761Y-58340476D01*
X41570952Y-58364285D01*
X41523333Y-58388095D01*
X41332857Y-58388095D01*
X41809047Y-58173809D02*
X41832857Y-58150000D01*
X41880476Y-58126190D01*
X41999523Y-58126190D01*
X42047142Y-58150000D01*
X42070952Y-58173809D01*
X42094761Y-58221428D01*
X42094761Y-58269047D01*
X42070952Y-58340476D01*
X41785238Y-58626190D01*
X42094761Y-58626190D01*
X42523333Y-58126190D02*
X42428095Y-58126190D01*
X42380476Y-58150000D01*
X42356666Y-58173809D01*
X42309047Y-58245238D01*
X42285238Y-58340476D01*
X42285238Y-58530952D01*
X42309047Y-58578571D01*
X42332857Y-58602380D01*
X42380476Y-58626190D01*
X42475714Y-58626190D01*
X42523333Y-58602380D01*
X42547142Y-58578571D01*
X42570952Y-58530952D01*
X42570952Y-58411904D01*
X42547142Y-58364285D01*
X42523333Y-58340476D01*
X42475714Y-58316666D01*
X42380476Y-58316666D01*
X42332857Y-58340476D01*
X42309047Y-58364285D01*
X42285238Y-58411904D01*
%TO.C,FB2*%
X51514285Y-52916666D02*
X51514285Y-53083333D01*
X51776190Y-53083333D02*
X51276190Y-53083333D01*
X51276190Y-52845238D01*
X51514285Y-52488095D02*
X51538095Y-52416666D01*
X51561904Y-52392857D01*
X51609523Y-52369047D01*
X51680952Y-52369047D01*
X51728571Y-52392857D01*
X51752380Y-52416666D01*
X51776190Y-52464285D01*
X51776190Y-52654761D01*
X51276190Y-52654761D01*
X51276190Y-52488095D01*
X51300000Y-52440476D01*
X51323809Y-52416666D01*
X51371428Y-52392857D01*
X51419047Y-52392857D01*
X51466666Y-52416666D01*
X51490476Y-52440476D01*
X51514285Y-52488095D01*
X51514285Y-52654761D01*
X51323809Y-52178571D02*
X51300000Y-52154761D01*
X51276190Y-52107142D01*
X51276190Y-51988095D01*
X51300000Y-51940476D01*
X51323809Y-51916666D01*
X51371428Y-51892857D01*
X51419047Y-51892857D01*
X51490476Y-51916666D01*
X51776190Y-52202380D01*
X51776190Y-51892857D01*
%TO.C,C7*%
X51728571Y-56658333D02*
X51752380Y-56682142D01*
X51776190Y-56753571D01*
X51776190Y-56801190D01*
X51752380Y-56872619D01*
X51704761Y-56920238D01*
X51657142Y-56944047D01*
X51561904Y-56967857D01*
X51490476Y-56967857D01*
X51395238Y-56944047D01*
X51347619Y-56920238D01*
X51300000Y-56872619D01*
X51276190Y-56801190D01*
X51276190Y-56753571D01*
X51300000Y-56682142D01*
X51323809Y-56658333D01*
X51276190Y-56491666D02*
X51276190Y-56158333D01*
X51776190Y-56372619D01*
%TO.C,Y101*%
X29085714Y-38388095D02*
X29085714Y-38626190D01*
X28919047Y-38126190D02*
X29085714Y-38388095D01*
X29252380Y-38126190D01*
X29680952Y-38626190D02*
X29395238Y-38626190D01*
X29538095Y-38626190D02*
X29538095Y-38126190D01*
X29490476Y-38197619D01*
X29442857Y-38245238D01*
X29395238Y-38269047D01*
X29990476Y-38126190D02*
X30038095Y-38126190D01*
X30085714Y-38150000D01*
X30109523Y-38173809D01*
X30133333Y-38221428D01*
X30157142Y-38316666D01*
X30157142Y-38435714D01*
X30133333Y-38530952D01*
X30109523Y-38578571D01*
X30085714Y-38602380D01*
X30038095Y-38626190D01*
X29990476Y-38626190D01*
X29942857Y-38602380D01*
X29919047Y-38578571D01*
X29895238Y-38530952D01*
X29871428Y-38435714D01*
X29871428Y-38316666D01*
X29895238Y-38221428D01*
X29919047Y-38173809D01*
X29942857Y-38150000D01*
X29990476Y-38126190D01*
X30633333Y-38626190D02*
X30347619Y-38626190D01*
X30490476Y-38626190D02*
X30490476Y-38126190D01*
X30442857Y-38197619D01*
X30395238Y-38245238D01*
X30347619Y-38269047D01*
%TO.C,R24*%
X68478571Y-47826190D02*
X68311904Y-47588095D01*
X68192857Y-47826190D02*
X68192857Y-47326190D01*
X68383333Y-47326190D01*
X68430952Y-47350000D01*
X68454761Y-47373809D01*
X68478571Y-47421428D01*
X68478571Y-47492857D01*
X68454761Y-47540476D01*
X68430952Y-47564285D01*
X68383333Y-47588095D01*
X68192857Y-47588095D01*
X68669047Y-47373809D02*
X68692857Y-47350000D01*
X68740476Y-47326190D01*
X68859523Y-47326190D01*
X68907142Y-47350000D01*
X68930952Y-47373809D01*
X68954761Y-47421428D01*
X68954761Y-47469047D01*
X68930952Y-47540476D01*
X68645238Y-47826190D01*
X68954761Y-47826190D01*
X69383333Y-47492857D02*
X69383333Y-47826190D01*
X69264285Y-47302380D02*
X69145238Y-47659523D01*
X69454761Y-47659523D01*
%TO.C,R11*%
X71626190Y-51721428D02*
X71388095Y-51888095D01*
X71626190Y-52007142D02*
X71126190Y-52007142D01*
X71126190Y-51816666D01*
X71150000Y-51769047D01*
X71173809Y-51745238D01*
X71221428Y-51721428D01*
X71292857Y-51721428D01*
X71340476Y-51745238D01*
X71364285Y-51769047D01*
X71388095Y-51816666D01*
X71388095Y-52007142D01*
X71626190Y-51245238D02*
X71626190Y-51530952D01*
X71626190Y-51388095D02*
X71126190Y-51388095D01*
X71197619Y-51435714D01*
X71245238Y-51483333D01*
X71269047Y-51530952D01*
X71626190Y-50769047D02*
X71626190Y-51054761D01*
X71626190Y-50911904D02*
X71126190Y-50911904D01*
X71197619Y-50959523D01*
X71245238Y-51007142D01*
X71269047Y-51054761D01*
%TO.C,C201*%
X117478571Y-30559523D02*
X117502380Y-30583333D01*
X117526190Y-30654761D01*
X117526190Y-30702380D01*
X117502380Y-30773809D01*
X117454761Y-30821428D01*
X117407142Y-30845238D01*
X117311904Y-30869047D01*
X117240476Y-30869047D01*
X117145238Y-30845238D01*
X117097619Y-30821428D01*
X117050000Y-30773809D01*
X117026190Y-30702380D01*
X117026190Y-30654761D01*
X117050000Y-30583333D01*
X117073809Y-30559523D01*
X117073809Y-30369047D02*
X117050000Y-30345238D01*
X117026190Y-30297619D01*
X117026190Y-30178571D01*
X117050000Y-30130952D01*
X117073809Y-30107142D01*
X117121428Y-30083333D01*
X117169047Y-30083333D01*
X117240476Y-30107142D01*
X117526190Y-30392857D01*
X117526190Y-30083333D01*
X117026190Y-29773809D02*
X117026190Y-29726190D01*
X117050000Y-29678571D01*
X117073809Y-29654761D01*
X117121428Y-29630952D01*
X117216666Y-29607142D01*
X117335714Y-29607142D01*
X117430952Y-29630952D01*
X117478571Y-29654761D01*
X117502380Y-29678571D01*
X117526190Y-29726190D01*
X117526190Y-29773809D01*
X117502380Y-29821428D01*
X117478571Y-29845238D01*
X117430952Y-29869047D01*
X117335714Y-29892857D01*
X117216666Y-29892857D01*
X117121428Y-29869047D01*
X117073809Y-29845238D01*
X117050000Y-29821428D01*
X117026190Y-29773809D01*
X117526190Y-29130952D02*
X117526190Y-29416666D01*
X117526190Y-29273809D02*
X117026190Y-29273809D01*
X117097619Y-29321428D01*
X117145238Y-29369047D01*
X117169047Y-29416666D01*
%TO.C,R103*%
X40126190Y-45459523D02*
X39888095Y-45626190D01*
X40126190Y-45745238D02*
X39626190Y-45745238D01*
X39626190Y-45554761D01*
X39650000Y-45507142D01*
X39673809Y-45483333D01*
X39721428Y-45459523D01*
X39792857Y-45459523D01*
X39840476Y-45483333D01*
X39864285Y-45507142D01*
X39888095Y-45554761D01*
X39888095Y-45745238D01*
X40126190Y-44983333D02*
X40126190Y-45269047D01*
X40126190Y-45126190D02*
X39626190Y-45126190D01*
X39697619Y-45173809D01*
X39745238Y-45221428D01*
X39769047Y-45269047D01*
X39626190Y-44673809D02*
X39626190Y-44626190D01*
X39650000Y-44578571D01*
X39673809Y-44554761D01*
X39721428Y-44530952D01*
X39816666Y-44507142D01*
X39935714Y-44507142D01*
X40030952Y-44530952D01*
X40078571Y-44554761D01*
X40102380Y-44578571D01*
X40126190Y-44626190D01*
X40126190Y-44673809D01*
X40102380Y-44721428D01*
X40078571Y-44745238D01*
X40030952Y-44769047D01*
X39935714Y-44792857D01*
X39816666Y-44792857D01*
X39721428Y-44769047D01*
X39673809Y-44745238D01*
X39650000Y-44721428D01*
X39626190Y-44673809D01*
X39626190Y-44340476D02*
X39626190Y-44030952D01*
X39816666Y-44197619D01*
X39816666Y-44126190D01*
X39840476Y-44078571D01*
X39864285Y-44054761D01*
X39911904Y-44030952D01*
X40030952Y-44030952D01*
X40078571Y-44054761D01*
X40102380Y-44078571D01*
X40126190Y-44126190D01*
X40126190Y-44269047D01*
X40102380Y-44316666D01*
X40078571Y-44340476D01*
%TO.C,J2*%
X31433333Y-65026190D02*
X31433333Y-65383333D01*
X31409523Y-65454761D01*
X31361904Y-65502380D01*
X31290476Y-65526190D01*
X31242857Y-65526190D01*
X31647619Y-65073809D02*
X31671428Y-65050000D01*
X31719047Y-65026190D01*
X31838095Y-65026190D01*
X31885714Y-65050000D01*
X31909523Y-65073809D01*
X31933333Y-65121428D01*
X31933333Y-65169047D01*
X31909523Y-65240476D01*
X31623809Y-65526190D01*
X31933333Y-65526190D01*
%TO.C,C9*%
X63278571Y-56583333D02*
X63302380Y-56607142D01*
X63326190Y-56678571D01*
X63326190Y-56726190D01*
X63302380Y-56797619D01*
X63254761Y-56845238D01*
X63207142Y-56869047D01*
X63111904Y-56892857D01*
X63040476Y-56892857D01*
X62945238Y-56869047D01*
X62897619Y-56845238D01*
X62850000Y-56797619D01*
X62826190Y-56726190D01*
X62826190Y-56678571D01*
X62850000Y-56607142D01*
X62873809Y-56583333D01*
X63326190Y-56345238D02*
X63326190Y-56250000D01*
X63302380Y-56202380D01*
X63278571Y-56178571D01*
X63207142Y-56130952D01*
X63111904Y-56107142D01*
X62921428Y-56107142D01*
X62873809Y-56130952D01*
X62850000Y-56154761D01*
X62826190Y-56202380D01*
X62826190Y-56297619D01*
X62850000Y-56345238D01*
X62873809Y-56369047D01*
X62921428Y-56392857D01*
X63040476Y-56392857D01*
X63088095Y-56369047D01*
X63111904Y-56345238D01*
X63135714Y-56297619D01*
X63135714Y-56202380D01*
X63111904Y-56154761D01*
X63088095Y-56130952D01*
X63040476Y-56107142D01*
%TO.C,R102*%
X47440476Y-52901190D02*
X47273809Y-52663095D01*
X47154761Y-52901190D02*
X47154761Y-52401190D01*
X47345238Y-52401190D01*
X47392857Y-52425000D01*
X47416666Y-52448809D01*
X47440476Y-52496428D01*
X47440476Y-52567857D01*
X47416666Y-52615476D01*
X47392857Y-52639285D01*
X47345238Y-52663095D01*
X47154761Y-52663095D01*
X47916666Y-52901190D02*
X47630952Y-52901190D01*
X47773809Y-52901190D02*
X47773809Y-52401190D01*
X47726190Y-52472619D01*
X47678571Y-52520238D01*
X47630952Y-52544047D01*
X48226190Y-52401190D02*
X48273809Y-52401190D01*
X48321428Y-52425000D01*
X48345238Y-52448809D01*
X48369047Y-52496428D01*
X48392857Y-52591666D01*
X48392857Y-52710714D01*
X48369047Y-52805952D01*
X48345238Y-52853571D01*
X48321428Y-52877380D01*
X48273809Y-52901190D01*
X48226190Y-52901190D01*
X48178571Y-52877380D01*
X48154761Y-52853571D01*
X48130952Y-52805952D01*
X48107142Y-52710714D01*
X48107142Y-52591666D01*
X48130952Y-52496428D01*
X48154761Y-52448809D01*
X48178571Y-52425000D01*
X48226190Y-52401190D01*
X48583333Y-52448809D02*
X48607142Y-52425000D01*
X48654761Y-52401190D01*
X48773809Y-52401190D01*
X48821428Y-52425000D01*
X48845238Y-52448809D01*
X48869047Y-52496428D01*
X48869047Y-52544047D01*
X48845238Y-52615476D01*
X48559523Y-52901190D01*
X48869047Y-52901190D01*
%TO.C,R6*%
X91716666Y-68226190D02*
X91550000Y-67988095D01*
X91430952Y-68226190D02*
X91430952Y-67726190D01*
X91621428Y-67726190D01*
X91669047Y-67750000D01*
X91692857Y-67773809D01*
X91716666Y-67821428D01*
X91716666Y-67892857D01*
X91692857Y-67940476D01*
X91669047Y-67964285D01*
X91621428Y-67988095D01*
X91430952Y-67988095D01*
X92145238Y-67726190D02*
X92050000Y-67726190D01*
X92002380Y-67750000D01*
X91978571Y-67773809D01*
X91930952Y-67845238D01*
X91907142Y-67940476D01*
X91907142Y-68130952D01*
X91930952Y-68178571D01*
X91954761Y-68202380D01*
X92002380Y-68226190D01*
X92097619Y-68226190D01*
X92145238Y-68202380D01*
X92169047Y-68178571D01*
X92192857Y-68130952D01*
X92192857Y-68011904D01*
X92169047Y-67964285D01*
X92145238Y-67940476D01*
X92097619Y-67916666D01*
X92002380Y-67916666D01*
X91954761Y-67940476D01*
X91930952Y-67964285D01*
X91907142Y-68011904D01*
%TO.C,R25*%
X66278571Y-45901190D02*
X66111904Y-45663095D01*
X65992857Y-45901190D02*
X65992857Y-45401190D01*
X66183333Y-45401190D01*
X66230952Y-45425000D01*
X66254761Y-45448809D01*
X66278571Y-45496428D01*
X66278571Y-45567857D01*
X66254761Y-45615476D01*
X66230952Y-45639285D01*
X66183333Y-45663095D01*
X65992857Y-45663095D01*
X66469047Y-45448809D02*
X66492857Y-45425000D01*
X66540476Y-45401190D01*
X66659523Y-45401190D01*
X66707142Y-45425000D01*
X66730952Y-45448809D01*
X66754761Y-45496428D01*
X66754761Y-45544047D01*
X66730952Y-45615476D01*
X66445238Y-45901190D01*
X66754761Y-45901190D01*
X67207142Y-45401190D02*
X66969047Y-45401190D01*
X66945238Y-45639285D01*
X66969047Y-45615476D01*
X67016666Y-45591666D01*
X67135714Y-45591666D01*
X67183333Y-45615476D01*
X67207142Y-45639285D01*
X67230952Y-45686904D01*
X67230952Y-45805952D01*
X67207142Y-45853571D01*
X67183333Y-45877380D01*
X67135714Y-45901190D01*
X67016666Y-45901190D01*
X66969047Y-45877380D01*
X66945238Y-45853571D01*
%TO.C,C3*%
X56478571Y-54583333D02*
X56502380Y-54607142D01*
X56526190Y-54678571D01*
X56526190Y-54726190D01*
X56502380Y-54797619D01*
X56454761Y-54845238D01*
X56407142Y-54869047D01*
X56311904Y-54892857D01*
X56240476Y-54892857D01*
X56145238Y-54869047D01*
X56097619Y-54845238D01*
X56050000Y-54797619D01*
X56026190Y-54726190D01*
X56026190Y-54678571D01*
X56050000Y-54607142D01*
X56073809Y-54583333D01*
X56026190Y-54416666D02*
X56026190Y-54107142D01*
X56216666Y-54273809D01*
X56216666Y-54202380D01*
X56240476Y-54154761D01*
X56264285Y-54130952D01*
X56311904Y-54107142D01*
X56430952Y-54107142D01*
X56478571Y-54130952D01*
X56502380Y-54154761D01*
X56526190Y-54202380D01*
X56526190Y-54345238D01*
X56502380Y-54392857D01*
X56478571Y-54416666D01*
%TO.C,R12*%
X68378571Y-56226190D02*
X68211904Y-55988095D01*
X68092857Y-56226190D02*
X68092857Y-55726190D01*
X68283333Y-55726190D01*
X68330952Y-55750000D01*
X68354761Y-55773809D01*
X68378571Y-55821428D01*
X68378571Y-55892857D01*
X68354761Y-55940476D01*
X68330952Y-55964285D01*
X68283333Y-55988095D01*
X68092857Y-55988095D01*
X68854761Y-56226190D02*
X68569047Y-56226190D01*
X68711904Y-56226190D02*
X68711904Y-55726190D01*
X68664285Y-55797619D01*
X68616666Y-55845238D01*
X68569047Y-55869047D01*
X69045238Y-55773809D02*
X69069047Y-55750000D01*
X69116666Y-55726190D01*
X69235714Y-55726190D01*
X69283333Y-55750000D01*
X69307142Y-55773809D01*
X69330952Y-55821428D01*
X69330952Y-55869047D01*
X69307142Y-55940476D01*
X69021428Y-56226190D01*
X69330952Y-56226190D01*
%TO.C,C6*%
X56478571Y-63058333D02*
X56502380Y-63082142D01*
X56526190Y-63153571D01*
X56526190Y-63201190D01*
X56502380Y-63272619D01*
X56454761Y-63320238D01*
X56407142Y-63344047D01*
X56311904Y-63367857D01*
X56240476Y-63367857D01*
X56145238Y-63344047D01*
X56097619Y-63320238D01*
X56050000Y-63272619D01*
X56026190Y-63201190D01*
X56026190Y-63153571D01*
X56050000Y-63082142D01*
X56073809Y-63058333D01*
X56026190Y-62629761D02*
X56026190Y-62725000D01*
X56050000Y-62772619D01*
X56073809Y-62796428D01*
X56145238Y-62844047D01*
X56240476Y-62867857D01*
X56430952Y-62867857D01*
X56478571Y-62844047D01*
X56502380Y-62820238D01*
X56526190Y-62772619D01*
X56526190Y-62677380D01*
X56502380Y-62629761D01*
X56478571Y-62605952D01*
X56430952Y-62582142D01*
X56311904Y-62582142D01*
X56264285Y-62605952D01*
X56240476Y-62629761D01*
X56216666Y-62677380D01*
X56216666Y-62772619D01*
X56240476Y-62820238D01*
X56264285Y-62844047D01*
X56311904Y-62867857D01*
D12*
%TO.C,J201*%
X121689285Y-33022380D02*
X121689285Y-33736666D01*
X121641666Y-33879523D01*
X121546428Y-33974761D01*
X121403571Y-34022380D01*
X121308333Y-34022380D01*
X122117857Y-33117619D02*
X122165476Y-33070000D01*
X122260714Y-33022380D01*
X122498809Y-33022380D01*
X122594047Y-33070000D01*
X122641666Y-33117619D01*
X122689285Y-33212857D01*
X122689285Y-33308095D01*
X122641666Y-33450952D01*
X122070238Y-34022380D01*
X122689285Y-34022380D01*
X123308333Y-33022380D02*
X123403571Y-33022380D01*
X123498809Y-33070000D01*
X123546428Y-33117619D01*
X123594047Y-33212857D01*
X123641666Y-33403333D01*
X123641666Y-33641428D01*
X123594047Y-33831904D01*
X123546428Y-33927142D01*
X123498809Y-33974761D01*
X123403571Y-34022380D01*
X123308333Y-34022380D01*
X123213095Y-33974761D01*
X123165476Y-33927142D01*
X123117857Y-33831904D01*
X123070238Y-33641428D01*
X123070238Y-33403333D01*
X123117857Y-33212857D01*
X123165476Y-33117619D01*
X123213095Y-33070000D01*
X123308333Y-33022380D01*
X124594047Y-34022380D02*
X124022619Y-34022380D01*
X124308333Y-34022380D02*
X124308333Y-33022380D01*
X124213095Y-33165238D01*
X124117857Y-33260476D01*
X124022619Y-33308095D01*
%TO.C,R202*%
X42780952Y-37252380D02*
X42447619Y-36776190D01*
X42209523Y-37252380D02*
X42209523Y-36252380D01*
X42590476Y-36252380D01*
X42685714Y-36300000D01*
X42733333Y-36347619D01*
X42780952Y-36442857D01*
X42780952Y-36585714D01*
X42733333Y-36680952D01*
X42685714Y-36728571D01*
X42590476Y-36776190D01*
X42209523Y-36776190D01*
X43161904Y-36347619D02*
X43209523Y-36300000D01*
X43304761Y-36252380D01*
X43542857Y-36252380D01*
X43638095Y-36300000D01*
X43685714Y-36347619D01*
X43733333Y-36442857D01*
X43733333Y-36538095D01*
X43685714Y-36680952D01*
X43114285Y-37252380D01*
X43733333Y-37252380D01*
X44352380Y-36252380D02*
X44447619Y-36252380D01*
X44542857Y-36300000D01*
X44590476Y-36347619D01*
X44638095Y-36442857D01*
X44685714Y-36633333D01*
X44685714Y-36871428D01*
X44638095Y-37061904D01*
X44590476Y-37157142D01*
X44542857Y-37204761D01*
X44447619Y-37252380D01*
X44352380Y-37252380D01*
X44257142Y-37204761D01*
X44209523Y-37157142D01*
X44161904Y-37061904D01*
X44114285Y-36871428D01*
X44114285Y-36633333D01*
X44161904Y-36442857D01*
X44209523Y-36347619D01*
X44257142Y-36300000D01*
X44352380Y-36252380D01*
X45066666Y-36347619D02*
X45114285Y-36300000D01*
X45209523Y-36252380D01*
X45447619Y-36252380D01*
X45542857Y-36300000D01*
X45590476Y-36347619D01*
X45638095Y-36442857D01*
X45638095Y-36538095D01*
X45590476Y-36680952D01*
X45019047Y-37252380D01*
X45638095Y-37252380D01*
D10*
%TO.C,C5*%
X56478571Y-66758333D02*
X56502380Y-66782142D01*
X56526190Y-66853571D01*
X56526190Y-66901190D01*
X56502380Y-66972619D01*
X56454761Y-67020238D01*
X56407142Y-67044047D01*
X56311904Y-67067857D01*
X56240476Y-67067857D01*
X56145238Y-67044047D01*
X56097619Y-67020238D01*
X56050000Y-66972619D01*
X56026190Y-66901190D01*
X56026190Y-66853571D01*
X56050000Y-66782142D01*
X56073809Y-66758333D01*
X56026190Y-66305952D02*
X56026190Y-66544047D01*
X56264285Y-66567857D01*
X56240476Y-66544047D01*
X56216666Y-66496428D01*
X56216666Y-66377380D01*
X56240476Y-66329761D01*
X56264285Y-66305952D01*
X56311904Y-66282142D01*
X56430952Y-66282142D01*
X56478571Y-66305952D01*
X56502380Y-66329761D01*
X56526190Y-66377380D01*
X56526190Y-66496428D01*
X56502380Y-66544047D01*
X56478571Y-66567857D01*
%TO.C,C104*%
X34878571Y-45659523D02*
X34902380Y-45683333D01*
X34926190Y-45754761D01*
X34926190Y-45802380D01*
X34902380Y-45873809D01*
X34854761Y-45921428D01*
X34807142Y-45945238D01*
X34711904Y-45969047D01*
X34640476Y-45969047D01*
X34545238Y-45945238D01*
X34497619Y-45921428D01*
X34450000Y-45873809D01*
X34426190Y-45802380D01*
X34426190Y-45754761D01*
X34450000Y-45683333D01*
X34473809Y-45659523D01*
X34926190Y-45183333D02*
X34926190Y-45469047D01*
X34926190Y-45326190D02*
X34426190Y-45326190D01*
X34497619Y-45373809D01*
X34545238Y-45421428D01*
X34569047Y-45469047D01*
X34426190Y-44873809D02*
X34426190Y-44826190D01*
X34450000Y-44778571D01*
X34473809Y-44754761D01*
X34521428Y-44730952D01*
X34616666Y-44707142D01*
X34735714Y-44707142D01*
X34830952Y-44730952D01*
X34878571Y-44754761D01*
X34902380Y-44778571D01*
X34926190Y-44826190D01*
X34926190Y-44873809D01*
X34902380Y-44921428D01*
X34878571Y-44945238D01*
X34830952Y-44969047D01*
X34735714Y-44992857D01*
X34616666Y-44992857D01*
X34521428Y-44969047D01*
X34473809Y-44945238D01*
X34450000Y-44921428D01*
X34426190Y-44873809D01*
X34592857Y-44278571D02*
X34926190Y-44278571D01*
X34402380Y-44397619D02*
X34759523Y-44516666D01*
X34759523Y-44207142D01*
%TO.C,C8*%
X44078571Y-61883333D02*
X44102380Y-61907142D01*
X44126190Y-61978571D01*
X44126190Y-62026190D01*
X44102380Y-62097619D01*
X44054761Y-62145238D01*
X44007142Y-62169047D01*
X43911904Y-62192857D01*
X43840476Y-62192857D01*
X43745238Y-62169047D01*
X43697619Y-62145238D01*
X43650000Y-62097619D01*
X43626190Y-62026190D01*
X43626190Y-61978571D01*
X43650000Y-61907142D01*
X43673809Y-61883333D01*
X43840476Y-61597619D02*
X43816666Y-61645238D01*
X43792857Y-61669047D01*
X43745238Y-61692857D01*
X43721428Y-61692857D01*
X43673809Y-61669047D01*
X43650000Y-61645238D01*
X43626190Y-61597619D01*
X43626190Y-61502380D01*
X43650000Y-61454761D01*
X43673809Y-61430952D01*
X43721428Y-61407142D01*
X43745238Y-61407142D01*
X43792857Y-61430952D01*
X43816666Y-61454761D01*
X43840476Y-61502380D01*
X43840476Y-61597619D01*
X43864285Y-61645238D01*
X43888095Y-61669047D01*
X43935714Y-61692857D01*
X44030952Y-61692857D01*
X44078571Y-61669047D01*
X44102380Y-61645238D01*
X44126190Y-61597619D01*
X44126190Y-61502380D01*
X44102380Y-61454761D01*
X44078571Y-61430952D01*
X44030952Y-61407142D01*
X43935714Y-61407142D01*
X43888095Y-61430952D01*
X43864285Y-61454761D01*
X43840476Y-61502380D01*
%TO.C,J102*%
X32426190Y-32142857D02*
X32783333Y-32142857D01*
X32854761Y-32166666D01*
X32902380Y-32214285D01*
X32926190Y-32285714D01*
X32926190Y-32333333D01*
X32926190Y-31642857D02*
X32926190Y-31928571D01*
X32926190Y-31785714D02*
X32426190Y-31785714D01*
X32497619Y-31833333D01*
X32545238Y-31880952D01*
X32569047Y-31928571D01*
X32426190Y-31333333D02*
X32426190Y-31285714D01*
X32450000Y-31238095D01*
X32473809Y-31214285D01*
X32521428Y-31190476D01*
X32616666Y-31166666D01*
X32735714Y-31166666D01*
X32830952Y-31190476D01*
X32878571Y-31214285D01*
X32902380Y-31238095D01*
X32926190Y-31285714D01*
X32926190Y-31333333D01*
X32902380Y-31380952D01*
X32878571Y-31404761D01*
X32830952Y-31428571D01*
X32735714Y-31452380D01*
X32616666Y-31452380D01*
X32521428Y-31428571D01*
X32473809Y-31404761D01*
X32450000Y-31380952D01*
X32426190Y-31333333D01*
X32473809Y-30976190D02*
X32450000Y-30952380D01*
X32426190Y-30904761D01*
X32426190Y-30785714D01*
X32450000Y-30738095D01*
X32473809Y-30714285D01*
X32521428Y-30690476D01*
X32569047Y-30690476D01*
X32640476Y-30714285D01*
X32926190Y-31000000D01*
X32926190Y-30690476D01*
%TO.C,U103*%
X33076190Y-42257142D02*
X33480952Y-42257142D01*
X33528571Y-42233333D01*
X33552380Y-42209523D01*
X33576190Y-42161904D01*
X33576190Y-42066666D01*
X33552380Y-42019047D01*
X33528571Y-41995238D01*
X33480952Y-41971428D01*
X33076190Y-41971428D01*
X33576190Y-41471428D02*
X33576190Y-41757142D01*
X33576190Y-41614285D02*
X33076190Y-41614285D01*
X33147619Y-41661904D01*
X33195238Y-41709523D01*
X33219047Y-41757142D01*
X33076190Y-41161904D02*
X33076190Y-41114285D01*
X33100000Y-41066666D01*
X33123809Y-41042857D01*
X33171428Y-41019047D01*
X33266666Y-40995238D01*
X33385714Y-40995238D01*
X33480952Y-41019047D01*
X33528571Y-41042857D01*
X33552380Y-41066666D01*
X33576190Y-41114285D01*
X33576190Y-41161904D01*
X33552380Y-41209523D01*
X33528571Y-41233333D01*
X33480952Y-41257142D01*
X33385714Y-41280952D01*
X33266666Y-41280952D01*
X33171428Y-41257142D01*
X33123809Y-41233333D01*
X33100000Y-41209523D01*
X33076190Y-41161904D01*
X33076190Y-40828571D02*
X33076190Y-40519047D01*
X33266666Y-40685714D01*
X33266666Y-40614285D01*
X33290476Y-40566666D01*
X33314285Y-40542857D01*
X33361904Y-40519047D01*
X33480952Y-40519047D01*
X33528571Y-40542857D01*
X33552380Y-40566666D01*
X33576190Y-40614285D01*
X33576190Y-40757142D01*
X33552380Y-40804761D01*
X33528571Y-40828571D01*
%TO.C,C17*%
X97778571Y-61021428D02*
X97802380Y-61045238D01*
X97826190Y-61116666D01*
X97826190Y-61164285D01*
X97802380Y-61235714D01*
X97754761Y-61283333D01*
X97707142Y-61307142D01*
X97611904Y-61330952D01*
X97540476Y-61330952D01*
X97445238Y-61307142D01*
X97397619Y-61283333D01*
X97350000Y-61235714D01*
X97326190Y-61164285D01*
X97326190Y-61116666D01*
X97350000Y-61045238D01*
X97373809Y-61021428D01*
X97826190Y-60545238D02*
X97826190Y-60830952D01*
X97826190Y-60688095D02*
X97326190Y-60688095D01*
X97397619Y-60735714D01*
X97445238Y-60783333D01*
X97469047Y-60830952D01*
X97326190Y-60378571D02*
X97326190Y-60045238D01*
X97826190Y-60259523D01*
%TO.C,C16*%
X79578571Y-51721428D02*
X79602380Y-51745238D01*
X79626190Y-51816666D01*
X79626190Y-51864285D01*
X79602380Y-51935714D01*
X79554761Y-51983333D01*
X79507142Y-52007142D01*
X79411904Y-52030952D01*
X79340476Y-52030952D01*
X79245238Y-52007142D01*
X79197619Y-51983333D01*
X79150000Y-51935714D01*
X79126190Y-51864285D01*
X79126190Y-51816666D01*
X79150000Y-51745238D01*
X79173809Y-51721428D01*
X79626190Y-51245238D02*
X79626190Y-51530952D01*
X79626190Y-51388095D02*
X79126190Y-51388095D01*
X79197619Y-51435714D01*
X79245238Y-51483333D01*
X79269047Y-51530952D01*
X79126190Y-50816666D02*
X79126190Y-50911904D01*
X79150000Y-50959523D01*
X79173809Y-50983333D01*
X79245238Y-51030952D01*
X79340476Y-51054761D01*
X79530952Y-51054761D01*
X79578571Y-51030952D01*
X79602380Y-51007142D01*
X79626190Y-50959523D01*
X79626190Y-50864285D01*
X79602380Y-50816666D01*
X79578571Y-50792857D01*
X79530952Y-50769047D01*
X79411904Y-50769047D01*
X79364285Y-50792857D01*
X79340476Y-50816666D01*
X79316666Y-50864285D01*
X79316666Y-50959523D01*
X79340476Y-51007142D01*
X79364285Y-51030952D01*
X79411904Y-51054761D01*
%TO.C,U2*%
X46219047Y-57001190D02*
X46219047Y-57405952D01*
X46242857Y-57453571D01*
X46266666Y-57477380D01*
X46314285Y-57501190D01*
X46409523Y-57501190D01*
X46457142Y-57477380D01*
X46480952Y-57453571D01*
X46504761Y-57405952D01*
X46504761Y-57001190D01*
X46719047Y-57048809D02*
X46742857Y-57025000D01*
X46790476Y-57001190D01*
X46909523Y-57001190D01*
X46957142Y-57025000D01*
X46980952Y-57048809D01*
X47004761Y-57096428D01*
X47004761Y-57144047D01*
X46980952Y-57215476D01*
X46695238Y-57501190D01*
X47004761Y-57501190D01*
%TO.C,FB1*%
X43964285Y-55766666D02*
X43964285Y-55933333D01*
X44226190Y-55933333D02*
X43726190Y-55933333D01*
X43726190Y-55695238D01*
X43964285Y-55338095D02*
X43988095Y-55266666D01*
X44011904Y-55242857D01*
X44059523Y-55219047D01*
X44130952Y-55219047D01*
X44178571Y-55242857D01*
X44202380Y-55266666D01*
X44226190Y-55314285D01*
X44226190Y-55504761D01*
X43726190Y-55504761D01*
X43726190Y-55338095D01*
X43750000Y-55290476D01*
X43773809Y-55266666D01*
X43821428Y-55242857D01*
X43869047Y-55242857D01*
X43916666Y-55266666D01*
X43940476Y-55290476D01*
X43964285Y-55338095D01*
X43964285Y-55504761D01*
X44226190Y-54742857D02*
X44226190Y-55028571D01*
X44226190Y-54885714D02*
X43726190Y-54885714D01*
X43797619Y-54933333D01*
X43845238Y-54980952D01*
X43869047Y-55028571D01*
%TO.C,C19*%
X93740548Y-65478571D02*
X93716738Y-65502380D01*
X93645310Y-65526190D01*
X93597691Y-65526190D01*
X93526262Y-65502380D01*
X93478643Y-65454761D01*
X93454834Y-65407142D01*
X93431024Y-65311904D01*
X93431024Y-65240476D01*
X93454834Y-65145238D01*
X93478643Y-65097619D01*
X93526262Y-65050000D01*
X93597691Y-65026190D01*
X93645310Y-65026190D01*
X93716738Y-65050000D01*
X93740548Y-65073809D01*
X94216738Y-65526190D02*
X93931024Y-65526190D01*
X94073881Y-65526190D02*
X94073881Y-65026190D01*
X94026262Y-65097619D01*
X93978643Y-65145238D01*
X93931024Y-65169047D01*
X94454834Y-65526190D02*
X94550072Y-65526190D01*
X94597691Y-65502380D01*
X94621500Y-65478571D01*
X94669119Y-65407142D01*
X94692929Y-65311904D01*
X94692929Y-65121428D01*
X94669119Y-65073809D01*
X94645310Y-65050000D01*
X94597691Y-65026190D01*
X94502453Y-65026190D01*
X94454834Y-65050000D01*
X94431024Y-65073809D01*
X94407215Y-65121428D01*
X94407215Y-65240476D01*
X94431024Y-65288095D01*
X94454834Y-65311904D01*
X94502453Y-65335714D01*
X94597691Y-65335714D01*
X94645310Y-65311904D01*
X94669119Y-65288095D01*
X94692929Y-65240476D01*
%TO.C,U201*%
X103242857Y-34126190D02*
X103242857Y-34530952D01*
X103266666Y-34578571D01*
X103290476Y-34602380D01*
X103338095Y-34626190D01*
X103433333Y-34626190D01*
X103480952Y-34602380D01*
X103504761Y-34578571D01*
X103528571Y-34530952D01*
X103528571Y-34126190D01*
X103742857Y-34173809D02*
X103766666Y-34150000D01*
X103814285Y-34126190D01*
X103933333Y-34126190D01*
X103980952Y-34150000D01*
X104004761Y-34173809D01*
X104028571Y-34221428D01*
X104028571Y-34269047D01*
X104004761Y-34340476D01*
X103719047Y-34626190D01*
X104028571Y-34626190D01*
X104338095Y-34126190D02*
X104385714Y-34126190D01*
X104433333Y-34150000D01*
X104457142Y-34173809D01*
X104480952Y-34221428D01*
X104504761Y-34316666D01*
X104504761Y-34435714D01*
X104480952Y-34530952D01*
X104457142Y-34578571D01*
X104433333Y-34602380D01*
X104385714Y-34626190D01*
X104338095Y-34626190D01*
X104290476Y-34602380D01*
X104266666Y-34578571D01*
X104242857Y-34530952D01*
X104219047Y-34435714D01*
X104219047Y-34316666D01*
X104242857Y-34221428D01*
X104266666Y-34173809D01*
X104290476Y-34150000D01*
X104338095Y-34126190D01*
X104980952Y-34626190D02*
X104695238Y-34626190D01*
X104838095Y-34626190D02*
X104838095Y-34126190D01*
X104790476Y-34197619D01*
X104742857Y-34245238D01*
X104695238Y-34269047D01*
%TO.C,C13*%
X70678571Y-47678571D02*
X70654761Y-47702380D01*
X70583333Y-47726190D01*
X70535714Y-47726190D01*
X70464285Y-47702380D01*
X70416666Y-47654761D01*
X70392857Y-47607142D01*
X70369047Y-47511904D01*
X70369047Y-47440476D01*
X70392857Y-47345238D01*
X70416666Y-47297619D01*
X70464285Y-47250000D01*
X70535714Y-47226190D01*
X70583333Y-47226190D01*
X70654761Y-47250000D01*
X70678571Y-47273809D01*
X71154761Y-47726190D02*
X70869047Y-47726190D01*
X71011904Y-47726190D02*
X71011904Y-47226190D01*
X70964285Y-47297619D01*
X70916666Y-47345238D01*
X70869047Y-47369047D01*
X71321428Y-47226190D02*
X71630952Y-47226190D01*
X71464285Y-47416666D01*
X71535714Y-47416666D01*
X71583333Y-47440476D01*
X71607142Y-47464285D01*
X71630952Y-47511904D01*
X71630952Y-47630952D01*
X71607142Y-47678571D01*
X71583333Y-47702380D01*
X71535714Y-47726190D01*
X71392857Y-47726190D01*
X71345238Y-47702380D01*
X71321428Y-47678571D01*
%TO.C,C203*%
X98640476Y-45878571D02*
X98616666Y-45902380D01*
X98545238Y-45926190D01*
X98497619Y-45926190D01*
X98426190Y-45902380D01*
X98378571Y-45854761D01*
X98354761Y-45807142D01*
X98330952Y-45711904D01*
X98330952Y-45640476D01*
X98354761Y-45545238D01*
X98378571Y-45497619D01*
X98426190Y-45450000D01*
X98497619Y-45426190D01*
X98545238Y-45426190D01*
X98616666Y-45450000D01*
X98640476Y-45473809D01*
X98830952Y-45473809D02*
X98854761Y-45450000D01*
X98902380Y-45426190D01*
X99021428Y-45426190D01*
X99069047Y-45450000D01*
X99092857Y-45473809D01*
X99116666Y-45521428D01*
X99116666Y-45569047D01*
X99092857Y-45640476D01*
X98807142Y-45926190D01*
X99116666Y-45926190D01*
X99426190Y-45426190D02*
X99473809Y-45426190D01*
X99521428Y-45450000D01*
X99545238Y-45473809D01*
X99569047Y-45521428D01*
X99592857Y-45616666D01*
X99592857Y-45735714D01*
X99569047Y-45830952D01*
X99545238Y-45878571D01*
X99521428Y-45902380D01*
X99473809Y-45926190D01*
X99426190Y-45926190D01*
X99378571Y-45902380D01*
X99354761Y-45878571D01*
X99330952Y-45830952D01*
X99307142Y-45735714D01*
X99307142Y-45616666D01*
X99330952Y-45521428D01*
X99354761Y-45473809D01*
X99378571Y-45450000D01*
X99426190Y-45426190D01*
X99759523Y-45426190D02*
X100069047Y-45426190D01*
X99902380Y-45616666D01*
X99973809Y-45616666D01*
X100021428Y-45640476D01*
X100045238Y-45664285D01*
X100069047Y-45711904D01*
X100069047Y-45830952D01*
X100045238Y-45878571D01*
X100021428Y-45902380D01*
X99973809Y-45926190D01*
X99830952Y-45926190D01*
X99783333Y-45902380D01*
X99759523Y-45878571D01*
D12*
%TO.C,R205*%
X91480952Y-27102380D02*
X91147619Y-26626190D01*
X90909523Y-27102380D02*
X90909523Y-26102380D01*
X91290476Y-26102380D01*
X91385714Y-26150000D01*
X91433333Y-26197619D01*
X91480952Y-26292857D01*
X91480952Y-26435714D01*
X91433333Y-26530952D01*
X91385714Y-26578571D01*
X91290476Y-26626190D01*
X90909523Y-26626190D01*
X91861904Y-26197619D02*
X91909523Y-26150000D01*
X92004761Y-26102380D01*
X92242857Y-26102380D01*
X92338095Y-26150000D01*
X92385714Y-26197619D01*
X92433333Y-26292857D01*
X92433333Y-26388095D01*
X92385714Y-26530952D01*
X91814285Y-27102380D01*
X92433333Y-27102380D01*
X93052380Y-26102380D02*
X93147619Y-26102380D01*
X93242857Y-26150000D01*
X93290476Y-26197619D01*
X93338095Y-26292857D01*
X93385714Y-26483333D01*
X93385714Y-26721428D01*
X93338095Y-26911904D01*
X93290476Y-27007142D01*
X93242857Y-27054761D01*
X93147619Y-27102380D01*
X93052380Y-27102380D01*
X92957142Y-27054761D01*
X92909523Y-27007142D01*
X92861904Y-26911904D01*
X92814285Y-26721428D01*
X92814285Y-26483333D01*
X92861904Y-26292857D01*
X92909523Y-26197619D01*
X92957142Y-26150000D01*
X93052380Y-26102380D01*
X94290476Y-26102380D02*
X93814285Y-26102380D01*
X93766666Y-26578571D01*
X93814285Y-26530952D01*
X93909523Y-26483333D01*
X94147619Y-26483333D01*
X94242857Y-26530952D01*
X94290476Y-26578571D01*
X94338095Y-26673809D01*
X94338095Y-26911904D01*
X94290476Y-27007142D01*
X94242857Y-27054761D01*
X94147619Y-27102380D01*
X93909523Y-27102380D01*
X93814285Y-27054761D01*
X93766666Y-27007142D01*
D10*
%TO.C,FB6*%
X94626262Y-61116666D02*
X94626262Y-61283333D01*
X94888167Y-61283333D02*
X94388167Y-61283333D01*
X94388167Y-61045238D01*
X94626262Y-60688095D02*
X94650072Y-60616666D01*
X94673881Y-60592857D01*
X94721500Y-60569047D01*
X94792929Y-60569047D01*
X94840548Y-60592857D01*
X94864357Y-60616666D01*
X94888167Y-60664285D01*
X94888167Y-60854761D01*
X94388167Y-60854761D01*
X94388167Y-60688095D01*
X94411977Y-60640476D01*
X94435786Y-60616666D01*
X94483405Y-60592857D01*
X94531024Y-60592857D01*
X94578643Y-60616666D01*
X94602453Y-60640476D01*
X94626262Y-60688095D01*
X94626262Y-60854761D01*
X94388167Y-60140476D02*
X94388167Y-60235714D01*
X94411977Y-60283333D01*
X94435786Y-60307142D01*
X94507215Y-60354761D01*
X94602453Y-60378571D01*
X94792929Y-60378571D01*
X94840548Y-60354761D01*
X94864357Y-60330952D01*
X94888167Y-60283333D01*
X94888167Y-60188095D01*
X94864357Y-60140476D01*
X94840548Y-60116666D01*
X94792929Y-60092857D01*
X94673881Y-60092857D01*
X94626262Y-60116666D01*
X94602453Y-60140476D01*
X94578643Y-60188095D01*
X94578643Y-60283333D01*
X94602453Y-60330952D01*
X94626262Y-60354761D01*
X94673881Y-60378571D01*
%TO.C,C2*%
X38378571Y-58683333D02*
X38402380Y-58707142D01*
X38426190Y-58778571D01*
X38426190Y-58826190D01*
X38402380Y-58897619D01*
X38354761Y-58945238D01*
X38307142Y-58969047D01*
X38211904Y-58992857D01*
X38140476Y-58992857D01*
X38045238Y-58969047D01*
X37997619Y-58945238D01*
X37950000Y-58897619D01*
X37926190Y-58826190D01*
X37926190Y-58778571D01*
X37950000Y-58707142D01*
X37973809Y-58683333D01*
X37973809Y-58492857D02*
X37950000Y-58469047D01*
X37926190Y-58421428D01*
X37926190Y-58302380D01*
X37950000Y-58254761D01*
X37973809Y-58230952D01*
X38021428Y-58207142D01*
X38069047Y-58207142D01*
X38140476Y-58230952D01*
X38426190Y-58516666D01*
X38426190Y-58207142D01*
%TO.C,U1*%
X39119047Y-59126190D02*
X39119047Y-59530952D01*
X39142857Y-59578571D01*
X39166666Y-59602380D01*
X39214285Y-59626190D01*
X39309523Y-59626190D01*
X39357142Y-59602380D01*
X39380952Y-59578571D01*
X39404761Y-59530952D01*
X39404761Y-59126190D01*
X39904761Y-59626190D02*
X39619047Y-59626190D01*
X39761904Y-59626190D02*
X39761904Y-59126190D01*
X39714285Y-59197619D01*
X39666666Y-59245238D01*
X39619047Y-59269047D01*
%TO.C,C4*%
X56478571Y-59358333D02*
X56502380Y-59382142D01*
X56526190Y-59453571D01*
X56526190Y-59501190D01*
X56502380Y-59572619D01*
X56454761Y-59620238D01*
X56407142Y-59644047D01*
X56311904Y-59667857D01*
X56240476Y-59667857D01*
X56145238Y-59644047D01*
X56097619Y-59620238D01*
X56050000Y-59572619D01*
X56026190Y-59501190D01*
X56026190Y-59453571D01*
X56050000Y-59382142D01*
X56073809Y-59358333D01*
X56192857Y-58929761D02*
X56526190Y-58929761D01*
X56002380Y-59048809D02*
X56359523Y-59167857D01*
X56359523Y-58858333D01*
D12*
%TO.C,R201*%
X42780952Y-39352380D02*
X42447619Y-38876190D01*
X42209523Y-39352380D02*
X42209523Y-38352380D01*
X42590476Y-38352380D01*
X42685714Y-38400000D01*
X42733333Y-38447619D01*
X42780952Y-38542857D01*
X42780952Y-38685714D01*
X42733333Y-38780952D01*
X42685714Y-38828571D01*
X42590476Y-38876190D01*
X42209523Y-38876190D01*
X43161904Y-38447619D02*
X43209523Y-38400000D01*
X43304761Y-38352380D01*
X43542857Y-38352380D01*
X43638095Y-38400000D01*
X43685714Y-38447619D01*
X43733333Y-38542857D01*
X43733333Y-38638095D01*
X43685714Y-38780952D01*
X43114285Y-39352380D01*
X43733333Y-39352380D01*
X44352380Y-38352380D02*
X44447619Y-38352380D01*
X44542857Y-38400000D01*
X44590476Y-38447619D01*
X44638095Y-38542857D01*
X44685714Y-38733333D01*
X44685714Y-38971428D01*
X44638095Y-39161904D01*
X44590476Y-39257142D01*
X44542857Y-39304761D01*
X44447619Y-39352380D01*
X44352380Y-39352380D01*
X44257142Y-39304761D01*
X44209523Y-39257142D01*
X44161904Y-39161904D01*
X44114285Y-38971428D01*
X44114285Y-38733333D01*
X44161904Y-38542857D01*
X44209523Y-38447619D01*
X44257142Y-38400000D01*
X44352380Y-38352380D01*
X45638095Y-39352380D02*
X45066666Y-39352380D01*
X45352380Y-39352380D02*
X45352380Y-38352380D01*
X45257142Y-38495238D01*
X45161904Y-38590476D01*
X45066666Y-38638095D01*
D10*
%TO.C,FB102*%
X34557142Y-35614285D02*
X34390476Y-35614285D01*
X34390476Y-35876190D02*
X34390476Y-35376190D01*
X34628571Y-35376190D01*
X34985714Y-35614285D02*
X35057142Y-35638095D01*
X35080952Y-35661904D01*
X35104761Y-35709523D01*
X35104761Y-35780952D01*
X35080952Y-35828571D01*
X35057142Y-35852380D01*
X35009523Y-35876190D01*
X34819047Y-35876190D01*
X34819047Y-35376190D01*
X34985714Y-35376190D01*
X35033333Y-35400000D01*
X35057142Y-35423809D01*
X35080952Y-35471428D01*
X35080952Y-35519047D01*
X35057142Y-35566666D01*
X35033333Y-35590476D01*
X34985714Y-35614285D01*
X34819047Y-35614285D01*
X35580952Y-35876190D02*
X35295238Y-35876190D01*
X35438095Y-35876190D02*
X35438095Y-35376190D01*
X35390476Y-35447619D01*
X35342857Y-35495238D01*
X35295238Y-35519047D01*
X35890476Y-35376190D02*
X35938095Y-35376190D01*
X35985714Y-35400000D01*
X36009523Y-35423809D01*
X36033333Y-35471428D01*
X36057142Y-35566666D01*
X36057142Y-35685714D01*
X36033333Y-35780952D01*
X36009523Y-35828571D01*
X35985714Y-35852380D01*
X35938095Y-35876190D01*
X35890476Y-35876190D01*
X35842857Y-35852380D01*
X35819047Y-35828571D01*
X35795238Y-35780952D01*
X35771428Y-35685714D01*
X35771428Y-35566666D01*
X35795238Y-35471428D01*
X35819047Y-35423809D01*
X35842857Y-35400000D01*
X35890476Y-35376190D01*
X36247619Y-35423809D02*
X36271428Y-35400000D01*
X36319047Y-35376190D01*
X36438095Y-35376190D01*
X36485714Y-35400000D01*
X36509523Y-35423809D01*
X36533333Y-35471428D01*
X36533333Y-35519047D01*
X36509523Y-35590476D01*
X36223809Y-35876190D01*
X36533333Y-35876190D01*
%TO.C,U5*%
X93176190Y-57180952D02*
X93580952Y-57180952D01*
X93628571Y-57157142D01*
X93652380Y-57133333D01*
X93676190Y-57085714D01*
X93676190Y-56990476D01*
X93652380Y-56942857D01*
X93628571Y-56919047D01*
X93580952Y-56895238D01*
X93176190Y-56895238D01*
X93176190Y-56419047D02*
X93176190Y-56657142D01*
X93414285Y-56680952D01*
X93390476Y-56657142D01*
X93366666Y-56609523D01*
X93366666Y-56490476D01*
X93390476Y-56442857D01*
X93414285Y-56419047D01*
X93461904Y-56395238D01*
X93580952Y-56395238D01*
X93628571Y-56419047D01*
X93652380Y-56442857D01*
X93676190Y-56490476D01*
X93676190Y-56609523D01*
X93652380Y-56657142D01*
X93628571Y-56680952D01*
%TO.C,R107*%
X28526190Y-45459523D02*
X28288095Y-45626190D01*
X28526190Y-45745238D02*
X28026190Y-45745238D01*
X28026190Y-45554761D01*
X28050000Y-45507142D01*
X28073809Y-45483333D01*
X28121428Y-45459523D01*
X28192857Y-45459523D01*
X28240476Y-45483333D01*
X28264285Y-45507142D01*
X28288095Y-45554761D01*
X28288095Y-45745238D01*
X28526190Y-44983333D02*
X28526190Y-45269047D01*
X28526190Y-45126190D02*
X28026190Y-45126190D01*
X28097619Y-45173809D01*
X28145238Y-45221428D01*
X28169047Y-45269047D01*
X28026190Y-44673809D02*
X28026190Y-44626190D01*
X28050000Y-44578571D01*
X28073809Y-44554761D01*
X28121428Y-44530952D01*
X28216666Y-44507142D01*
X28335714Y-44507142D01*
X28430952Y-44530952D01*
X28478571Y-44554761D01*
X28502380Y-44578571D01*
X28526190Y-44626190D01*
X28526190Y-44673809D01*
X28502380Y-44721428D01*
X28478571Y-44745238D01*
X28430952Y-44769047D01*
X28335714Y-44792857D01*
X28216666Y-44792857D01*
X28121428Y-44769047D01*
X28073809Y-44745238D01*
X28050000Y-44721428D01*
X28026190Y-44673809D01*
X28026190Y-44340476D02*
X28026190Y-44007142D01*
X28526190Y-44221428D01*
%TO.C,C14*%
X64178571Y-45703571D02*
X64154761Y-45727380D01*
X64083333Y-45751190D01*
X64035714Y-45751190D01*
X63964285Y-45727380D01*
X63916666Y-45679761D01*
X63892857Y-45632142D01*
X63869047Y-45536904D01*
X63869047Y-45465476D01*
X63892857Y-45370238D01*
X63916666Y-45322619D01*
X63964285Y-45275000D01*
X64035714Y-45251190D01*
X64083333Y-45251190D01*
X64154761Y-45275000D01*
X64178571Y-45298809D01*
X64654761Y-45751190D02*
X64369047Y-45751190D01*
X64511904Y-45751190D02*
X64511904Y-45251190D01*
X64464285Y-45322619D01*
X64416666Y-45370238D01*
X64369047Y-45394047D01*
X65083333Y-45417857D02*
X65083333Y-45751190D01*
X64964285Y-45227380D02*
X64845238Y-45584523D01*
X65154761Y-45584523D01*
%TO.C,R10*%
X80278571Y-54226190D02*
X80111904Y-53988095D01*
X79992857Y-54226190D02*
X79992857Y-53726190D01*
X80183333Y-53726190D01*
X80230952Y-53750000D01*
X80254761Y-53773809D01*
X80278571Y-53821428D01*
X80278571Y-53892857D01*
X80254761Y-53940476D01*
X80230952Y-53964285D01*
X80183333Y-53988095D01*
X79992857Y-53988095D01*
X80754761Y-54226190D02*
X80469047Y-54226190D01*
X80611904Y-54226190D02*
X80611904Y-53726190D01*
X80564285Y-53797619D01*
X80516666Y-53845238D01*
X80469047Y-53869047D01*
X81064285Y-53726190D02*
X81111904Y-53726190D01*
X81159523Y-53750000D01*
X81183333Y-53773809D01*
X81207142Y-53821428D01*
X81230952Y-53916666D01*
X81230952Y-54035714D01*
X81207142Y-54130952D01*
X81183333Y-54178571D01*
X81159523Y-54202380D01*
X81111904Y-54226190D01*
X81064285Y-54226190D01*
X81016666Y-54202380D01*
X80992857Y-54178571D01*
X80969047Y-54130952D01*
X80945238Y-54035714D01*
X80945238Y-53916666D01*
X80969047Y-53821428D01*
X80992857Y-53773809D01*
X81016666Y-53750000D01*
X81064285Y-53726190D01*
%TO.C,C206*%
X105840476Y-38678571D02*
X105816666Y-38702380D01*
X105745238Y-38726190D01*
X105697619Y-38726190D01*
X105626190Y-38702380D01*
X105578571Y-38654761D01*
X105554761Y-38607142D01*
X105530952Y-38511904D01*
X105530952Y-38440476D01*
X105554761Y-38345238D01*
X105578571Y-38297619D01*
X105626190Y-38250000D01*
X105697619Y-38226190D01*
X105745238Y-38226190D01*
X105816666Y-38250000D01*
X105840476Y-38273809D01*
X106030952Y-38273809D02*
X106054761Y-38250000D01*
X106102380Y-38226190D01*
X106221428Y-38226190D01*
X106269047Y-38250000D01*
X106292857Y-38273809D01*
X106316666Y-38321428D01*
X106316666Y-38369047D01*
X106292857Y-38440476D01*
X106007142Y-38726190D01*
X106316666Y-38726190D01*
X106626190Y-38226190D02*
X106673809Y-38226190D01*
X106721428Y-38250000D01*
X106745238Y-38273809D01*
X106769047Y-38321428D01*
X106792857Y-38416666D01*
X106792857Y-38535714D01*
X106769047Y-38630952D01*
X106745238Y-38678571D01*
X106721428Y-38702380D01*
X106673809Y-38726190D01*
X106626190Y-38726190D01*
X106578571Y-38702380D01*
X106554761Y-38678571D01*
X106530952Y-38630952D01*
X106507142Y-38535714D01*
X106507142Y-38416666D01*
X106530952Y-38321428D01*
X106554761Y-38273809D01*
X106578571Y-38250000D01*
X106626190Y-38226190D01*
X107221428Y-38226190D02*
X107126190Y-38226190D01*
X107078571Y-38250000D01*
X107054761Y-38273809D01*
X107007142Y-38345238D01*
X106983333Y-38440476D01*
X106983333Y-38630952D01*
X107007142Y-38678571D01*
X107030952Y-38702380D01*
X107078571Y-38726190D01*
X107173809Y-38726190D01*
X107221428Y-38702380D01*
X107245238Y-38678571D01*
X107269047Y-38630952D01*
X107269047Y-38511904D01*
X107245238Y-38464285D01*
X107221428Y-38440476D01*
X107173809Y-38416666D01*
X107078571Y-38416666D01*
X107030952Y-38440476D01*
X107007142Y-38464285D01*
X106983333Y-38511904D01*
%TO.C,R101*%
X49540476Y-52901190D02*
X49373809Y-52663095D01*
X49254761Y-52901190D02*
X49254761Y-52401190D01*
X49445238Y-52401190D01*
X49492857Y-52425000D01*
X49516666Y-52448809D01*
X49540476Y-52496428D01*
X49540476Y-52567857D01*
X49516666Y-52615476D01*
X49492857Y-52639285D01*
X49445238Y-52663095D01*
X49254761Y-52663095D01*
X50016666Y-52901190D02*
X49730952Y-52901190D01*
X49873809Y-52901190D02*
X49873809Y-52401190D01*
X49826190Y-52472619D01*
X49778571Y-52520238D01*
X49730952Y-52544047D01*
X50326190Y-52401190D02*
X50373809Y-52401190D01*
X50421428Y-52425000D01*
X50445238Y-52448809D01*
X50469047Y-52496428D01*
X50492857Y-52591666D01*
X50492857Y-52710714D01*
X50469047Y-52805952D01*
X50445238Y-52853571D01*
X50421428Y-52877380D01*
X50373809Y-52901190D01*
X50326190Y-52901190D01*
X50278571Y-52877380D01*
X50254761Y-52853571D01*
X50230952Y-52805952D01*
X50207142Y-52710714D01*
X50207142Y-52591666D01*
X50230952Y-52496428D01*
X50254761Y-52448809D01*
X50278571Y-52425000D01*
X50326190Y-52401190D01*
X50969047Y-52901190D02*
X50683333Y-52901190D01*
X50826190Y-52901190D02*
X50826190Y-52401190D01*
X50778571Y-52472619D01*
X50730952Y-52520238D01*
X50683333Y-52544047D01*
%TO.C,R19*%
X34126190Y-56821428D02*
X33888095Y-56988095D01*
X34126190Y-57107142D02*
X33626190Y-57107142D01*
X33626190Y-56916666D01*
X33650000Y-56869047D01*
X33673809Y-56845238D01*
X33721428Y-56821428D01*
X33792857Y-56821428D01*
X33840476Y-56845238D01*
X33864285Y-56869047D01*
X33888095Y-56916666D01*
X33888095Y-57107142D01*
X34126190Y-56345238D02*
X34126190Y-56630952D01*
X34126190Y-56488095D02*
X33626190Y-56488095D01*
X33697619Y-56535714D01*
X33745238Y-56583333D01*
X33769047Y-56630952D01*
X34126190Y-56107142D02*
X34126190Y-56011904D01*
X34102380Y-55964285D01*
X34078571Y-55940476D01*
X34007142Y-55892857D01*
X33911904Y-55869047D01*
X33721428Y-55869047D01*
X33673809Y-55892857D01*
X33650000Y-55916666D01*
X33626190Y-55964285D01*
X33626190Y-56059523D01*
X33650000Y-56107142D01*
X33673809Y-56130952D01*
X33721428Y-56154761D01*
X33840476Y-56154761D01*
X33888095Y-56130952D01*
X33911904Y-56107142D01*
X33935714Y-56059523D01*
X33935714Y-55964285D01*
X33911904Y-55916666D01*
X33888095Y-55892857D01*
X33840476Y-55869047D01*
%TO.C,R27*%
X44426190Y-64221428D02*
X44188095Y-64388095D01*
X44426190Y-64507142D02*
X43926190Y-64507142D01*
X43926190Y-64316666D01*
X43950000Y-64269047D01*
X43973809Y-64245238D01*
X44021428Y-64221428D01*
X44092857Y-64221428D01*
X44140476Y-64245238D01*
X44164285Y-64269047D01*
X44188095Y-64316666D01*
X44188095Y-64507142D01*
X43973809Y-64030952D02*
X43950000Y-64007142D01*
X43926190Y-63959523D01*
X43926190Y-63840476D01*
X43950000Y-63792857D01*
X43973809Y-63769047D01*
X44021428Y-63745238D01*
X44069047Y-63745238D01*
X44140476Y-63769047D01*
X44426190Y-64054761D01*
X44426190Y-63745238D01*
X43926190Y-63578571D02*
X43926190Y-63245238D01*
X44426190Y-63459523D01*
%TO.C,R18*%
X78178571Y-67826190D02*
X78011904Y-67588095D01*
X77892857Y-67826190D02*
X77892857Y-67326190D01*
X78083333Y-67326190D01*
X78130952Y-67350000D01*
X78154761Y-67373809D01*
X78178571Y-67421428D01*
X78178571Y-67492857D01*
X78154761Y-67540476D01*
X78130952Y-67564285D01*
X78083333Y-67588095D01*
X77892857Y-67588095D01*
X78654761Y-67826190D02*
X78369047Y-67826190D01*
X78511904Y-67826190D02*
X78511904Y-67326190D01*
X78464285Y-67397619D01*
X78416666Y-67445238D01*
X78369047Y-67469047D01*
X78940476Y-67540476D02*
X78892857Y-67516666D01*
X78869047Y-67492857D01*
X78845238Y-67445238D01*
X78845238Y-67421428D01*
X78869047Y-67373809D01*
X78892857Y-67350000D01*
X78940476Y-67326190D01*
X79035714Y-67326190D01*
X79083333Y-67350000D01*
X79107142Y-67373809D01*
X79130952Y-67421428D01*
X79130952Y-67445238D01*
X79107142Y-67492857D01*
X79083333Y-67516666D01*
X79035714Y-67540476D01*
X78940476Y-67540476D01*
X78892857Y-67564285D01*
X78869047Y-67588095D01*
X78845238Y-67635714D01*
X78845238Y-67730952D01*
X78869047Y-67778571D01*
X78892857Y-67802380D01*
X78940476Y-67826190D01*
X79035714Y-67826190D01*
X79083333Y-67802380D01*
X79107142Y-67778571D01*
X79130952Y-67730952D01*
X79130952Y-67635714D01*
X79107142Y-67588095D01*
X79083333Y-67564285D01*
X79035714Y-67540476D01*
%TO.C,U3*%
X70019047Y-51926190D02*
X70019047Y-52330952D01*
X70042857Y-52378571D01*
X70066666Y-52402380D01*
X70114285Y-52426190D01*
X70209523Y-52426190D01*
X70257142Y-52402380D01*
X70280952Y-52378571D01*
X70304761Y-52330952D01*
X70304761Y-51926190D01*
X70495238Y-51926190D02*
X70804761Y-51926190D01*
X70638095Y-52116666D01*
X70709523Y-52116666D01*
X70757142Y-52140476D01*
X70780952Y-52164285D01*
X70804761Y-52211904D01*
X70804761Y-52330952D01*
X70780952Y-52378571D01*
X70757142Y-52402380D01*
X70709523Y-52426190D01*
X70566666Y-52426190D01*
X70519047Y-52402380D01*
X70495238Y-52378571D01*
%TO.C,R4*%
X88416666Y-68226190D02*
X88250000Y-67988095D01*
X88130952Y-68226190D02*
X88130952Y-67726190D01*
X88321428Y-67726190D01*
X88369047Y-67750000D01*
X88392857Y-67773809D01*
X88416666Y-67821428D01*
X88416666Y-67892857D01*
X88392857Y-67940476D01*
X88369047Y-67964285D01*
X88321428Y-67988095D01*
X88130952Y-67988095D01*
X88845238Y-67892857D02*
X88845238Y-68226190D01*
X88726190Y-67702380D02*
X88607142Y-68059523D01*
X88916666Y-68059523D01*
%TO.C,R14*%
X66278571Y-63326190D02*
X66111904Y-63088095D01*
X65992857Y-63326190D02*
X65992857Y-62826190D01*
X66183333Y-62826190D01*
X66230952Y-62850000D01*
X66254761Y-62873809D01*
X66278571Y-62921428D01*
X66278571Y-62992857D01*
X66254761Y-63040476D01*
X66230952Y-63064285D01*
X66183333Y-63088095D01*
X65992857Y-63088095D01*
X66754761Y-63326190D02*
X66469047Y-63326190D01*
X66611904Y-63326190D02*
X66611904Y-62826190D01*
X66564285Y-62897619D01*
X66516666Y-62945238D01*
X66469047Y-62969047D01*
X67183333Y-62992857D02*
X67183333Y-63326190D01*
X67064285Y-62802380D02*
X66945238Y-63159523D01*
X67254761Y-63159523D01*
%TO.C,R106*%
X28526190Y-47459523D02*
X28288095Y-47626190D01*
X28526190Y-47745238D02*
X28026190Y-47745238D01*
X28026190Y-47554761D01*
X28050000Y-47507142D01*
X28073809Y-47483333D01*
X28121428Y-47459523D01*
X28192857Y-47459523D01*
X28240476Y-47483333D01*
X28264285Y-47507142D01*
X28288095Y-47554761D01*
X28288095Y-47745238D01*
X28526190Y-46983333D02*
X28526190Y-47269047D01*
X28526190Y-47126190D02*
X28026190Y-47126190D01*
X28097619Y-47173809D01*
X28145238Y-47221428D01*
X28169047Y-47269047D01*
X28026190Y-46673809D02*
X28026190Y-46626190D01*
X28050000Y-46578571D01*
X28073809Y-46554761D01*
X28121428Y-46530952D01*
X28216666Y-46507142D01*
X28335714Y-46507142D01*
X28430952Y-46530952D01*
X28478571Y-46554761D01*
X28502380Y-46578571D01*
X28526190Y-46626190D01*
X28526190Y-46673809D01*
X28502380Y-46721428D01*
X28478571Y-46745238D01*
X28430952Y-46769047D01*
X28335714Y-46792857D01*
X28216666Y-46792857D01*
X28121428Y-46769047D01*
X28073809Y-46745238D01*
X28050000Y-46721428D01*
X28026190Y-46673809D01*
X28026190Y-46078571D02*
X28026190Y-46173809D01*
X28050000Y-46221428D01*
X28073809Y-46245238D01*
X28145238Y-46292857D01*
X28240476Y-46316666D01*
X28430952Y-46316666D01*
X28478571Y-46292857D01*
X28502380Y-46269047D01*
X28526190Y-46221428D01*
X28526190Y-46126190D01*
X28502380Y-46078571D01*
X28478571Y-46054761D01*
X28430952Y-46030952D01*
X28311904Y-46030952D01*
X28264285Y-46054761D01*
X28240476Y-46078571D01*
X28216666Y-46126190D01*
X28216666Y-46221428D01*
X28240476Y-46269047D01*
X28264285Y-46292857D01*
X28311904Y-46316666D01*
D12*
%TO.C,R208*%
X105630952Y-42002380D02*
X105297619Y-41526190D01*
X105059523Y-42002380D02*
X105059523Y-41002380D01*
X105440476Y-41002380D01*
X105535714Y-41050000D01*
X105583333Y-41097619D01*
X105630952Y-41192857D01*
X105630952Y-41335714D01*
X105583333Y-41430952D01*
X105535714Y-41478571D01*
X105440476Y-41526190D01*
X105059523Y-41526190D01*
X106011904Y-41097619D02*
X106059523Y-41050000D01*
X106154761Y-41002380D01*
X106392857Y-41002380D01*
X106488095Y-41050000D01*
X106535714Y-41097619D01*
X106583333Y-41192857D01*
X106583333Y-41288095D01*
X106535714Y-41430952D01*
X105964285Y-42002380D01*
X106583333Y-42002380D01*
X107202380Y-41002380D02*
X107297619Y-41002380D01*
X107392857Y-41050000D01*
X107440476Y-41097619D01*
X107488095Y-41192857D01*
X107535714Y-41383333D01*
X107535714Y-41621428D01*
X107488095Y-41811904D01*
X107440476Y-41907142D01*
X107392857Y-41954761D01*
X107297619Y-42002380D01*
X107202380Y-42002380D01*
X107107142Y-41954761D01*
X107059523Y-41907142D01*
X107011904Y-41811904D01*
X106964285Y-41621428D01*
X106964285Y-41383333D01*
X107011904Y-41192857D01*
X107059523Y-41097619D01*
X107107142Y-41050000D01*
X107202380Y-41002380D01*
X108107142Y-41430952D02*
X108011904Y-41383333D01*
X107964285Y-41335714D01*
X107916666Y-41240476D01*
X107916666Y-41192857D01*
X107964285Y-41097619D01*
X108011904Y-41050000D01*
X108107142Y-41002380D01*
X108297619Y-41002380D01*
X108392857Y-41050000D01*
X108440476Y-41097619D01*
X108488095Y-41192857D01*
X108488095Y-41240476D01*
X108440476Y-41335714D01*
X108392857Y-41383333D01*
X108297619Y-41430952D01*
X108107142Y-41430952D01*
X108011904Y-41478571D01*
X107964285Y-41526190D01*
X107916666Y-41621428D01*
X107916666Y-41811904D01*
X107964285Y-41907142D01*
X108011904Y-41954761D01*
X108107142Y-42002380D01*
X108297619Y-42002380D01*
X108392857Y-41954761D01*
X108440476Y-41907142D01*
X108488095Y-41811904D01*
X108488095Y-41621428D01*
X108440476Y-41526190D01*
X108392857Y-41478571D01*
X108297619Y-41430952D01*
D10*
%TO.C,R104*%
X40076190Y-47509523D02*
X39838095Y-47676190D01*
X40076190Y-47795238D02*
X39576190Y-47795238D01*
X39576190Y-47604761D01*
X39600000Y-47557142D01*
X39623809Y-47533333D01*
X39671428Y-47509523D01*
X39742857Y-47509523D01*
X39790476Y-47533333D01*
X39814285Y-47557142D01*
X39838095Y-47604761D01*
X39838095Y-47795238D01*
X40076190Y-47033333D02*
X40076190Y-47319047D01*
X40076190Y-47176190D02*
X39576190Y-47176190D01*
X39647619Y-47223809D01*
X39695238Y-47271428D01*
X39719047Y-47319047D01*
X39576190Y-46723809D02*
X39576190Y-46676190D01*
X39600000Y-46628571D01*
X39623809Y-46604761D01*
X39671428Y-46580952D01*
X39766666Y-46557142D01*
X39885714Y-46557142D01*
X39980952Y-46580952D01*
X40028571Y-46604761D01*
X40052380Y-46628571D01*
X40076190Y-46676190D01*
X40076190Y-46723809D01*
X40052380Y-46771428D01*
X40028571Y-46795238D01*
X39980952Y-46819047D01*
X39885714Y-46842857D01*
X39766666Y-46842857D01*
X39671428Y-46819047D01*
X39623809Y-46795238D01*
X39600000Y-46771428D01*
X39576190Y-46723809D01*
X39742857Y-46128571D02*
X40076190Y-46128571D01*
X39552380Y-46247619D02*
X39909523Y-46366666D01*
X39909523Y-46057142D01*
%TO.C,C15*%
X51728571Y-54796428D02*
X51752380Y-54820238D01*
X51776190Y-54891666D01*
X51776190Y-54939285D01*
X51752380Y-55010714D01*
X51704761Y-55058333D01*
X51657142Y-55082142D01*
X51561904Y-55105952D01*
X51490476Y-55105952D01*
X51395238Y-55082142D01*
X51347619Y-55058333D01*
X51300000Y-55010714D01*
X51276190Y-54939285D01*
X51276190Y-54891666D01*
X51300000Y-54820238D01*
X51323809Y-54796428D01*
X51776190Y-54320238D02*
X51776190Y-54605952D01*
X51776190Y-54463095D02*
X51276190Y-54463095D01*
X51347619Y-54510714D01*
X51395238Y-54558333D01*
X51419047Y-54605952D01*
X51276190Y-53867857D02*
X51276190Y-54105952D01*
X51514285Y-54129761D01*
X51490476Y-54105952D01*
X51466666Y-54058333D01*
X51466666Y-53939285D01*
X51490476Y-53891666D01*
X51514285Y-53867857D01*
X51561904Y-53844047D01*
X51680952Y-53844047D01*
X51728571Y-53867857D01*
X51752380Y-53891666D01*
X51776190Y-53939285D01*
X51776190Y-54058333D01*
X51752380Y-54105952D01*
X51728571Y-54129761D01*
%TO.C,R7*%
X85416666Y-57926190D02*
X85250000Y-57688095D01*
X85130952Y-57926190D02*
X85130952Y-57426190D01*
X85321428Y-57426190D01*
X85369047Y-57450000D01*
X85392857Y-57473809D01*
X85416666Y-57521428D01*
X85416666Y-57592857D01*
X85392857Y-57640476D01*
X85369047Y-57664285D01*
X85321428Y-57688095D01*
X85130952Y-57688095D01*
X85583333Y-57426190D02*
X85916666Y-57426190D01*
X85702380Y-57926190D01*
D12*
%TO.C,R207*%
X87352380Y-33719047D02*
X86876190Y-34052380D01*
X87352380Y-34290476D02*
X86352380Y-34290476D01*
X86352380Y-33909523D01*
X86400000Y-33814285D01*
X86447619Y-33766666D01*
X86542857Y-33719047D01*
X86685714Y-33719047D01*
X86780952Y-33766666D01*
X86828571Y-33814285D01*
X86876190Y-33909523D01*
X86876190Y-34290476D01*
X86447619Y-33338095D02*
X86400000Y-33290476D01*
X86352380Y-33195238D01*
X86352380Y-32957142D01*
X86400000Y-32861904D01*
X86447619Y-32814285D01*
X86542857Y-32766666D01*
X86638095Y-32766666D01*
X86780952Y-32814285D01*
X87352380Y-33385714D01*
X87352380Y-32766666D01*
X86352380Y-32147619D02*
X86352380Y-32052380D01*
X86400000Y-31957142D01*
X86447619Y-31909523D01*
X86542857Y-31861904D01*
X86733333Y-31814285D01*
X86971428Y-31814285D01*
X87161904Y-31861904D01*
X87257142Y-31909523D01*
X87304761Y-31957142D01*
X87352380Y-32052380D01*
X87352380Y-32147619D01*
X87304761Y-32242857D01*
X87257142Y-32290476D01*
X87161904Y-32338095D01*
X86971428Y-32385714D01*
X86733333Y-32385714D01*
X86542857Y-32338095D01*
X86447619Y-32290476D01*
X86400000Y-32242857D01*
X86352380Y-32147619D01*
X86352380Y-31480952D02*
X86352380Y-30814285D01*
X87352380Y-31242857D01*
D10*
%TO.C,R2*%
X91716666Y-51526190D02*
X91550000Y-51288095D01*
X91430952Y-51526190D02*
X91430952Y-51026190D01*
X91621428Y-51026190D01*
X91669047Y-51050000D01*
X91692857Y-51073809D01*
X91716666Y-51121428D01*
X91716666Y-51192857D01*
X91692857Y-51240476D01*
X91669047Y-51264285D01*
X91621428Y-51288095D01*
X91430952Y-51288095D01*
X91907142Y-51073809D02*
X91930952Y-51050000D01*
X91978571Y-51026190D01*
X92097619Y-51026190D01*
X92145238Y-51050000D01*
X92169047Y-51073809D01*
X92192857Y-51121428D01*
X92192857Y-51169047D01*
X92169047Y-51240476D01*
X91883333Y-51526190D01*
X92192857Y-51526190D01*
%TO.C,R3*%
X90516666Y-68226190D02*
X90350000Y-67988095D01*
X90230952Y-68226190D02*
X90230952Y-67726190D01*
X90421428Y-67726190D01*
X90469047Y-67750000D01*
X90492857Y-67773809D01*
X90516666Y-67821428D01*
X90516666Y-67892857D01*
X90492857Y-67940476D01*
X90469047Y-67964285D01*
X90421428Y-67988095D01*
X90230952Y-67988095D01*
X90683333Y-67726190D02*
X90992857Y-67726190D01*
X90826190Y-67916666D01*
X90897619Y-67916666D01*
X90945238Y-67940476D01*
X90969047Y-67964285D01*
X90992857Y-68011904D01*
X90992857Y-68130952D01*
X90969047Y-68178571D01*
X90945238Y-68202380D01*
X90897619Y-68226190D01*
X90754761Y-68226190D01*
X90707142Y-68202380D01*
X90683333Y-68178571D01*
%TO.C,J1*%
X29833333Y-57426190D02*
X29833333Y-57783333D01*
X29809523Y-57854761D01*
X29761904Y-57902380D01*
X29690476Y-57926190D01*
X29642857Y-57926190D01*
X30333333Y-57926190D02*
X30047619Y-57926190D01*
X30190476Y-57926190D02*
X30190476Y-57426190D01*
X30142857Y-57497619D01*
X30095238Y-57545238D01*
X30047619Y-57569047D01*
%TO.C,R20*%
X39578571Y-58051190D02*
X39411904Y-57813095D01*
X39292857Y-58051190D02*
X39292857Y-57551190D01*
X39483333Y-57551190D01*
X39530952Y-57575000D01*
X39554761Y-57598809D01*
X39578571Y-57646428D01*
X39578571Y-57717857D01*
X39554761Y-57765476D01*
X39530952Y-57789285D01*
X39483333Y-57813095D01*
X39292857Y-57813095D01*
X39769047Y-57598809D02*
X39792857Y-57575000D01*
X39840476Y-57551190D01*
X39959523Y-57551190D01*
X40007142Y-57575000D01*
X40030952Y-57598809D01*
X40054761Y-57646428D01*
X40054761Y-57694047D01*
X40030952Y-57765476D01*
X39745238Y-58051190D01*
X40054761Y-58051190D01*
X40364285Y-57551190D02*
X40411904Y-57551190D01*
X40459523Y-57575000D01*
X40483333Y-57598809D01*
X40507142Y-57646428D01*
X40530952Y-57741666D01*
X40530952Y-57860714D01*
X40507142Y-57955952D01*
X40483333Y-58003571D01*
X40459523Y-58027380D01*
X40411904Y-58051190D01*
X40364285Y-58051190D01*
X40316666Y-58027380D01*
X40292857Y-58003571D01*
X40269047Y-57955952D01*
X40245238Y-57860714D01*
X40245238Y-57741666D01*
X40269047Y-57646428D01*
X40292857Y-57598809D01*
X40316666Y-57575000D01*
X40364285Y-57551190D01*
%TO.C,FB3*%
X72189285Y-42816666D02*
X72189285Y-42983333D01*
X72451190Y-42983333D02*
X71951190Y-42983333D01*
X71951190Y-42745238D01*
X72189285Y-42388095D02*
X72213095Y-42316666D01*
X72236904Y-42292857D01*
X72284523Y-42269047D01*
X72355952Y-42269047D01*
X72403571Y-42292857D01*
X72427380Y-42316666D01*
X72451190Y-42364285D01*
X72451190Y-42554761D01*
X71951190Y-42554761D01*
X71951190Y-42388095D01*
X71975000Y-42340476D01*
X71998809Y-42316666D01*
X72046428Y-42292857D01*
X72094047Y-42292857D01*
X72141666Y-42316666D01*
X72165476Y-42340476D01*
X72189285Y-42388095D01*
X72189285Y-42554761D01*
X71951190Y-42102380D02*
X71951190Y-41792857D01*
X72141666Y-41959523D01*
X72141666Y-41888095D01*
X72165476Y-41840476D01*
X72189285Y-41816666D01*
X72236904Y-41792857D01*
X72355952Y-41792857D01*
X72403571Y-41816666D01*
X72427380Y-41840476D01*
X72451190Y-41888095D01*
X72451190Y-42030952D01*
X72427380Y-42078571D01*
X72403571Y-42102380D01*
%TO.C,C10*%
X63278571Y-64921428D02*
X63302380Y-64945238D01*
X63326190Y-65016666D01*
X63326190Y-65064285D01*
X63302380Y-65135714D01*
X63254761Y-65183333D01*
X63207142Y-65207142D01*
X63111904Y-65230952D01*
X63040476Y-65230952D01*
X62945238Y-65207142D01*
X62897619Y-65183333D01*
X62850000Y-65135714D01*
X62826190Y-65064285D01*
X62826190Y-65016666D01*
X62850000Y-64945238D01*
X62873809Y-64921428D01*
X63326190Y-64445238D02*
X63326190Y-64730952D01*
X63326190Y-64588095D02*
X62826190Y-64588095D01*
X62897619Y-64635714D01*
X62945238Y-64683333D01*
X62969047Y-64730952D01*
X62826190Y-64135714D02*
X62826190Y-64088095D01*
X62850000Y-64040476D01*
X62873809Y-64016666D01*
X62921428Y-63992857D01*
X63016666Y-63969047D01*
X63135714Y-63969047D01*
X63230952Y-63992857D01*
X63278571Y-64016666D01*
X63302380Y-64040476D01*
X63326190Y-64088095D01*
X63326190Y-64135714D01*
X63302380Y-64183333D01*
X63278571Y-64207142D01*
X63230952Y-64230952D01*
X63135714Y-64254761D01*
X63016666Y-64254761D01*
X62921428Y-64230952D01*
X62873809Y-64207142D01*
X62850000Y-64183333D01*
X62826190Y-64135714D01*
D14*
%TO.C,C11*%
X60738748Y-63035000D02*
X61261252Y-63035000D01*
X60738748Y-61565000D02*
X61261252Y-61565000D01*
%TO.C,C18*%
X77038748Y-62535000D02*
X77561252Y-62535000D01*
X77038748Y-61065000D02*
X77561252Y-61065000D01*
%TO.C,R1*%
X89535000Y-53272936D02*
X89535000Y-53727064D01*
X88065000Y-53272936D02*
X88065000Y-53727064D01*
%TO.C,C12*%
X60738748Y-59265000D02*
X61261252Y-59265000D01*
X60738748Y-60735000D02*
X61261252Y-60735000D01*
%TO.C,C208*%
X102500000Y-33300000D02*
X102500000Y-26700000D01*
X102500000Y-26700000D02*
X100200000Y-25800000D01*
X95900000Y-33300000D02*
X98200000Y-33300000D01*
X102500000Y-33300000D02*
X100200000Y-33300000D01*
X95900000Y-26700000D02*
X98200000Y-25800000D01*
X95900000Y-33300000D02*
X95900000Y-26700000D01*
X100200000Y-33300000D02*
X102500000Y-33300000D01*
X102500000Y-33300000D02*
X102500000Y-31000000D01*
X102500000Y-31000000D02*
X100200000Y-31000000D01*
X100200000Y-31000000D02*
X100200000Y-33300000D01*
G36*
X100200000Y-33300000D02*
G01*
X102500000Y-33300000D01*
X102500000Y-31000000D01*
X100200000Y-31000000D01*
X100200000Y-33300000D01*
G37*
X95900000Y-33300000D02*
X98200000Y-33300000D01*
X98200000Y-33300000D02*
X98200000Y-31000000D01*
X98200000Y-31000000D02*
X95900000Y-31000000D01*
X95900000Y-31000000D02*
X95900000Y-33300000D01*
G36*
X95900000Y-33300000D02*
G01*
X98200000Y-33300000D01*
X98200000Y-31000000D01*
X95900000Y-31000000D01*
X95900000Y-33300000D01*
G37*
%TO.C,R9*%
X65865000Y-55227064D02*
X65865000Y-54772936D01*
X67335000Y-55227064D02*
X67335000Y-54772936D01*
%TO.C,U4*%
X73600000Y-63140000D02*
X70150000Y-63140000D01*
X73600000Y-63140000D02*
X75550000Y-63140000D01*
X73600000Y-68260000D02*
X75550000Y-68260000D01*
X73600000Y-68260000D02*
X71650000Y-68260000D01*
%TO.C,R15*%
X79865000Y-66372936D02*
X79865000Y-66827064D01*
X81335000Y-66372936D02*
X81335000Y-66827064D01*
%TO.C,J3*%
X121670000Y-54200000D02*
X121670000Y-52870000D01*
X121670000Y-55470000D02*
X124330000Y-55470000D01*
X121670000Y-55470000D02*
X121670000Y-63150000D01*
X121670000Y-63150000D02*
X124330000Y-63150000D01*
X124330000Y-55470000D02*
X124330000Y-63150000D01*
X121670000Y-52870000D02*
X123000000Y-52870000D01*
%TO.C,R16*%
X73827064Y-62535000D02*
X73372936Y-62535000D01*
X73827064Y-61065000D02*
X73372936Y-61065000D01*
%TO.C,R17*%
X67965000Y-64327064D02*
X67965000Y-63872936D01*
X69435000Y-64327064D02*
X69435000Y-63872936D01*
%TO.C,R206*%
X114272936Y-35165000D02*
X114727064Y-35165000D01*
X114272936Y-36635000D02*
X114727064Y-36635000D01*
%TO.C,C204*%
X109435000Y-35938748D02*
X109435000Y-36461252D01*
X107965000Y-35938748D02*
X107965000Y-36461252D01*
%TO.C,R5*%
X93735000Y-53272936D02*
X93735000Y-53727064D01*
X92265000Y-53272936D02*
X92265000Y-53727064D01*
%TO.C,R13*%
X79235000Y-55127064D02*
X79235000Y-54672936D01*
X77765000Y-55127064D02*
X77765000Y-54672936D01*
%TO.C,R8*%
X84765000Y-63927064D02*
X84765000Y-63472936D01*
X86235000Y-63927064D02*
X86235000Y-63472936D01*
%TO.C,C1*%
X99438748Y-53765000D02*
X99961252Y-53765000D01*
X99438748Y-55235000D02*
X99961252Y-55235000D01*
%TO.C,C103*%
X35188748Y-38265000D02*
X35711252Y-38265000D01*
X35188748Y-39735000D02*
X35711252Y-39735000D01*
%TO.C,R26*%
X41712936Y-58965000D02*
X42167064Y-58965000D01*
X41712936Y-60435000D02*
X42167064Y-60435000D01*
%TO.C,FB2*%
X54210242Y-51990000D02*
X53389758Y-51990000D01*
X54210242Y-53110000D02*
X53389758Y-53110000D01*
%TO.C,C7*%
X53338748Y-55840000D02*
X53861252Y-55840000D01*
X53338748Y-57310000D02*
X53861252Y-57310000D01*
%TO.C,Y101*%
X28850000Y-42900000D02*
X32150000Y-42900000D01*
X32150000Y-42900000D02*
X32150000Y-38900000D01*
%TO.C,R24*%
X68065000Y-45172936D02*
X68065000Y-45627064D01*
X69535000Y-45172936D02*
X69535000Y-45627064D01*
%TO.C,R11*%
X73827064Y-50665000D02*
X73372936Y-50665000D01*
X73827064Y-52135000D02*
X73372936Y-52135000D01*
%TO.C,C201*%
X116800000Y-26700000D02*
X116800000Y-33300000D01*
X116800000Y-26700000D02*
X114500000Y-26700000D01*
X110200000Y-26700000D02*
X110200000Y-33300000D01*
X110200000Y-26700000D02*
X112500000Y-26700000D01*
X110200000Y-33300000D02*
X112500000Y-34200000D01*
X116800000Y-33300000D02*
X114500000Y-34200000D01*
X112500000Y-26700000D02*
X110200000Y-26700000D01*
X110200000Y-26700000D02*
X110200000Y-29000000D01*
X110200000Y-29000000D02*
X112500000Y-29000000D01*
X112500000Y-29000000D02*
X112500000Y-26700000D01*
G36*
X112500000Y-26700000D02*
G01*
X110200000Y-26700000D01*
X110200000Y-29000000D01*
X112500000Y-29000000D01*
X112500000Y-26700000D01*
G37*
X116800000Y-26700000D02*
X114500000Y-26700000D01*
X114500000Y-26700000D02*
X114500000Y-29000000D01*
X114500000Y-29000000D02*
X116800000Y-29000000D01*
X116800000Y-29000000D02*
X116800000Y-26700000D01*
G36*
X116800000Y-26700000D02*
G01*
X114500000Y-26700000D01*
X114500000Y-29000000D01*
X116800000Y-29000000D01*
X116800000Y-26700000D01*
G37*
%TO.C,R103*%
X41872936Y-44165000D02*
X42327064Y-44165000D01*
X41872936Y-45635000D02*
X42327064Y-45635000D01*
%TO.C,J2*%
X30270000Y-61770000D02*
X32930000Y-61770000D01*
X30270000Y-60500000D02*
X30270000Y-59170000D01*
X30270000Y-61770000D02*
X30270000Y-64370000D01*
X30270000Y-64370000D02*
X32930000Y-64370000D01*
X30270000Y-59170000D02*
X31600000Y-59170000D01*
X32930000Y-61770000D02*
X32930000Y-64370000D01*
%TO.C,C9*%
X60738748Y-57235000D02*
X61261252Y-57235000D01*
X60738748Y-55765000D02*
X61261252Y-55765000D01*
%TO.C,R102*%
X47265000Y-54647936D02*
X47265000Y-55102064D01*
X48735000Y-54647936D02*
X48735000Y-55102064D01*
%TO.C,R6*%
X92535000Y-65927064D02*
X92535000Y-65472936D01*
X91065000Y-65927064D02*
X91065000Y-65472936D01*
%TO.C,R25*%
X67335000Y-43172936D02*
X67335000Y-43627064D01*
X65865000Y-43172936D02*
X65865000Y-43627064D01*
%TO.C,C3*%
X56865000Y-55836252D02*
X56865000Y-55313748D01*
X58335000Y-55836252D02*
X58335000Y-55313748D01*
%TO.C,R12*%
X69435000Y-53927064D02*
X69435000Y-53472936D01*
X67965000Y-53927064D02*
X67965000Y-53472936D01*
%TO.C,C6*%
X58335000Y-62713748D02*
X58335000Y-63236252D01*
X56865000Y-62713748D02*
X56865000Y-63236252D01*
%TO.C,J201*%
X121645000Y-37170000D02*
X124305000Y-37170000D01*
X121645000Y-39770000D02*
X124305000Y-39770000D01*
X121645000Y-35900000D02*
X121645000Y-34570000D01*
X124305000Y-37170000D02*
X124305000Y-39770000D01*
X121645000Y-37170000D02*
X121645000Y-39770000D01*
X121645000Y-34570000D02*
X122975000Y-34570000D01*
%TO.C,R202*%
X39972936Y-36065000D02*
X40427064Y-36065000D01*
X39972936Y-37535000D02*
X40427064Y-37535000D01*
%TO.C,C5*%
X56865000Y-66413748D02*
X56865000Y-66936252D01*
X58335000Y-66413748D02*
X58335000Y-66936252D01*
%TO.C,C104*%
X37061252Y-44365000D02*
X36538748Y-44365000D01*
X37061252Y-45835000D02*
X36538748Y-45835000D01*
%TO.C,C8*%
X41538748Y-61065000D02*
X42061252Y-61065000D01*
X41538748Y-62535000D02*
X42061252Y-62535000D01*
%TO.C,J102*%
X48330000Y-31600000D02*
X49350000Y-31600000D01*
X73730000Y-26400000D02*
X74750000Y-26400000D01*
X58490000Y-31600000D02*
X59510000Y-31600000D01*
X33540000Y-26400000D02*
X34110000Y-26400000D01*
X76270000Y-26400000D02*
X77290000Y-26400000D01*
X55950000Y-31600000D02*
X56970000Y-31600000D01*
X43250000Y-26400000D02*
X44270000Y-26400000D01*
X63570000Y-26400000D02*
X64590000Y-26400000D01*
X83890000Y-26400000D02*
X84460000Y-26400000D01*
X66110000Y-26400000D02*
X67130000Y-26400000D01*
X43250000Y-31600000D02*
X44270000Y-31600000D01*
X84460000Y-31600000D02*
X84460000Y-26400000D01*
X61030000Y-31600000D02*
X62050000Y-31600000D01*
X61030000Y-26400000D02*
X62050000Y-26400000D01*
X35630000Y-31600000D02*
X36650000Y-31600000D01*
X33540000Y-31600000D02*
X34110000Y-31600000D01*
X68650000Y-31600000D02*
X69670000Y-31600000D01*
X50870000Y-31600000D02*
X51890000Y-31600000D01*
X48330000Y-26400000D02*
X49350000Y-26400000D01*
X78810000Y-26400000D02*
X79830000Y-26400000D01*
X68650000Y-26400000D02*
X69670000Y-26400000D01*
X38170000Y-31600000D02*
X39190000Y-31600000D01*
X38170000Y-26400000D02*
X39190000Y-26400000D01*
X53410000Y-31600000D02*
X54430000Y-31600000D01*
X58490000Y-26400000D02*
X59510000Y-26400000D01*
X55950000Y-26400000D02*
X56970000Y-26400000D01*
X34110000Y-33040000D02*
X34110000Y-31600000D01*
X40710000Y-31600000D02*
X41730000Y-31600000D01*
X83890000Y-31600000D02*
X84460000Y-31600000D01*
X76270000Y-31600000D02*
X77290000Y-31600000D01*
X50870000Y-26400000D02*
X51890000Y-26400000D01*
X81350000Y-31600000D02*
X82370000Y-31600000D01*
X33540000Y-31600000D02*
X33540000Y-26400000D01*
X40710000Y-26400000D02*
X41730000Y-26400000D01*
X45790000Y-31600000D02*
X46810000Y-31600000D01*
X78810000Y-31600000D02*
X79830000Y-31600000D01*
X71190000Y-31600000D02*
X72210000Y-31600000D01*
X45790000Y-26400000D02*
X46810000Y-26400000D01*
X71190000Y-26400000D02*
X72210000Y-26400000D01*
X81350000Y-26400000D02*
X82370000Y-26400000D01*
X53410000Y-26400000D02*
X54430000Y-26400000D01*
X35630000Y-26400000D02*
X36650000Y-26400000D01*
X63570000Y-31600000D02*
X64590000Y-31600000D01*
X73730000Y-31600000D02*
X74750000Y-31600000D01*
X66110000Y-31600000D02*
X67130000Y-31600000D01*
D12*
%TO.C,U103*%
X35225000Y-43675000D02*
X38575000Y-43675000D01*
X35225000Y-40325000D02*
X38575000Y-40325000D01*
X38575000Y-43675000D02*
X38575000Y-43375000D01*
X38575000Y-40325000D02*
X38575000Y-40625000D01*
X35225000Y-40325000D02*
X35225000Y-40550000D01*
X35225000Y-43675000D02*
X35225000Y-43375000D01*
X35225000Y-40550000D02*
X34000000Y-40550000D01*
D14*
%TO.C,C17*%
X99438748Y-59965000D02*
X99961252Y-59965000D01*
X99438748Y-61435000D02*
X99961252Y-61435000D01*
%TO.C,C16*%
X77038748Y-50665000D02*
X77561252Y-50665000D01*
X77038748Y-52135000D02*
X77561252Y-52135000D01*
%TO.C,U2*%
X49800000Y-57740000D02*
X52000000Y-57740000D01*
X49800000Y-57740000D02*
X46200000Y-57740000D01*
X49800000Y-63210000D02*
X47600000Y-63210000D01*
X49800000Y-63210000D02*
X52000000Y-63210000D01*
%TO.C,FB1*%
X43335000Y-54939758D02*
X43335000Y-55760242D01*
X42215000Y-54939758D02*
X42215000Y-55760242D01*
%TO.C,C19*%
X93326977Y-62938748D02*
X93326977Y-63461252D01*
X94796977Y-62938748D02*
X94796977Y-63461252D01*
%TO.C,U201*%
X102990000Y-27690000D02*
X104250000Y-27690000D01*
X109810000Y-27690000D02*
X108550000Y-27690000D01*
X109810000Y-31450000D02*
X109810000Y-27690000D01*
X102990000Y-33700000D02*
X102990000Y-27690000D01*
%TO.C,C13*%
X71735000Y-45138748D02*
X71735000Y-45661252D01*
X70265000Y-45138748D02*
X70265000Y-45661252D01*
%TO.C,C203*%
X95900000Y-43700000D02*
X98200000Y-44600000D01*
X95900000Y-37100000D02*
X95900000Y-43700000D01*
X102500000Y-37100000D02*
X102500000Y-43700000D01*
X102500000Y-37100000D02*
X100200000Y-37100000D01*
X95900000Y-37100000D02*
X98200000Y-37100000D01*
X102500000Y-43700000D02*
X100200000Y-44600000D01*
X102500000Y-37100000D02*
X100200000Y-37100000D01*
X100200000Y-37100000D02*
X100200000Y-39400000D01*
X100200000Y-39400000D02*
X102500000Y-39400000D01*
X102500000Y-39400000D02*
X102500000Y-37100000D01*
G36*
X102500000Y-37100000D02*
G01*
X100200000Y-37100000D01*
X100200000Y-39400000D01*
X102500000Y-39400000D01*
X102500000Y-37100000D01*
G37*
X98200000Y-37100000D02*
X95900000Y-37100000D01*
X95900000Y-37100000D02*
X95900000Y-39400000D01*
X95900000Y-39400000D02*
X98200000Y-39400000D01*
X98200000Y-39400000D02*
X98200000Y-37100000D01*
G36*
X98200000Y-37100000D02*
G01*
X95900000Y-37100000D01*
X95900000Y-39400000D01*
X98200000Y-39400000D01*
X98200000Y-37100000D01*
G37*
%TO.C,R205*%
X92827064Y-25735000D02*
X92372936Y-25735000D01*
X92827064Y-24265000D02*
X92372936Y-24265000D01*
%TO.C,FB6*%
X95501977Y-60289758D02*
X95501977Y-61110242D01*
X96621977Y-60289758D02*
X96621977Y-61110242D01*
%TO.C,C2*%
X36361252Y-57865000D02*
X35838748Y-57865000D01*
X36361252Y-59335000D02*
X35838748Y-59335000D01*
%TO.C,U1*%
X39690000Y-63750000D02*
X34190000Y-63750000D01*
X39690000Y-59850000D02*
X34190000Y-59850000D01*
%TO.C,C4*%
X56865000Y-59536252D02*
X56865000Y-59013748D01*
X58335000Y-59536252D02*
X58335000Y-59013748D01*
%TO.C,R201*%
X39972936Y-38165000D02*
X40427064Y-38165000D01*
X39972936Y-39635000D02*
X40427064Y-39635000D01*
%TO.C,FB102*%
X35860242Y-37410000D02*
X35039758Y-37410000D01*
X35860242Y-36290000D02*
X35039758Y-36290000D01*
%TO.C,U5*%
X92860000Y-59700000D02*
X92860000Y-61650000D01*
X87740000Y-59700000D02*
X87740000Y-57750000D01*
X92860000Y-59700000D02*
X92860000Y-56250000D01*
X87740000Y-59700000D02*
X87740000Y-61650000D01*
%TO.C,R107*%
X30272936Y-45635000D02*
X30727064Y-45635000D01*
X30272936Y-44165000D02*
X30727064Y-44165000D01*
%TO.C,C14*%
X63765000Y-43138748D02*
X63765000Y-43661252D01*
X65235000Y-43138748D02*
X65235000Y-43661252D01*
%TO.C,R10*%
X81335000Y-55972936D02*
X81335000Y-56427064D01*
X79865000Y-55972936D02*
X79865000Y-56427064D01*
%TO.C,C206*%
X107135000Y-35938748D02*
X107135000Y-36461252D01*
X105665000Y-35938748D02*
X105665000Y-36461252D01*
%TO.C,R101*%
X49365000Y-54647936D02*
X49365000Y-55102064D01*
X50835000Y-54647936D02*
X50835000Y-55102064D01*
%TO.C,R19*%
X36327064Y-55765000D02*
X35872936Y-55765000D01*
X36327064Y-57235000D02*
X35872936Y-57235000D01*
%TO.C,R27*%
X41712936Y-63165000D02*
X42167064Y-63165000D01*
X41712936Y-64635000D02*
X42167064Y-64635000D01*
%TO.C,R18*%
X79235000Y-65527064D02*
X79235000Y-65072936D01*
X77765000Y-65527064D02*
X77765000Y-65072936D01*
%TO.C,U3*%
X73600000Y-52740000D02*
X75550000Y-52740000D01*
X73600000Y-52740000D02*
X70150000Y-52740000D01*
X73600000Y-57860000D02*
X71650000Y-57860000D01*
X73600000Y-57860000D02*
X75550000Y-57860000D01*
%TO.C,R4*%
X88335000Y-65927064D02*
X88335000Y-65472936D01*
X86865000Y-65927064D02*
X86865000Y-65472936D01*
%TO.C,R14*%
X67335000Y-65527064D02*
X67335000Y-65072936D01*
X65865000Y-65527064D02*
X65865000Y-65072936D01*
%TO.C,R106*%
X30272936Y-47635000D02*
X30727064Y-47635000D01*
X30272936Y-46165000D02*
X30727064Y-46165000D01*
%TO.C,R208*%
X106522936Y-42465000D02*
X106977064Y-42465000D01*
X106522936Y-43935000D02*
X106977064Y-43935000D01*
%TO.C,R104*%
X42327064Y-46265000D02*
X41872936Y-46265000D01*
X42327064Y-47735000D02*
X41872936Y-47735000D01*
%TO.C,C15*%
X53338748Y-53740000D02*
X53861252Y-53740000D01*
X53338748Y-55210000D02*
X53861252Y-55210000D01*
%TO.C,R7*%
X86235000Y-55272936D02*
X86235000Y-55727064D01*
X84765000Y-55272936D02*
X84765000Y-55727064D01*
%TO.C,R207*%
X86140000Y-28927064D02*
X86140000Y-28472936D01*
X87610000Y-28927064D02*
X87610000Y-28472936D01*
%TO.C,R2*%
X90165000Y-53272936D02*
X90165000Y-53727064D01*
X91635000Y-53272936D02*
X91635000Y-53727064D01*
%TO.C,R3*%
X90435000Y-65927064D02*
X90435000Y-65472936D01*
X88965000Y-65927064D02*
X88965000Y-65472936D01*
D15*
%TO.C,J1*%
X25745000Y-59200000D02*
X25745000Y-59600000D01*
D14*
X25545000Y-64500000D02*
X29345000Y-64500000D01*
D15*
X25745000Y-61400000D02*
X25745000Y-61800000D01*
D14*
X25545000Y-56500000D02*
X29345000Y-56500000D01*
D15*
X25545000Y-61600000D02*
X25745000Y-61400000D01*
X25545000Y-59400000D02*
X25745000Y-59200000D01*
X25745000Y-59600000D02*
X25545000Y-59400000D01*
X25745000Y-61800000D02*
X25545000Y-61600000D01*
D14*
%TO.C,R20*%
X40127064Y-57235000D02*
X39672936Y-57235000D01*
X40127064Y-55765000D02*
X39672936Y-55765000D01*
%TO.C,FB3*%
X70285242Y-41840000D02*
X69464758Y-41840000D01*
X70285242Y-42960000D02*
X69464758Y-42960000D01*
%TO.C,C10*%
X60738748Y-64965000D02*
X61261252Y-64965000D01*
X60738748Y-66435000D02*
X61261252Y-66435000D01*
%TD*%
M02*
