%TF.GenerationSoftware,KiCad,Pcbnew,6.0.2+dfsg-1*%
%TF.CreationDate,2024-02-19T13:29:31+02:00*%
%TF.ProjectId,qsd_with_si5351_and_rp2040,7173645f-7769-4746-985f-736935333531,rev?*%
%TF.SameCoordinates,Original*%
%TF.FileFunction,Soldermask,Bot*%
%TF.FilePolarity,Negative*%
%FSLAX46Y46*%
G04 Gerber Fmt 4.6, Leading zero omitted, Abs format (unit mm)*
G04 Created by KiCad (PCBNEW 6.0.2+dfsg-1) date 2024-02-19 13:29:31*
%MOMM*%
%LPD*%
G01*
G04 APERTURE LIST*
G04 Aperture macros list*
%AMRoundRect*
0 Rectangle with rounded corners*
0 $1 Rounding radius*
0 $2 $3 $4 $5 $6 $7 $8 $9 X,Y pos of 4 corners*
0 Add a 4 corners polygon primitive as box body*
4,1,4,$2,$3,$4,$5,$6,$7,$8,$9,$2,$3,0*
0 Add four circle primitives for the rounded corners*
1,1,$1+$1,$2,$3*
1,1,$1+$1,$4,$5*
1,1,$1+$1,$6,$7*
1,1,$1+$1,$8,$9*
0 Add four rect primitives between the rounded corners*
20,1,$1+$1,$2,$3,$4,$5,0*
20,1,$1+$1,$4,$5,$6,$7,0*
20,1,$1+$1,$6,$7,$8,$9,0*
20,1,$1+$1,$8,$9,$2,$3,0*%
G04 Aperture macros list end*
%ADD10R,1.700000X1.700000*%
%ADD11O,1.700000X1.700000*%
%ADD12C,5.600000*%
%ADD13C,3.600000*%
%ADD14R,4.100000X2.000000*%
%ADD15RoundRect,0.250000X0.275000X0.350000X-0.275000X0.350000X-0.275000X-0.350000X0.275000X-0.350000X0*%
%ADD16R,1.000000X3.000000*%
%ADD17RoundRect,0.250000X0.350000X-0.275000X0.350000X0.275000X-0.350000X0.275000X-0.350000X-0.275000X0*%
G04 APERTURE END LIST*
D10*
%TO.C,J3*%
X123000000Y-54200000D03*
D11*
X123000000Y-56740000D03*
X123000000Y-59280000D03*
X123000000Y-61820000D03*
%TD*%
D10*
%TO.C,J2*%
X31600000Y-60500000D03*
D11*
X31600000Y-63040000D03*
%TD*%
D10*
%TO.C,J201*%
X122975000Y-35900000D03*
D11*
X122975000Y-38440000D03*
%TD*%
D12*
%TO.C,H2*%
X121000000Y-27100000D03*
D13*
X121000000Y-27100000D03*
%TD*%
D12*
%TO.C,H4*%
X29000000Y-27000000D03*
D13*
X29000000Y-27000000D03*
%TD*%
D12*
%TO.C,H1*%
X29000000Y-69000000D03*
D13*
X29000000Y-69000000D03*
%TD*%
%TO.C,H3*%
X121000000Y-69000000D03*
D12*
X121000000Y-69000000D03*
%TD*%
D14*
%TO.C,J1*%
X27295000Y-57700000D03*
X27295000Y-63300000D03*
%TD*%
D15*
%TO.C,FB5*%
X79450000Y-60100000D03*
X77150000Y-60100000D03*
%TD*%
D16*
%TO.C,J101*%
X34870000Y-31520000D03*
X34870000Y-26480000D03*
X37410000Y-31520000D03*
X37410000Y-26480000D03*
X39950000Y-31520000D03*
X39950000Y-26480000D03*
X42490000Y-31520000D03*
X42490000Y-26480000D03*
X45030000Y-31520000D03*
X45030000Y-26480000D03*
X47570000Y-31520000D03*
X47570000Y-26480000D03*
X50110000Y-31520000D03*
X50110000Y-26480000D03*
X52650000Y-31520000D03*
X52650000Y-26480000D03*
X55190000Y-31520000D03*
X55190000Y-26480000D03*
X57730000Y-31520000D03*
X57730000Y-26480000D03*
X60270000Y-31520000D03*
X60270000Y-26480000D03*
X62810000Y-31520000D03*
X62810000Y-26480000D03*
X65350000Y-31520000D03*
X65350000Y-26480000D03*
X67890000Y-31520000D03*
X67890000Y-26480000D03*
X70430000Y-31520000D03*
X70430000Y-26480000D03*
X72970000Y-31520000D03*
X72970000Y-26480000D03*
X75510000Y-31520000D03*
X75510000Y-26480000D03*
X78050000Y-31520000D03*
X78050000Y-26480000D03*
X80590000Y-31520000D03*
X80590000Y-26480000D03*
X83130000Y-31520000D03*
X83130000Y-26480000D03*
%TD*%
D17*
%TO.C,FB4*%
X76350000Y-54150000D03*
X76350000Y-51850000D03*
%TD*%
G36*
X61942121Y-48020002D02*
G01*
X61988614Y-48073658D01*
X62000000Y-48126000D01*
X62000000Y-70874000D01*
X61979998Y-70942121D01*
X61926342Y-70988614D01*
X61874000Y-71000000D01*
X33126000Y-71000000D01*
X33057879Y-70979998D01*
X33011386Y-70926342D01*
X33000000Y-70874000D01*
X33000000Y-69126000D01*
X33020002Y-69057879D01*
X33073658Y-69011386D01*
X33126000Y-69000000D01*
X59981885Y-69000000D01*
X59997124Y-68995525D01*
X59998329Y-68994135D01*
X60000000Y-68986452D01*
X60000000Y-50018115D01*
X59995525Y-50002876D01*
X59994135Y-50001671D01*
X59986452Y-50000000D01*
X33018115Y-50000000D01*
X33002876Y-50004475D01*
X33001671Y-50005865D01*
X33000000Y-50013548D01*
X33000000Y-51374000D01*
X32979998Y-51442121D01*
X32926342Y-51488614D01*
X32874000Y-51500000D01*
X31126000Y-51500000D01*
X31057879Y-51479998D01*
X31011386Y-51426342D01*
X31000000Y-51374000D01*
X31000000Y-48126000D01*
X31020002Y-48057879D01*
X31073658Y-48011386D01*
X31126000Y-48000000D01*
X61874000Y-48000000D01*
X61942121Y-48020002D01*
G37*
G36*
X103942121Y-48020002D02*
G01*
X103988614Y-48073658D01*
X104000000Y-48126000D01*
X104000000Y-70874000D01*
X103979998Y-70942121D01*
X103926342Y-70988614D01*
X103874000Y-71000000D01*
X63126000Y-71000000D01*
X63057879Y-70979998D01*
X63011386Y-70926342D01*
X63000000Y-70874000D01*
X63000000Y-67126000D01*
X63020002Y-67057879D01*
X63073658Y-67011386D01*
X63126000Y-67000000D01*
X64874000Y-67000000D01*
X64942121Y-67020002D01*
X64988614Y-67073658D01*
X65000000Y-67126000D01*
X65000000Y-68981885D01*
X65004475Y-68997124D01*
X65005865Y-68998329D01*
X65013548Y-69000000D01*
X101981885Y-69000000D01*
X101997124Y-68995525D01*
X101998329Y-68994135D01*
X102000000Y-68986452D01*
X102000000Y-50018115D01*
X101995525Y-50002876D01*
X101994135Y-50001671D01*
X101986452Y-50000000D01*
X65018115Y-50000000D01*
X65002876Y-50004475D01*
X65001671Y-50005865D01*
X65000000Y-50013548D01*
X65000000Y-56874000D01*
X64979998Y-56942121D01*
X64926342Y-56988614D01*
X64874000Y-57000000D01*
X63126000Y-57000000D01*
X63057879Y-56979998D01*
X63011386Y-56926342D01*
X63000000Y-56874000D01*
X63000000Y-48126000D01*
X63020002Y-48057879D01*
X63073658Y-48011386D01*
X63126000Y-48000000D01*
X103874000Y-48000000D01*
X103942121Y-48020002D01*
G37*
G36*
X32942121Y-54020002D02*
G01*
X32988614Y-54073658D01*
X33000000Y-54126000D01*
X33000000Y-57874000D01*
X32979998Y-57942121D01*
X32926342Y-57988614D01*
X32874000Y-58000000D01*
X31126000Y-58000000D01*
X31057879Y-57979998D01*
X31011386Y-57926342D01*
X31000000Y-57874000D01*
X31000000Y-54126000D01*
X31020002Y-54057879D01*
X31073658Y-54011386D01*
X31126000Y-54000000D01*
X32874000Y-54000000D01*
X32942121Y-54020002D01*
G37*
M02*
